<?xml version="1.0" encoding="UTF-8"?>
<svg xmlns="http://www.w3.org/2000/svg" viewBox="0 0 1080 1080">
  <defs>
    <style>
      .cls-1 {
        fill: oklch(0.1703 0.0038 164.5412);
      }
      @media (prefers-color-scheme: dark) {
        .cls-1 {
          fill: oklch(0.9863 0.0353 101.8308);
        }
      }
    </style>
  </defs>
  <path class="cls-1" d="M763.11,617.13c-38.99,120.64-181.27,189.82-300.24,145.98-62.71-23.09-137.57,13.31-158.14,76.89-63.42-13.64-88.08-93.27-38.04-136.97,31.42-27.49,69.77-46.25,110.74-54.21,40.57-7.87,82.73-4.87,121.94,8.69,20.67,7.14,42.86,8.73,64.15,4.61,42.99-8.04,79.98-39.93,93.99-81.49,7.14-20.67,8.74-42.86,4.61-64.15-3.04-28.39-79.83,4.94-85.65,7.1,47.04-21.21,205.83-92.51,249.63-113.25-102.91,70.86-21.57,96.63-62.98,206.81h0ZM253.9,669.68c43.79-20.75,202.58-92.04,249.63-113.25-5.82,2.16-82.61,35.49-85.65,7.1-4.13-21.29-2.54-43.48,4.61-64.15,14.01-41.57,50.99-73.45,93.99-81.49,21.29-4.13,43.48-2.54,64.15,4.61,39.21,13.56,81.38,16.56,121.94,8.69,40.98-7.96,79.33-26.72,110.74-54.21,50.03-43.69,25.37-123.32-38.04-136.97-20.57,63.59-95.43,99.98-158.14,76.89-118.97-43.84-261.24,25.33-300.24,145.98-41.41,110.18,39.92,135.95-62.98,206.81h0Z"/>
</svg>