<?xml version="1.0" encoding="UTF-8"?>
<svg id="Layer_1" data-name="Layer 1" xmlns="http://www.w3.org/2000/svg" viewBox="0 0 1280.01 720.01">
  <defs>
    <style>
      .cls-1 {
        fill: none;
        stroke: #000;
        stroke-miterlimit: 10;
        stroke-width: 0px;
      }
    </style>
  </defs>
  <g>
    <rect class="cls-1" x="0" y="0" width="1280" height="24"/>
    <rect class="cls-1" x="0" y="24" width="1280" height="24"/>
    <rect class="cls-1" x="0" y="48" width="1280" height="24"/>
    <rect class="cls-1" x="40" y="72" width="63.33" height="24"/>
    <rect class="cls-1" x="0" y="72" width="40" height="24"/>
    <rect class="cls-1" x="103.34" y="72" width="1176.67" height="24"/>
    <rect class="cls-1" x="0" y="96" width="1280" height="24"/>
    <rect class="cls-1" x="0" y="120" width="1280" height="24"/>
    <rect class="cls-1" x="0" y="144" width="1280" height="24"/>
    <rect class="cls-1" x="0" y="168" width="1280" height="24"/>
    <rect class="cls-1" x="0" y="192" width="1280" height="24"/>
    <rect class="cls-1" x="0" y="216" width="1280" height="24"/>
    <rect class="cls-1" x="0" y="240" width="1280" height="24"/>
    <rect class="cls-1" x="0" y="264" width="1280" height="24"/>
    <rect class="cls-1" x="0" y="288" width="1280" height="24"/>
    <rect class="cls-1" x="0" y="312" width="1280" height="24"/>
    <rect class="cls-1" x="0" y="336" width="1280" height="24"/>
    <rect class="cls-1" x="0" y="360" width="1280" height="24"/>
    <rect class="cls-1" x="0" y="384" width="1280" height="24"/>
    <rect class="cls-1" x="0" y="408" width="1280" height="24"/>
    <rect class="cls-1" x="0" y="432" width="1280" height="24"/>
    <rect class="cls-1" x="0" y="456" width="1280" height="24"/>
    <rect class="cls-1" x="0" y="480" width="1280" height="24"/>
    <rect class="cls-1" x="0" y="504" width="1280" height="24"/>
    <rect class="cls-1" x="0" y="528" width="1280" height="24"/>
    <rect class="cls-1" x="0" y="552" width="1280" height="24"/>
    <rect class="cls-1" x="0" y="576" width="1280" height="24"/>
    <rect class="cls-1" x="0" y="600" width="1280" height="24"/>
    <rect class="cls-1" x="0" y="624" width="1280" height="24"/>
    <rect class="cls-1" x="0" y="648" width="1280" height="24"/>
    <rect class="cls-1" x="0" y="672" width="1280" height="24"/>
    <rect class="cls-1" x="0" y="696" width="1280" height="24"/>
  </g>
  <g>
    <rect class="cls-1" x="0" y="0" width="40" height="720"/>
    <rect class="cls-1" x="1136.67" y="0" width="40" height="720"/>
    <rect class="cls-1" x="1033.34" y="0" width="40" height="720"/>
    <rect class="cls-1" x="930" y="0" width="40" height="720"/>
    <rect class="cls-1" x="826.67" y="0" width="40" height="720"/>
    <rect class="cls-1" x="723.34" y="0" width="40" height="720"/>
    <rect class="cls-1" x="620" y="0" width="40" height="720"/>
    <rect class="cls-1" x="516.67" y="0" width="40" height="720"/>
    <rect class="cls-1" x="413.34" y="0" width="40" height="720"/>
    <rect class="cls-1" x="310" y="0" width="40" height="720"/>
    <rect class="cls-1" x="206.67" y="0" width="40" height="720"/>
    <rect class="cls-1" x="103.34" y="0" width="40" height="720"/>
    <rect class="cls-1" x="1240" y="0" width="40" height="720"/>
  </g>
</svg>