<?xml version="1.0" encoding="UTF-8"?>
<svg xmlns="http://www.w3.org/2000/svg" version="1.1" viewBox="0 0 1080 1080">
  <defs>
    <style>
      .cls-1 {
        fill: #050505;
      }
    </style>
  </defs>
  <!-- Generator: Adobe Illustrator 28.7.1, SVG Export Plug-In . SVG Version: 1.2.0 Build 142)  -->
  <g>
    <g id="Icon">
      <path class="cls-1" d="M540,0C241.8,0,0,241.8,0,540s241.8,540,540,540,540-241.8,540-540S838.2,0,540,0ZM870.9,870.9c-43,43-93.1,76.8-148.8,100.3-57.7,24.4-118.9,36.8-182.1,36.8s-124.5-12.4-182.1-36.8c-55.7-23.6-105.8-57.3-148.8-100.3-43-43-76.8-93.1-100.3-148.8-24.4-57.7-36.8-118.9-36.8-182.1s12.4-124.5,36.8-182.1c23.6-55.7,57.3-105.8,100.3-148.8,43-43,93.1-76.8,148.8-100.3,57.7-24.4,118.9-36.8,182.1-36.8s124.5,12.4,182.1,36.8c55.7,23.6,105.8,57.3,148.8,100.3,43,43,76.8,93.1,100.3,148.8,24.4,57.6,36.8,118.9,36.8,182.1s-12.4,124.5-36.8,182.1c-23.6,55.7-57.3,105.8-100.3,148.8ZM720,450h72v342h-342v-72h219.1l-406.5-406.5,50.9-50.9,406.5,406.5v-219.1Z"/>
    </g>
  </g>
</svg>