<?xml version="1.0" encoding="UTF-8"?>
<svg id="Arrow_Circle" data-name="Arrow Circle" xmlns="http://www.w3.org/2000/svg" viewBox="0 0 1080 1080">
  <defs>
    <style>
      .cls-1 {
        fill: #fafafa;
        stroke-width: 0px;
      }
    </style>
  </defs>
  <path id="Arrow" class="cls-1" d="m1009.11,312.72c-39.15,0-70.89,31.74-70.89,70.89v454.36L121.01,20.76c-27.69-27.68-72.57-27.68-100.25,0-27.68,27.68-27.68,72.57,0,100.25l817.21,817.21h-454.36c-39.15,0-70.89,31.74-70.89,70.89s31.74,70.89,70.89,70.89h625.5c10.65,0,20.74-2.36,29.8-6.57.02,0,.03-.01.05-.02,1.01-.47,2-.96,2.98-1.47.06-.03.11-.06.17-.09.97-.51,1.92-1.04,2.86-1.6.06-.04.13-.07.19-.11.97-.58,1.93-1.17,2.87-1.8.03-.02.05-.03.08-.05,8.01-5.29,14.88-12.16,20.17-20.17.02-.03.04-.06.06-.1.62-.94,1.21-1.89,1.78-2.86.04-.07.08-.14.12-.21.55-.94,1.08-1.88,1.59-2.84.03-.06.06-.13.1-.19.51-.97,1-1.96,1.46-2.96.01-.02.02-.05.03-.07,4.2-9.06,6.56-19.14,6.56-29.79V383.61c0-39.15-31.74-70.89-70.89-70.89Z"/>
</svg>