<?xml version="1.0" encoding="UTF-8"?>
<svg id="Arrow_Circle" data-name="Arrow Circle" xmlns="http://www.w3.org/2000/svg" viewBox="0 0 1080 1080">
  <defs>
    <style>
      .cls-1 {
        fill: #fafafa;
        stroke-width: 0px;
      }
    </style>
  </defs>
  <path id="Arrow_Circle-2" data-name="Arrow Circle" class="cls-1" d="m290.96,339.04c-13.28-13.28-13.28-34.81,0-48.08,13.28-13.28,34.8-13.28,48.08,0l391.96,391.96v-217.93c0-18.78,15.22-34,34-34s34,15.22,34,34v300.01c0,5.1-1.13,9.94-3.15,14.29,0,.01,0,.02-.01.03-.22.48-.46.95-.7,1.42-.02.03-.03.06-.05.09-.24.46-.5.92-.76,1.36-.02.03-.04.07-.06.1-.27.46-.56.92-.86,1.37-.01.02-.02.03-.03.05-2.54,3.84-5.83,7.14-9.67,9.67-.01,0-.03.02-.04.02-.45.3-.91.58-1.38.86-.03.02-.06.03-.09.05-.45.27-.91.52-1.37.77-.03.01-.05.03-.08.04-.47.25-.95.48-1.43.71,0,0-.02,0-.02.01-4.35,2.02-9.19,3.15-14.29,3.15h-300.01c-18.78,0-34-15.22-34-34s15.22-34,34-34h217.93l-391.96-391.96ZM0,540C0,241.77,241.77,0,540,0s540,241.77,540,540-241.77,540-540,540S0,838.23,0,540Zm105.06,183.7c23.77,56.2,57.81,106.68,101.18,150.05,43.37,43.37,93.85,77.41,150.05,101.18,58.15,24.59,119.95,37.06,183.7,37.06s125.56-12.47,183.7-37.06c56.2-23.77,106.68-57.81,150.05-101.18,43.37-43.37,77.41-93.85,101.18-150.05,24.59-58.15,37.06-119.95,37.06-183.7s-12.47-125.56-37.06-183.7c-23.77-56.2-57.81-106.68-101.18-150.05-43.37-43.37-93.85-77.41-150.05-101.18-58.15-24.59-119.95-37.06-183.7-37.06s-125.56,12.47-183.7,37.06c-56.2,23.77-106.68,57.81-150.05,101.18-43.37,43.37-77.41,93.85-101.18,150.05-24.59,58.15-37.06,119.95-37.06,183.7s12.47,125.56,37.06,183.7Z"/>
</svg>