<?xml version="1.0" encoding="UTF-8"?>
<svg id="Arrow_Circle" data-name="Arrow Circle" xmlns="http://www.w3.org/2000/svg" viewBox="0 0 1080 1080">
  <defs>
    <style>
      .cls-1 {
        fill: #fafafa;
        stroke-width: 0px;
      }
    </style>
  </defs>
  <path id="Asterisk" class="cls-1" d="m540,0c37.28,0,67.5,30.22,67.5,67.5v355.59l307.94-177.8c32.16-18.85,73.52-8.07,92.37,24.09,18.85,32.16,8.07,73.52-24.09,92.37-.26.15-.52.3-.77.45l-307.94,177.79,307.94,177.79c32.41,18.43,43.74,59.63,25.31,92.04-18.43,32.41-59.63,43.74-92.04,25.31-.26-.15-.52-.3-.77-.45l-307.94-177.79v355.59c0,37.28-30.22,67.5-67.5,67.5s-67.5-30.22-67.5-67.5v-355.59l-307.93,177.79c-32.16,18.85-73.52,8.07-92.37-24.1-18.85-32.16-8.07-73.52,24.1-92.37.26-.15.51-.3.77-.45l307.93-177.79L97.06,362.21c-32.16-18.85-42.95-60.21-24.09-92.37,18.68-31.86,59.49-42.79,91.59-24.54l307.94,177.79V67.5c0-37.28,30.22-67.5,67.5-67.5"/>
</svg>