<?xml version="1.0" encoding="UTF-8"?>
<svg xmlns="http://www.w3.org/2000/svg" viewBox="0 0 1080 1080">
  <defs>
    <style>
      .cls-1 {
        fill: #036;
      }

      .cls-1, .cls-2, .cls-3 {
        stroke-width: 0px;
      }

      .cls-4 {
        isolation: isolate;
      }

      .cls-2 {
        mix-blend-mode: overlay;
      }

      .cls-2, .cls-3 {
        fill: #fafafa;
      }
    </style>
  </defs>
  <g class="cls-4">
    <g id="Layer_1" data-name="Layer 1">
      <rect class="cls-1" width="1080" height="1080"/>
      <path id="Arrow_Circle-2" data-name="Arrow Circle-2" class="cls-2" d="m624.29,666.88c-9.83-9.83-9.83-25.76,0-35.58,9.83-9.83,25.75-9.83,35.58,0l290.04,290.04v-161.26c0-13.9,11.26-25.16,25.16-25.16s25.16,11.26,25.16,25.16v222c0,3.77-.84,7.36-2.33,10.57,0,0,0,.01,0,.02-.16.36-.34.7-.52,1.05-.01.02-.02.04-.04.07-.18.34-.37.68-.56,1.01-.01.02-.03.05-.04.07-.2.34-.41.68-.64,1.01,0,.01-.01.02-.02.04-1.88,2.84-4.31,5.28-7.16,7.16,0,0-.02.01-.03.01-.33.22-.67.43-1.02.64-.02.01-.04.02-.07.04-.33.2-.67.38-1.01.57-.02,0-.04.02-.06.03-.35.18-.7.36-1.06.53,0,0-.01,0-.01,0-3.22,1.49-6.8,2.33-10.57,2.33h-222c-13.9,0-25.16-11.26-25.16-25.16s11.26-25.16,25.16-25.16h161.26l-290.04-290.04h0Zm-215.3,148.7c0-220.68,178.9-399.58,399.58-399.58s399.58,178.9,399.58,399.58-178.9,399.58-399.58,399.58-399.58-178.9-399.58-399.58Zm77.74,135.93c17.59,41.59,42.78,78.94,74.87,111.03s69.45,57.28,111.03,74.87c43.03,18.2,88.76,27.42,135.93,27.42s92.91-9.23,135.93-27.42c41.59-17.59,78.94-42.78,111.03-74.87,32.09-32.09,57.28-69.45,74.87-111.03,18.2-43.03,27.42-88.76,27.42-135.93s-9.23-92.91-27.42-135.93c-17.59-41.59-42.78-78.94-74.87-111.03-32.09-32.09-69.45-57.28-111.03-74.87-43.03-18.2-88.76-27.42-135.93-27.42s-92.91,9.23-135.93,27.42c-41.59,17.59-78.94,42.78-111.03,74.87-32.09,32.09-57.28,69.45-74.87,111.03-18.2,43.03-27.42,88.76-27.42,135.93s9.23,92.91,27.42,135.93h0Z"/>
      <path class="cls-3" d="m150.55,812.3c3.8,4.8,5.7,10.3,5.7,16.5,0,5.6-1.38,10.53-4.12,14.77-2.75,4.25-6.73,7.58-11.92,9.98-5.2,2.4-11.35,3.6-18.45,3.6h-45.15v-104.7h43.2c7.1,0,13.22,1.15,18.38,3.45,5.15,2.3,9.05,5.5,11.7,9.6,2.65,4.1,3.97,8.75,3.97,13.95,0,6.1-1.63,11.2-4.88,15.3-3.25,4.1-7.57,7-12.97,8.7,5.9,1.1,10.75,4.05,14.55,8.85Zm-52.95-16.65h19.2c5,0,8.85-1.12,11.55-3.38,2.7-2.25,4.05-5.48,4.05-9.67s-1.35-7.45-4.05-9.75c-2.7-2.3-6.55-3.45-11.55-3.45h-19.2v26.25Zm33.08,40.8c2.85-2.4,4.28-5.8,4.28-10.2s-1.5-8.02-4.5-10.58c-3-2.55-7.05-3.82-12.15-3.82h-20.7v28.2h21.15c5.1,0,9.08-1.2,11.92-3.6Zm68.26-59.85c4.35-2.5,9.32-3.75,14.92-3.75v22.05h-5.55c-6.6,0-11.58,1.55-14.92,4.65-3.35,3.1-5.03,8.5-5.03,16.2v41.4h-21v-83.1h21v12.9c2.7-4.4,6.23-7.85,10.58-10.35Zm21.52,16.35c3.35-6.5,7.9-11.5,13.65-15,5.75-3.5,12.17-5.25,19.27-5.25,6.2,0,11.62,1.25,16.28,3.75,4.65,2.5,8.38,5.65,11.18,9.45v-11.85h21.15v83.1h-21.15v-12.15c-2.7,3.9-6.43,7.12-11.18,9.67-4.75,2.55-10.23,3.83-16.42,3.83-7,0-13.38-1.8-19.12-5.4-5.75-3.6-10.3-8.67-13.65-15.23-3.35-6.55-5.03-14.07-5.03-22.58s1.67-15.85,5.03-22.35Zm57.38,9.53c-2-3.65-4.7-6.45-8.1-8.4-3.4-1.95-7.05-2.92-10.95-2.92s-7.5.95-10.8,2.85c-3.3,1.9-5.98,4.68-8.02,8.32-2.05,3.65-3.08,7.98-3.08,12.98s1.03,9.38,3.08,13.12c2.05,3.75,4.75,6.63,8.1,8.62,3.35,2,6.92,3,10.72,3s7.55-.98,10.95-2.92c3.4-1.95,6.1-4.75,8.1-8.4,2-3.65,3-8.03,3-13.12s-1-9.47-3-13.12Zm107.92-20.25c6.1,6.25,9.15,14.98,9.15,26.17v48.75h-21v-45.9c0-6.6-1.65-11.67-4.95-15.23-3.3-3.55-7.8-5.33-13.5-5.33s-10.38,1.78-13.72,5.33c-3.35,3.55-5.03,8.62-5.03,15.23v45.9h-21v-83.1h21v10.35c2.8-3.6,6.38-6.42,10.73-8.48,4.35-2.05,9.12-3.07,14.33-3.07,9.9,0,17.9,3.13,24,9.38Zm22.53,10.72c3.35-6.5,7.92-11.5,13.72-15,5.8-3.5,12.25-5.25,19.35-5.25,5.4,0,10.55,1.18,15.45,3.53,4.9,2.35,8.8,5.47,11.7,9.38v-39.45h21.3v111h-21.3v-12.3c-2.6,4.1-6.25,7.4-10.95,9.9-4.7,2.5-10.15,3.75-16.35,3.75-7,0-13.4-1.8-19.2-5.4-5.8-3.6-10.38-8.67-13.72-15.23-3.35-6.55-5.03-14.07-5.03-22.58s1.67-15.85,5.03-22.35Zm57.37,9.53c-2-3.65-4.7-6.45-8.1-8.4-3.4-1.95-7.05-2.92-10.95-2.92s-7.5.95-10.8,2.85c-3.3,1.9-5.98,4.68-8.03,8.32-2.05,3.65-3.07,7.98-3.07,12.98s1.02,9.38,3.07,13.12c2.05,3.75,4.75,6.63,8.1,8.62,3.35,2,6.92,3,10.72,3s7.55-.98,10.95-2.92c3.4-1.95,6.1-4.75,8.1-8.4,2-3.65,3-8.03,3-13.12s-1-9.47-3-13.12Zm-316.17,131.47c-2.4-4.4-5.7-7.75-9.9-10.05-4.2-2.3-9.1-3.45-14.7-3.45-6.2,0-11.7,1.4-16.5,4.2-4.8,2.8-8.55,6.8-11.25,12-2.7,5.2-4.05,11.2-4.05,18s1.37,13.1,4.12,18.3c2.75,5.2,6.57,9.2,11.48,12,4.9,2.8,10.6,4.2,17.1,4.2,8,0,14.55-2.12,19.65-6.38,5.1-4.25,8.45-10.17,10.05-17.78h-36v-16.05h56.7v18.3c-1.4,7.3-4.4,14.05-9,20.25-4.6,6.2-10.53,11.18-17.78,14.93-7.25,3.75-15.38,5.62-24.38,5.62-10.1,0-19.23-2.27-27.38-6.83-8.15-4.55-14.55-10.88-19.2-18.98-4.65-8.1-6.97-17.3-6.97-27.6s2.33-19.52,6.97-27.67c4.65-8.15,11.05-14.5,19.2-19.05,8.15-4.55,17.22-6.82,27.23-6.82,11.8,0,22.05,2.88,30.75,8.62,8.7,5.75,14.7,13.83,18,24.22h-24.15Zm115.41-9.9v83.1h-21.15v-10.5c-2.7,3.6-6.22,6.43-10.57,8.47-4.35,2.05-9.08,3.08-14.18,3.08-6.5,0-12.25-1.37-17.25-4.12-5-2.75-8.92-6.8-11.77-12.15-2.85-5.35-4.27-11.72-4.27-19.12v-48.75h21v45.75c0,6.6,1.65,11.68,4.95,15.22,3.3,3.55,7.8,5.33,13.5,5.33s10.35-1.77,13.65-5.33c3.3-3.55,4.95-8.62,4.95-15.22v-45.75h21.15Zm15.27-13.43c-2.45-2.35-3.67-5.27-3.67-8.77s1.22-6.42,3.67-8.78c2.45-2.35,5.52-3.52,9.22-3.52s6.77,1.18,9.23,3.52c2.45,2.35,3.67,5.28,3.67,8.78s-1.23,6.43-3.67,8.77c-2.45,2.35-5.53,3.53-9.23,3.53s-6.78-1.17-9.22-3.53Zm19.58,13.43v83.1h-21v-83.1h21Zm13.88,18.9c3.35-6.5,7.92-11.5,13.73-15,5.8-3.5,12.25-5.25,19.35-5.25,5.4,0,10.55,1.18,15.45,3.53,4.9,2.35,8.8,5.47,11.7,9.38v-39.45h21.3v111h-21.3v-12.3c-2.6,4.1-6.25,7.4-10.95,9.9-4.7,2.5-10.15,3.75-16.35,3.75-7,0-13.4-1.8-19.2-5.4-5.8-3.6-10.38-8.67-13.73-15.23-3.35-6.55-5.02-14.07-5.02-22.57s1.67-15.85,5.02-22.35Zm57.38,9.53c-2-3.65-4.7-6.45-8.1-8.4-3.4-1.95-7.05-2.92-10.95-2.92s-7.5.95-10.8,2.85c-3.3,1.9-5.98,4.68-8.02,8.33-2.05,3.65-3.08,7.98-3.08,12.98s1.02,9.38,3.08,13.12c2.05,3.75,4.75,6.62,8.1,8.62,3.35,2,6.92,3,10.72,3s7.55-.98,10.95-2.93c3.4-1.95,6.1-4.75,8.1-8.4,2-3.65,3-8.03,3-13.12s-1-9.47-3-13.12Zm115.11,19.42h-60.75c.5,6,2.6,10.7,6.3,14.1,3.7,3.4,8.25,5.1,13.65,5.1,7.8,0,13.35-3.35,16.65-10.05h22.65c-2.4,8-7,14.58-13.8,19.72-6.8,5.15-15.15,7.72-25.05,7.72-8,0-15.18-1.77-21.53-5.32-6.35-3.55-11.3-8.57-14.85-15.08-3.55-6.5-5.32-14-5.32-22.5s1.75-16.15,5.25-22.65c3.5-6.5,8.4-11.5,14.7-15,6.3-3.5,13.55-5.25,21.75-5.25s14.97,1.7,21.22,5.1c6.25,3.4,11.1,8.23,14.55,14.47,3.45,6.25,5.17,13.42,5.17,21.53,0,3-.2,5.7-.6,8.1Zm-21.15-14.1c-.1-5.4-2.05-9.72-5.85-12.98-3.8-3.25-8.45-4.88-13.95-4.88-5.2,0-9.58,1.58-13.12,4.73-3.55,3.15-5.73,7.53-6.53,13.12h39.45Zm51.72-61.65v111h-21v-111h21Zm15.36,14.47c-2.45-2.35-3.68-5.27-3.68-8.77s1.22-6.42,3.68-8.78c2.45-2.35,5.52-3.52,9.22-3.52s6.77,1.18,9.22,3.52c2.45,2.35,3.68,5.28,3.68,8.78s-1.23,6.43-3.68,8.77c-2.45,2.35-5.53,3.53-9.22,3.53s-6.78-1.17-9.22-3.53Zm19.57,13.43v83.1h-21v-83.1h21Zm83.93,8.17c6.1,6.25,9.15,14.98,9.15,26.17v48.75h-21v-45.9c0-6.6-1.65-11.67-4.95-15.22-3.3-3.55-7.8-5.33-13.5-5.33s-10.38,1.78-13.72,5.33c-3.35,3.55-5.03,8.62-5.03,15.22v45.9h-21v-83.1h21v10.35c2.8-3.6,6.38-6.42,10.73-8.47,4.35-2.05,9.12-3.08,14.33-3.08,9.9,0,17.9,3.13,24,9.38Zm99.55,39.67h-60.75c.5,6,2.6,10.7,6.3,14.1,3.7,3.4,8.25,5.1,13.65,5.1,7.8,0,13.35-3.35,16.65-10.05h22.65c-2.4,8-7,14.58-13.8,19.72-6.8,5.15-15.15,7.72-25.05,7.72-8,0-15.18-1.77-21.53-5.32-6.35-3.55-11.3-8.57-14.85-15.08-3.55-6.5-5.33-14-5.33-22.5s1.75-16.15,5.25-22.65c3.5-6.5,8.4-11.5,14.7-15,6.3-3.5,13.55-5.25,21.75-5.25s14.97,1.7,21.22,5.1c6.25,3.4,11.1,8.23,14.55,14.47,3.45,6.25,5.17,13.42,5.17,21.53,0,3-.2,5.7-.6,8.1Zm-21.15-14.1c-.1-5.4-2.05-9.72-5.85-12.98-3.8-3.25-8.45-4.88-13.95-4.88-5.2,0-9.58,1.58-13.12,4.73-3.55,3.15-5.73,7.53-6.52,13.12h39.45Zm43.57,47.02c-5.4-2.45-9.67-5.77-12.82-9.97-3.15-4.2-4.88-8.85-5.18-13.95h21.15c.4,3.2,1.97,5.85,4.72,7.95,2.75,2.1,6.17,3.15,10.28,3.15s7.12-.8,9.38-2.4c2.25-1.6,3.38-3.65,3.38-6.15,0-2.7-1.38-4.72-4.12-6.08-2.75-1.35-7.12-2.82-13.12-4.42-6.2-1.5-11.28-3.05-15.22-4.65-3.95-1.6-7.35-4.05-10.2-7.35-2.85-3.3-4.28-7.75-4.28-13.35,0-4.6,1.32-8.8,3.98-12.6,2.65-3.8,6.45-6.8,11.4-9,4.95-2.2,10.77-3.3,17.48-3.3,9.9,0,17.8,2.48,23.7,7.42,5.9,4.95,9.15,11.62,9.75,20.03h-20.1c-.3-3.3-1.68-5.92-4.12-7.88-2.45-1.95-5.73-2.92-9.83-2.92-3.8,0-6.73.7-8.77,2.1-2.05,1.4-3.08,3.35-3.08,5.85,0,2.8,1.4,4.93,4.2,6.38,2.8,1.45,7.15,2.92,13.05,4.42,6,1.5,10.95,3.05,14.85,4.65,3.9,1.6,7.28,4.08,10.12,7.43,2.85,3.35,4.32,7.78,4.42,13.27,0,4.8-1.33,9.1-3.97,12.9-2.65,3.8-6.45,6.78-11.4,8.92-4.95,2.15-10.72,3.22-17.32,3.22s-12.9-1.23-18.3-3.67Z"/>
      <path class="cls-3" d="m989.3,71.5l-15.2,96h19.2l15.2-96h-19.2Zm-145.8,72l-17.4-72h-19.2l-15.2,96h19.2l7.6-48,11.6,48h19.2l26.8-48-7.6,48h19.2l15.2-96h-19.2l-40.2,72Zm117-72l-10.86,68.57-22.29-41.14-14.86-27.43-4.34,27.43,14.86,27.43,22.29,41.14h19.2l15.2-96h-19.2Z"/>
      <g>
        <path class="cls-3" d="m72,116.52v-21.69h4.6l.43,4.05c.55-.95,1.19-1.76,1.94-2.42s1.66-1.2,2.71-1.57,2.24-.55,3.53-.55v5.42h-1.86c-.85,0-1.67.1-2.46.32-.77.22-1.44.57-2.01,1.05-.55.48-.99,1.15-1.29,1.97-.3.84-.45,1.86-.45,3.06v10.37h-5.15Zm22,.5c-1.76,0-3.23-.3-4.41-.9-1.19-.6-2.07-1.4-2.64-2.41s-.85-2.11-.85-3.31.35-2.52,1.05-3.53c.7-1,1.74-1.79,3.13-2.34,1.37-.55,3.08-.84,5.12-.84h5.47c0-1.15-.17-2.11-.5-2.86s-.82-1.34-1.49-1.72c-.65-.38-1.52-.59-2.57-.59s-2.17.27-3.01.82-1.35,1.35-1.56,2.46h-5.08c.17-1.56.7-2.88,1.57-4,.87-1.12,2.02-1.97,3.44-2.57,1.42-.6,2.96-.9,4.63-.9s3.83.35,5.27,1.05c1.45.7,2.56,1.71,3.31,2.99s1.14,2.88,1.14,4.73v13.43h-4.43l-.52-3.44c-.28.57-.65,1.1-1.1,1.57-.45.47-.95.89-1.56,1.25-.59.35-1.24.64-1.96.84s-1.54.3-2.46.3l.02-.03Zm1.15-4.08c.84,0,1.57-.15,2.24-.45.65-.3,1.22-.74,1.67-1.29s.82-1.19,1.1-1.89c.27-.7.43-1.44.5-2.22v-.08h-4.73c-1.04,0-1.87.13-2.52.38-.65.25-1.12.6-1.44,1.05s-.47.97-.47,1.57.15,1.15.45,1.59.74.75,1.29.99,1.2.35,1.91.35h0Zm14.63,3.58v-30.98h5.17v12.66c.69-1.17,1.66-2.11,2.88-2.83,1.24-.7,2.64-1.05,4.21-1.05s3.24.37,4.48,1.1,2.17,1.82,2.83,3.24c.65,1.44.97,3.19.97,5.28v12.56h-5.12v-12.09c0-1.86-.38-3.29-1.15-4.28s-1.97-1.49-3.58-1.49-1.97.25-2.83.77-1.5,1.25-1.97,2.19-.7,2.07-.7,3.39v11.49h-5.17l-.02.03Zm24.35,0v-21.69h4.56l.35,2.93c.69-1.05,1.62-1.91,2.78-2.52,1.15-.62,2.44-.92,3.85-.92s2.11.15,2.99.43c.87.28,1.66.72,2.32,1.29.67.57,1.22,1.29,1.66,2.16.77-1.2,1.81-2.16,3.09-2.84s2.71-1.04,4.26-1.04,3.34.37,4.6,1.1,2.22,1.81,2.86,3.23.97,3.16.97,5.23v12.66h-5.12v-12.17c0-1.84-.37-3.24-1.12-4.21-.75-.97-1.84-1.45-3.28-1.45s-1.87.25-2.63.75-1.34,1.22-1.76,2.16c-.43.94-.65,2.07-.65,3.43v11.54h-5.17v-12.17c0-1.84-.37-3.24-1.12-4.21-.75-.97-1.87-1.45-3.39-1.45s-1.79.25-2.54.75-1.32,1.22-1.74,2.16-.62,2.07-.62,3.43v11.54h-5.17v-.08Zm45.05.5c-1.76,0-3.23-.3-4.41-.9-1.19-.6-2.07-1.4-2.64-2.41-.57-1-.85-2.11-.85-3.31s.35-2.52,1.05-3.53,1.74-1.79,3.13-2.34c1.37-.55,3.08-.84,5.12-.84h5.47c0-1.15-.17-2.11-.5-2.86s-.82-1.34-1.49-1.72c-.65-.38-1.52-.59-2.57-.59s-2.17.27-3.01.82-1.35,1.35-1.56,2.46h-5.08c.17-1.56.7-2.88,1.57-4,.87-1.12,2.02-1.97,3.44-2.57,1.42-.6,2.96-.9,4.63-.9s3.83.35,5.27,1.05c1.45.7,2.56,1.71,3.31,2.99s1.14,2.88,1.14,4.73v13.43h-4.43l-.52-3.44c-.28.57-.65,1.1-1.1,1.57s-.95.89-1.56,1.25c-.59.35-1.24.64-1.96.84s-1.54.3-2.46.3l.02-.03Zm1.15-4.08c.84,0,1.57-.15,2.24-.45.65-.3,1.22-.74,1.67-1.29s.82-1.19,1.1-1.89c.27-.7.43-1.44.5-2.22v-.08h-4.73c-1.04,0-1.87.13-2.52.38-.65.25-1.12.6-1.44,1.05-.32.45-.47.97-.47,1.57s.15,1.15.45,1.59.74.75,1.29.99,1.2.35,1.92.35h-.02Zm24.03,4.08c-2.01,0-3.8-.5-5.35-1.49-1.57-.99-2.78-2.34-3.66-4.05-.87-1.71-1.3-3.65-1.3-5.84s.45-4.16,1.34-5.87,2.12-3.04,3.73-4.03c1.59-.97,3.39-1.45,5.4-1.45s3.03.3,4.23.92c1.22.62,2.19,1.49,2.91,2.61v-12.29h5.17v30.98h-4.6l-.52-3.18c-.45.69-1.02,1.3-1.67,1.86s-1.45.99-2.39,1.34-2.02.52-3.24.52l-.03-.03Zm1.12-4.48c1.25,0,2.36-.3,3.29-.89.94-.59,1.66-1.4,2.16-2.42.5-1.04.75-2.22.75-3.58s-.25-2.54-.75-3.58c-.5-1.04-1.22-1.84-2.16-2.42-.94-.59-2.02-.89-3.29-.89s-2.24.28-3.18.85c-.95.57-1.67,1.39-2.19,2.42-.52,1.05-.77,2.24-.77,3.59s.25,2.57.77,3.59,1.25,1.82,2.19,2.41c.95.59,2.01.89,3.18.89v.02Zm17.92-21.15c-.95,0-1.72-.3-2.34-.89s-.92-1.3-.92-2.17.3-1.61.92-2.17c.62-.55,1.4-.84,2.34-.84s1.72.28,2.34.84c.62.55.92,1.29.92,2.17s-.3,1.59-.92,2.17-1.4.89-2.34.89Zm-2.57,25.13v-21.69h5.17v21.69h-5.17Zm9,9.46v-31.15h4.6l.47,3.14c.48-.65,1.05-1.25,1.71-1.81.65-.55,1.42-.99,2.32-1.34s1.99-.52,3.24-.52c2.07,0,3.88.5,5.42,1.49,1.56.99,2.78,2.34,3.66,4.05s1.34,3.66,1.34,5.87-.45,4.13-1.35,5.84-2.14,3.04-3.7,4.03c-1.57.97-3.34,1.45-5.35,1.45s-3.11-.3-4.33-.92c-1.22-.62-2.17-1.5-2.86-2.64v12.52h-5.17v-.02Zm11.27-13.43c1.2,0,2.27-.3,3.21-.89s1.66-1.39,2.19-2.41c.54-1.02.8-2.21.8-3.54s-.27-2.54-.8-3.59c-.54-1.05-1.25-1.86-2.19-2.46-.94-.59-2.01-.89-3.21-.89s-2.36.3-3.29.89c-.94.59-1.66,1.4-2.17,2.42s-.77,2.24-.77,3.61.25,2.49.77,3.53,1.24,1.84,2.17,2.42,2.02.89,3.29.89v.02Z"/>
        <path class="cls-3" d="m72,82.94v-10.57h3.25c1.23,0,2.24.22,3.05.65s1.4,1.04,1.79,1.83c.39.79.58,1.73.58,2.81s-.19,2.02-.58,2.81c-.39.78-.98,1.39-1.79,1.82-.81.43-1.82.64-3.05.64h-3.25Zm1.51-1.27h1.68c.97,0,1.74-.16,2.32-.48.58-.32.99-.78,1.24-1.38s.37-1.31.37-2.14-.12-1.55-.37-2.16c-.25-.6-.66-1.07-1.24-1.39s-1.35-.48-2.32-.48h-1.68v8.03Zm12.08,1.45c-.72,0-1.37-.17-1.92-.5s-1-.8-1.31-1.39c-.32-.59-.48-1.29-.48-2.08s.15-1.49.46-2.09.74-1.07,1.31-1.4,1.23-.51,1.97-.51,1.38.17,1.92.5.94.77,1.23,1.31c.29.54.43,1.15.43,1.81v.33c0,.12,0,.25-.03.38h-6.19v-1.06h4.72c-.03-.62-.24-1.12-.63-1.48-.39-.36-.88-.54-1.46-.54-.41,0-.79.09-1.13.28-.34.19-.61.46-.81.82s-.3.81-.3,1.35v.42c0,.56.1,1.04.3,1.42s.47.67.81.88c.34.2.71.3,1.13.3.48,0,.88-.11,1.2-.32.32-.21.55-.5.69-.86h1.51c-.13.46-.35.88-.66,1.25-.31.37-.69.66-1.15.87s-.98.32-1.58.32Zm7.95,0c-.66,0-1.24-.11-1.71-.32-.48-.22-.86-.51-1.13-.89-.28-.38-.45-.82-.51-1.34h1.52c.05.24.15.46.29.66.15.2.35.36.6.48.26.12.57.18.93.18.32,0,.59-.05.81-.14.22-.1.38-.23.48-.39.11-.17.16-.35.16-.54,0-.28-.07-.5-.2-.64-.14-.15-.34-.26-.61-.35s-.6-.17-.98-.23c-.33-.07-.66-.16-1-.26-.33-.1-.63-.23-.88-.4-.26-.17-.46-.37-.61-.61-.15-.24-.23-.54-.23-.91,0-.43.11-.82.34-1.17.23-.35.56-.62.99-.81.43-.2.94-.29,1.52-.29.85,0,1.52.2,2.04.6.51.4.82.97.92,1.71h-1.46c-.05-.34-.2-.61-.46-.8-.26-.19-.61-.29-1.05-.29s-.77.09-1,.26c-.23.18-.35.4-.35.67,0,.18.07.34.2.48.14.14.33.26.58.36.25.1.56.19.94.26.53.1,1.01.23,1.43.38.42.16.76.38,1.02.67.26.29.38.71.38,1.25,0,.48-.12.9-.37,1.26-.25.36-.59.64-1.04.84-.45.2-.97.3-1.58.3Zm5.27-9.22c-.29,0-.53-.09-.72-.27-.19-.18-.28-.41-.28-.69s.09-.5.28-.67c.19-.18.42-.26.72-.26s.52.09.71.26c.19.18.29.4.29.67s-.1.51-.29.69c-.19.18-.43.27-.71.27Zm-.75,9.04v-7.61h1.51v7.61h-1.51Zm6.4,3.5c-.69,0-1.31-.09-1.84-.26-.53-.18-.95-.45-1.24-.81s-.44-.81-.44-1.33c0-.27.06-.55.18-.82.12-.28.32-.54.59-.8.27-.26.64-.48,1.1-.67l.84.66c-.51.2-.86.44-1.03.7-.18.27-.26.52-.26.76,0,.31.09.57.27.77.18.2.43.35.75.45.32.1.68.15,1.07.15s.75-.06,1.03-.17c.29-.11.51-.26.67-.46.16-.2.24-.43.24-.7,0-.34-.12-.62-.36-.83s-.7-.34-1.39-.38c-.56-.04-1.05-.1-1.45-.17-.4-.08-.74-.16-1.01-.26-.27-.1-.5-.21-.69-.33-.19-.13-.35-.25-.48-.38v-.35l1.51-1.54,1.22.42-1.65,1.51.32-.68c.11.08.22.15.32.22s.24.12.41.17c.17.05.39.1.69.14s.67.08,1.13.12c.69.05,1.25.17,1.68.35.42.19.73.44.91.76.19.32.28.71.28,1.18,0,.43-.12.84-.35,1.23-.24.39-.6.71-1.1.96-.5.25-1.14.38-1.92.38Zm0-5.84c-.63,0-1.18-.12-1.63-.37-.45-.25-.8-.57-1.03-.98-.24-.41-.35-.87-.35-1.38s.12-.96.36-1.37c.24-.41.58-.73,1.03-.98.44-.25.99-.37,1.63-.37s1.17.12,1.62.37c.45.25.79.57,1.02.98.23.41.35.86.35,1.37s-.12.97-.35,1.38c-.23.41-.57.74-1.02.98-.45.25-.99.37-1.62.37Zm0-1.21c.49,0,.88-.13,1.17-.39.29-.26.43-.63.43-1.12s-.14-.87-.43-1.12c-.29-.26-.68-.39-1.17-.39s-.88.13-1.18.39c-.31.26-.46.63-.46,1.12s.15.87.45,1.12c.3.26.7.39,1.2.39Zm1.24-2.87l-.36-1.19h3.12v1.03l-2.76.17Zm3.97,6.41v-7.61h1.36l.09,1.3c.24-.46.58-.83,1.02-1.09s.95-.39,1.53-.39c.61,0,1.14.12,1.57.36.43.24.77.61,1,1.09.24.49.35,1.1.35,1.83v4.5h-1.51v-4.35c0-.7-.16-1.24-.47-1.61-.31-.37-.76-.55-1.36-.55-.39,0-.74.1-1.06.29-.31.19-.56.47-.75.83-.19.36-.28.81-.28,1.33v4.06h-1.51Zm12.07.18c-.72,0-1.37-.17-1.92-.5s-1-.8-1.31-1.39c-.32-.59-.48-1.29-.48-2.08s.15-1.49.46-2.09.74-1.07,1.31-1.4,1.23-.51,1.97-.51,1.38.17,1.92.5.94.77,1.23,1.31c.29.54.43,1.15.43,1.81v.33c0,.12,0,.25-.03.38h-6.19v-1.06h4.72c-.03-.62-.24-1.12-.63-1.48-.39-.36-.88-.54-1.46-.54-.41,0-.79.09-1.13.28-.34.19-.61.46-.81.82s-.3.81-.3,1.35v.42c0,.56.1,1.04.3,1.42s.47.67.81.88c.34.2.71.3,1.13.3.48,0,.88-.11,1.2-.32.32-.21.55-.5.69-.86h1.51c-.13.46-.35.88-.66,1.25-.31.37-.69.66-1.15.87s-.98.32-1.58.32Zm8.42,0c-.71,0-1.35-.17-1.9-.52-.55-.35-.98-.82-1.28-1.43-.3-.6-.45-1.28-.45-2.04s.15-1.46.45-2.06.73-1.07,1.29-1.41,1.19-.51,1.91-.51c.61,0,1.14.12,1.59.35.45.24.8.57,1.05.99v-4.42h1.51v10.87h-1.36l-.14-1.19c-.16.24-.36.47-.61.67-.25.21-.54.38-.88.51-.34.13-.73.2-1.19.2Zm.27-1.31c.47,0,.89-.11,1.25-.34.36-.23.63-.54.83-.94s.29-.86.29-1.4-.1-1-.29-1.4-.47-.71-.83-.94c-.36-.22-.77-.33-1.25-.33s-.88.11-1.24.33c-.36.22-.64.53-.84.94-.2.4-.29.87-.29,1.39s.1,1.01.29,1.41c.2.4.48.71.84.94s.77.34,1.24.34Zm13.22,1.31c-.41,0-.79-.06-1.12-.17-.34-.12-.63-.27-.88-.48s-.46-.43-.63-.69l-.15,1.16h-1.36v-10.87h1.51v4.45c.25-.38.6-.71,1.03-.97s.97-.4,1.61-.4c.72,0,1.36.17,1.92.52.55.35.98.82,1.29,1.42s.46,1.28.46,2.04-.15,1.45-.46,2.05c-.31.6-.74,1.08-1.29,1.42-.55.34-1.19.51-1.92.51Zm-.24-1.31c.45,0,.86-.11,1.22-.34s.64-.54.85-.93c.2-.39.3-.86.3-1.4s-.1-1-.3-1.4c-.2-.4-.48-.71-.85-.94-.36-.22-.77-.33-1.22-.33-.48,0-.9.11-1.26.34s-.63.54-.83.94-.29.87-.29,1.39.1,1.01.29,1.4c.2.39.47.7.83.93s.78.34,1.26.34Zm5.93,4.45l1.86-4.17h-.44l-3-6.76h1.65l2.37,5.52,2.4-5.52h1.59l-4.83,10.93h-1.59Z"/>
      </g>
    </g>
  </g>
</svg>