<?xml version="1.0" encoding="UTF-8"?>
<svg xmlns="http://www.w3.org/2000/svg" viewBox="0 0 1920 1080">
  <defs>
    <style>
      .cls-1 {
        fill: #036;
      }

      .cls-1, .cls-2 {
        stroke-width: 0px;
      }

      .cls-3 {
        isolation: isolate;
      }

      .cls-2 {
        fill: #fafafa;
        mix-blend-mode: overlay;
      }
    </style>
  </defs>
  <g class="cls-3">
    <g id="Layer_1" data-name="Layer 1">
      <rect class="cls-1" width="1920" height="1080"/>
      <path id="Arrow_Circle-2" data-name="Arrow Circle-2" class="cls-2" d="m1464.29,666.88c-9.83-9.83-9.83-25.76,0-35.58,9.83-9.83,25.75-9.83,35.58,0l290.04,290.04v-161.26c0-13.9,11.26-25.16,25.16-25.16s25.16,11.26,25.16,25.16v222c0,3.77-.84,7.36-2.33,10.57,0,0,0,.01,0,.02-.16.36-.34.7-.52,1.05-.01.02-.02.04-.04.07-.18.34-.37.68-.56,1.01-.01.02-.03.05-.04.07-.2.34-.41.68-.64,1.01,0,.01-.01.02-.02.04-1.88,2.84-4.31,5.28-7.16,7.16,0,0-.02.01-.03.01-.33.22-.67.43-1.02.64-.02.01-.04.02-.07.04-.33.2-.67.38-1.01.57-.02,0-.04.02-.06.03-.35.18-.7.36-1.06.53,0,0-.01,0-.01,0-3.22,1.49-6.8,2.33-10.57,2.33h-222c-13.9,0-25.16-11.26-25.16-25.16s11.26-25.16,25.16-25.16h161.26l-290.04-290.04h0Zm-215.3,148.7c0-220.68,178.9-399.58,399.58-399.58s399.58,178.9,399.58,399.58-178.9,399.58-399.58,399.58-399.58-178.9-399.58-399.58Zm77.74,135.93c17.59,41.59,42.78,78.94,74.87,111.03,32.09,32.09,69.45,57.28,111.03,74.87,43.03,18.2,88.76,27.42,135.93,27.42s92.91-9.23,135.93-27.42c41.59-17.59,78.94-42.78,111.03-74.87,32.09-32.09,57.28-69.45,74.87-111.03,18.2-43.03,27.42-88.76,27.42-135.93s-9.23-92.91-27.42-135.93c-17.59-41.59-42.78-78.94-74.87-111.03-32.09-32.09-69.45-57.28-111.03-74.87-43.03-18.2-88.76-27.42-135.93-27.42s-92.91,9.23-135.93,27.42c-41.59,17.59-78.94,42.78-111.03,74.87-32.09,32.09-57.28,69.45-74.87,111.03-18.2,43.03-27.42,88.76-27.42,135.93s9.23,92.91,27.42,135.93h0Z"/>
    </g>
  </g>
</svg>