<?xml version="1.0" encoding="UTF-8"?>
<svg id="Arrow_Circle" data-name="Arrow Circle" xmlns="http://www.w3.org/2000/svg" viewBox="0 0 1080 1080">
  <defs>
    <style>
      .cls-1 {
        fill: #fafafa;
        stroke-width: 0px;
      }
    </style>
  </defs>
  <path id="Flower" class="cls-1" d="m540,540h0s0,0,0,0C241.77,540,0,298.23,0,0h0s0,0,0,0c298.23,0,540,241.77,540,540Zm0,0h0c0,298.23,241.77,540,540,540h0c0-298.23-241.77-540-540-540ZM1080,0h0s0,0,0,0c-298.23,0-540,241.77-540,540h0s0,0,0,0C838.23,540,1080,298.23,1080,0Zm-540,540h0s0,0,0,0C241.77,540,0,781.77,0,1080h0s0,0,0,0c298.23,0,540-241.77,540-540Z"/>
</svg>