<?xml version="1.0" encoding="utf-8"?>
<!-- Generator: Adobe Illustrator 27.9.0, SVG Export Plug-In . SVG Version: 6.00 Build 0)  -->
<svg version="1.1" id="Main_Logo" xmlns="http://www.w3.org/2000/svg" xmlns:xlink="http://www.w3.org/1999/xlink" x="0px" y="0px"
	 viewBox="0 0 4338 1080" style="enable-background:new 0 0 4338 1080;" xml:space="preserve">
<style type="text/css">
	.st0{fill:#FF6633;}
	.st1{fill:#003366;}
</style>
<g id="Color">
	<polygon class="st0" points="2223,0 2052,1080 2268,1080 2439,0 	"/>
	<polygon class="st1" points="582.8,810 387,0 171,0 0,1080 216,1080 301.5,540 432,1080 648,1080 949.5,540 864,1080 1080,1080 
		1251,0 1035,0 	"/>
	<polygon class="st1" points="1899,0 1776.9,771.4 1359,0 1310.1,308.6 1728,1080 1944,1080 2115,0 	"/>
	<g>
		<polygon class="st1" points="2656.8,216 2604.6,0 2547,0 2501.4,288 2559,288 2581.8,144 2616.6,288 2674.2,288 2754.6,144 
			2731.8,288 2789.4,288 2835,0 2777.4,0 		"/>
		<path class="st1" d="M3020.4,72.4c-15.3-9.1-33.4-13.6-54.5-13.6s-42,4.7-60.3,14s-33.5,22.7-45.6,40.1s-20,37.5-23.6,60.5
			c-3.6,22.7-2,42.7,4.7,60.1s17.8,30.8,33.3,40.3s33.9,14.2,55.2,14.2c26.4,0,49.8-6.9,70.2-20.6c20.3-13.8,35.4-31.3,45.2-52.7
			h-60.5c-11.6,17.9-27.9,26.8-48.7,26.8c-14.4,0-25.9-4.5-34.3-13.6c-8.4-9.1-12.1-21.6-10.9-37.7h162.3c2.1-6.4,3.8-13.6,5-21.6
			c3.4-21.6,1.9-40.8-4.7-57.5S3035.6,81.5,3020.4,72.4L3020.4,72.4z M2896.9,152.6c4.5-14.9,12.2-26.6,23-35.1
			c10.8-8.4,23.2-12.6,37.1-12.6c14.7,0,26.4,4.3,35.2,13s12.1,20.2,10.1,34.7H2896.9L2896.9,152.6z"/>
		<polygon class="st1" points="3327.7,288 3383.8,288 3420.1,58.8 3364,58.8 		"/>
		<path class="st1" d="M3371.9,9l-4.3,27h47.1c5,0,9.6-4,10.4-9l4.3-27h-47.1C3377.4,0,3372.7,4,3371.9,9z"/>
		<path class="st1" d="M3623.6,58.8l-5.6,35.3c-5.9-10.2-14.5-18.6-25.9-25.2c-11.4-6.7-25.3-10-41.9-10c-19,0-36.9,4.7-53.7,14
			s-31.1,22.7-42.8,40.1s-19.3,37.3-22.9,59.7c-3.6,22.7-2.3,42.8,3.9,60.3s16.2,31,30,40.7c13.8,9.6,30.1,14.4,48.8,14.4
			c16.6,0,31.7-3.4,45.5-10.2c13.8-6.8,25.1-15.4,33.9-25.8l-5.7,36.1h56.5L3680,59L3623.6,58.8L3623.6,58.8z M3591.9,208.5
			c-6.9,9.8-15.3,17.2-25.2,22.4s-20.1,7.8-30.5,7.8s-19.3-2.7-27.4-8c-8.1-5.3-14.1-13-18-23s-4.8-21.7-2.7-35.1
			s6.7-24.9,13.7-34.7s15.3-17.2,24.9-22.2c9.6-5.1,19.6-7.6,30.1-7.6s19.8,2.6,28,7.8c8.2,5.2,14.3,12.7,18.1,22.4
			s4.6,21.4,2.5,35.1C3603.3,187,3598.8,198.7,3591.9,208.5L3591.9,208.5z"/>
		<path class="st1" d="M3272.9,93.3c-6.1-10.4-15.2-18.8-27.3-25c-12.1-6.3-25.4-9.4-39.8-9.4c-19,0-36.9,4.7-53.9,14
			s-31.3,22.7-43,40.1s-19.3,37.3-22.9,59.7c-3.6,22.7-2.3,42.8,3.9,60.3s16.2,31.1,30.2,40.7s30.3,14.4,49,14.4
			c16.6,0,31.6-3.3,45.3-10c13.6-6.7,24.8-15.5,33.4-26.4L3242,288h56.9l45.6-288h-56.9L3272.9,93.3L3272.9,93.3z M3247,208.5
			c-6.9,9.8-15.3,17.2-25.2,22.4s-20.1,7.8-30.5,7.8s-19.3-2.7-27.4-8c-8.1-5.3-14.1-13-18-23s-4.8-21.7-2.7-35.1
			s6.7-24.9,13.7-34.7s15.3-17.2,24.9-22.2c9.6-5.1,19.6-7.6,30.1-7.6s19.8,2.6,28,7.8c8.2,5.2,14.3,12.7,18.1,22.4
			s4.6,21.4,2.5,35.1C3258.4,187,3253.9,198.7,3247,208.5L3247,208.5z"/>
	</g>
	<g>
		<polygon class="st1" points="3835.3,684 3891.4,684 3927.6,454.8 3871.6,454.8 		"/>
		<path class="st1" d="M3875.2,432h47.1c5,0,9.6-4,10.4-9l4.3-27h-47.1c-5,0-9.6,4-10.4,9L3875.2,432z"/>
		<path class="st1" d="M2767.8,508.9c11.7-17.4,26-30.7,42.8-40.1s34.7-14,53.7-14c16.6,0,30.5,3.3,41.9,10s20,15.1,25.9,25.2
			l5.6-35.3h56.5L2957.9,684h-56.5l5.7-36.1c-8.9,10.4-20.2,19-33.9,25.8s-28.9,10.2-45.5,10.2c-18.7,0-35-4.8-48.8-14.4
			c-13.8-9.6-23.9-23.2-30-40.7c-6.2-17.5-7.5-37.6-3.9-60.3C2748.5,546.2,2756.1,526.3,2767.8,508.9L2767.8,508.9z M2917.1,534.3
			c-3.8-9.8-9.8-17.2-18.1-22.4c-8.3-5.2-17.6-7.8-28-7.8s-20.4,2.5-30.1,7.6c-9.6,5.1-17.9,12.5-24.9,22.2
			c-7,9.8-11.6,21.3-13.7,34.7c-2.1,13.4-1.2,25,2.7,35.1c3.9,10,9.9,17.7,18,23s17.2,8,27.4,8s20.6-2.6,30.5-7.8
			s18.3-12.7,25.2-22.4c6.9-9.8,11.4-21.4,13.6-35.1S2920.9,544.1,2917.1,534.3L2917.1,534.3z"/>
		<path class="st1" d="M3373.3,508.9c11.7-17.4,26-30.7,42.8-40.1s34.7-14,53.7-14c16.6,0,30.5,3.3,41.9,10s20,15.1,25.9,25.2
			l5.6-35.3h56.5L3563.3,684h-56.5l5.7-36.1c-8.9,10.4-20.2,19-33.9,25.8s-28.9,10.2-45.5,10.2c-18.7,0-35-4.8-48.8-14.4
			c-13.8-9.6-23.9-23.2-30-40.7c-6.2-17.5-7.5-37.6-3.9-60.3C3353.9,546.2,3361.6,526.3,3373.3,508.9L3373.3,508.9z M3522.5,534.3
			c-3.8-9.8-9.8-17.2-18.1-22.4c-8.3-5.2-17.6-7.8-28-7.8s-20.4,2.5-30.1,7.6c-9.6,5.1-17.9,12.5-24.9,22.2
			c-7,9.8-11.6,21.3-13.7,34.7c-2.1,13.4-1.2,25,2.7,35.1c3.9,10,9.9,17.7,18,23s17.2,8,27.4,8s20.6-2.6,30.5-7.8
			s18.3-12.7,25.2-22.4c6.9-9.8,11.4-21.4,13.6-35.1C3527.1,555.8,3526.3,544.1,3522.5,534.3L3522.5,534.3z"/>
		<path class="st1" d="M4111.7,508.9c11.7-17.4,26-30.7,42.8-40.1s34.7-14,53.7-14c16.6,0,30.5,3.3,41.9,10s20,15.1,25.9,25.2
			l5.6-35.3h56.5L4301.7,684h-56.5l5.7-36.1c-8.9,10.4-20.2,19-33.9,25.8s-29,10.3-45.5,10.3c-18.7,0-35-4.8-48.8-14.4
			c-13.8-9.6-23.9-23.2-30-40.7c-6.2-17.5-7.5-37.6-3.9-60.3C4092.3,546.2,4100,526.3,4111.7,508.9L4111.7,508.9z M4260.9,534.3
			c-3.8-9.8-9.8-17.2-18.1-22.4c-8.3-5.2-17.6-7.8-28-7.8s-20.4,2.5-30,7.6c-9.6,5.1-17.9,12.5-25,22.2c-7,9.8-11.6,21.3-13.7,34.7
			s-1.2,25,2.7,35.1c3.9,10,9.9,17.7,18,23s17.2,8,27.4,8s20.6-2.6,30.5-7.8s18.3-12.7,25.2-22.4c6.9-9.8,11.4-21.4,13.6-35.1
			S4264.7,544.1,4260.9,534.3L4260.9,534.3z"/>
		<path class="st1" d="M3357.6,454.8L3254.3,684h-58.5l-16.3-158.7L3113,684h-58.9L3023,454.8h57.1l12.8,172.7l70.7-172.7h57.5
			l15.3,172.3l67.4-172.3H3357.6L3357.6,454.8z"/>
		<path class="st1" d="M3633.8,509.1c12.1-17.2,27.1-30.6,45.2-40.1c18.1-9.5,37.8-14.2,59.1-14.2c27.5,0,49.2,6.9,65.1,20.6
			c15.9,13.8,24.9,33,27.1,57.9h-60.5c-1.7-9.6-5.9-17.2-12.6-22.6c-6.8-5.5-15.7-8.2-26.9-8.2c-16,0-29.6,5.8-40.8,17.4
			c-11.2,11.6-18.5,28.1-21.9,49.5c-3.3,21.1-1.3,37.5,6.2,49.1s19.3,17.4,35.3,17.4c22.7,0,39.1-10.2,49.3-30.5h60.5
			c-10,24-25.1,43.1-45.5,57.3s-44.2,21.2-71.5,21.2c-21.4,0-39.6-4.7-54.6-14.2c-15.1-9.5-25.9-22.8-32.5-40.1
			c-6.6-17.2-8.1-37.3-4.5-60.3C3613.9,546.5,3621.7,526.3,3633.8,509.1L3633.8,509.1z"/>
		<path class="st1" d="M4081.2,504.5l7.3-46.1h-49.7l9.9-62.4h-56.5l-9.9,62.4h-26.5l-7.3,46.1h26.5l-17.5,110.6
			c-7.3,45.9,12.7,68.9,60,68.9h35.3l7.5-47.3h-26c-8.6,0-14.4-1.7-17.5-5s-4-8.7-2.8-16.2l17.6-111H4081.2L4081.2,504.5z"/>
		<polygon class="st1" points="2743.5,396 2697.9,684 2640.3,684 2528.9,478.3 2496.3,684 2438.7,684 2484.3,396 2541.9,396 
			2653.3,601.7 2685.9,396 		"/>
	</g>
	<g>
		<path class="st1" d="M4049,904.9c11.7-17.4,26-30.7,42.8-40.1c16.8-9.3,34.7-14,53.7-14c16.6,0,30.5,3.3,41.9,10
			s20,15.1,25.9,25.2l5.6-35.3h56.5L4239,1080h-56.5l5.7-36.1c-8.9,10.4-20.2,19-33.9,25.8c-13.8,6.8-28.9,10.2-45.5,10.2
			c-18.7,0-35-4.8-48.8-14.4s-23.9-23.2-30-40.7c-6.2-17.5-7.5-37.6-3.9-60.3C4029.6,942.2,4037.3,922.3,4049,904.9L4049,904.9z
			 M4198.2,930.3c-3.8-9.8-9.8-17.2-18.1-22.4c-8.3-5.2-17.6-7.8-28-7.8s-20.4,2.5-30,7.6s-17.9,12.5-25,22.2
			c-7,9.8-11.6,21.3-13.7,34.7c-2.1,13.4-1.2,25,2.7,35.1c3.9,10,9.9,17.7,18,23c8.1,5.4,17.2,8,27.4,8s20.6-2.6,30.5-7.8
			s18.3-12.7,25.2-22.4c6.9-9.8,11.4-21.4,13.6-35.1S4202,940.1,4198.2,930.3L4198.2,930.3z"/>
		<path class="st1" d="M2743.9,904.9c11.7-17.4,26-30.7,43-40.1c17-9.3,34.9-14,53.9-14c14.4,0,27.7,3.1,39.8,9.4
			c12.1,6.3,21.2,14.6,27.3,25l14.8-93.3h56.9l-45.6,288h-57l5.8-36.5c-8.7,11-19.8,19.8-33.4,26.4c-13.6,6.7-28.7,10-45.3,10
			c-18.7,0-35-4.8-49-14.4s-24.1-23.2-30.2-40.7c-6.2-17.5-7.5-37.6-3.9-60.3C2724.6,942.2,2732.2,922.3,2743.9,904.9L2743.9,904.9z
			 M2893.1,930.3c-3.8-9.8-9.8-17.2-18.1-22.4s-17.6-7.8-28-7.8s-20.4,2.5-30.1,7.6c-9.6,5.1-17.9,12.5-24.9,22.2
			c-7,9.8-11.6,21.3-13.7,34.7c-2.1,13.4-1.2,25,2.7,35.1c3.9,10,9.9,17.7,18,23c8.1,5.4,17.2,8,27.4,8s20.6-2.6,30.5-7.8
			s18.3-12.7,25.2-22.4c6.9-9.8,11.4-21.4,13.6-35.1C2897.7,951.8,2896.9,940.1,2893.1,930.3L2893.1,930.3z"/>
		<path class="st1" d="M3019.9,1065.8c-15.6-9.5-26.9-22.9-33.9-40.3s-8.7-37.4-5.1-60.1c3.6-22.7,11.8-42.7,24.5-60.1
			c12.8-17.4,28.6-30.8,47.4-40.3c18.9-9.5,39-14.2,60.3-14.2s40,4.8,55.9,14.2c15.9,9.5,27.4,22.9,34.7,40.3
			c7.3,17.4,9.1,37.4,5.5,60.1c-3.6,22.7-11.9,42.7-24.9,60.1c-13,17.4-29.1,30.8-48.1,40.3s-39.3,14.2-60.9,14.2
			S3035.5,1075.3,3019.9,1065.8L3019.9,1065.8z M3112.9,1023.7c9.7-4.9,18.1-12.3,24.9-22.2c6.9-9.9,11.5-21.9,13.7-36.1
			c3.3-21.1,0.4-37.3-8.9-48.7c-9.3-11.3-21.9-17-38-17s-30.4,5.7-43,17s-20.6,27.6-23.9,48.7c-3.3,21.1-0.6,37.3,8.1,48.7
			c8.8,11.4,21.1,17,37.2,17C3093.2,1031.1,3103.2,1028.7,3112.9,1023.7L3112.9,1023.7z"/>
		<path class="st1" d="M3694.9,982.2h-162.3c-1.2,16,2.4,28.6,10.9,37.7c8.4,9.1,19.9,13.6,34.3,13.6c20.8,0,37.1-8.9,48.7-26.8
			h60.5c-9.8,21.4-24.9,38.9-45.2,52.7c-20.4,13.8-43.7,20.6-70.2,20.6c-21.4,0-39.8-4.7-55.2-14.2s-26.6-22.9-33.3-40.3
			s-8.3-37.4-4.7-60.1c3.6-23,11.5-43.1,23.6-60.5s27.3-30.7,45.6-40.1c18.3-9.3,38.4-14,60.3-14s39.3,4.5,54.5,13.6
			s26.2,22,32.7,38.7c6.6,16.7,8.1,35.9,4.7,57.5C3698.6,968.6,3697,975.8,3694.9,982.2L3694.9,982.2z M3644.4,944.6
			c2-14.4-1.4-26-10.1-34.7c-8.8-8.7-20.5-13-35.2-13c-13.9,0-26.2,4.2-37.1,12.6s-18.5,20.1-23,35.1L3644.4,944.6L3644.4,944.6z"/>
		<path class="st1" d="M3759.4,1070.2c-13.4-6.5-23.4-15.4-30-26.6s-9.3-23.6-7.9-37.3h56.5c-0.3,8.5,2.8,15.6,9.3,21.2
			c6.5,5.6,15.2,8.4,26.1,8.4s19.4-2.1,26.1-6.4s10.6-9.8,11.6-16.4c1.1-7.2-1.7-12.6-8.4-16.2c-6.8-3.6-17.8-7.5-33.2-11.8
			c-15.9-4-28.8-8.1-38.7-12.4c-9.9-4.3-17.9-10.8-24.1-19.6s-8.1-20.7-5.8-35.7c1.9-12.3,7.3-23.5,15.9-33.7
			c8.7-10.2,20.1-18.2,34.2-24c14.1-5.9,30.2-8.8,48.1-8.8c26.4,0,46.5,6.6,60.2,19.8s19.5,31,17.6,53.5h-53.7
			c0.6-8.8-2-15.8-7.7-21s-14.1-7.8-25-7.8c-10.1,0-18.3,1.9-24.3,5.6s-9.6,9-10.7,15.6c-1.2,7.5,1.7,13.2,8.5,17
			c6.9,3.9,17.9,7.8,33,11.8c15.4,4,28,8.2,37.7,12.4c9.7,4.3,17.7,10.9,23.9,19.8c6.2,9,8.3,20.8,6.2,35.5
			c-2,12.8-7.4,24.3-16.1,34.5c-8.7,10.2-20.1,18.1-34.2,23.8s-30,8.6-47.6,8.6S3772.9,1076.7,3759.4,1070.2L3759.4,1070.2z"/>
		<polygon class="st1" points="2433.6,1080 2376,1080 2421.6,792 2479.2,792 		"/>
		<polygon class="st1" points="3922.9,1080 3979,1080 4015.3,850.8 3959.2,850.8 		"/>
		<path class="st1" d="M3962.8,828h47.1c5,0,9.6-4,10.4-9l4.3-27h-47.1c-5,0-9.6,4-10.4,9L3962.8,828z"/>
		<path class="st1" d="M2681.8,876.3c13.6,16.7,18.1,40,13.4,69.9L2674,1080h-56.1l20-126.2c2.8-17.6,0.5-31.2-6.8-40.7
			s-18.6-14.2-33.8-14.2s-28.5,4.7-38.9,14.2s-17.1,23-19.9,40.7l-20,126.2h-56.1l36.3-229.2h56.1l-4.9,31.2
			c9-9.6,19.8-17.2,32.2-22.6c12.5-5.5,25.7-8.2,39.6-8.2C2648.1,851.2,2668.1,859.6,2681.8,876.3L2681.8,876.3z"/>
		<path class="st1" d="M3439.3,876.3c13.6,16.7,18.1,40,13.4,69.9l-21.2,133.8h-56.1l20-126.2c2.8-17.6,0.5-31.2-6.8-40.7
			s-18.6-14.2-33.8-14.2s-28.5,4.7-38.9,14.2s-17.1,23-19.9,40.7l-20,126.2h-56.1l36.3-229.2h56.1l-4.9,31.2
			c9-9.6,19.8-17.2,32.2-22.6c12.5-5.5,25.7-8.2,39.6-8.2C3405.6,851.2,3425.6,859.6,3439.3,876.3L3439.3,876.3z"/>
	</g>
</g>
</svg>
