<?xml version="1.0" encoding="UTF-8"?>
<svg id="Alternative_Logo" data-name="Alternative Logo" xmlns="http://www.w3.org/2000/svg" viewBox="0 0 2476.05 1314">
  <defs>
    <style>
      .cls-1 {
        fill: #036;
      }

      .cls-1, .cls-2 {
        stroke-width: 0px;
      }

      .cls-2 {
        fill: #f63;
      }
    </style>
  </defs>
  <g id="Color">
    <g>
      <polygon class="cls-2" points="2260.05 0 2089.05 1080 2305.05 1080 2476.05 0 2260.05 0"/>
      <polygon class="cls-1" points="619.8 810 424.05 0 208.05 0 37.05 1080 253.05 1080 338.55 540 469.05 1080 685.05 1080 986.55 540 901.05 1080 1117.05 1080 1288.05 0 1072.05 0 619.8 810"/>
      <polygon class="cls-1" points="1936.05 0 1813.91 771.44 1396.05 0 1347.18 308.58 1765.05 1080 1981.05 1080 2152.05 0 1936.05 0"/>
    </g>
    <g>
      <polygon class="cls-1" points="67.99 1282.5 45.15 1188 19.95 1188 0 1314 25.2 1314 35.18 1251 50.4 1314 75.6 1314 110.78 1251 100.8 1314 126 1314 145.95 1188 120.75 1188 67.99 1282.5"/>
      <path class="cls-1" d="m227.06,1219.7c-6.67-3.97-14.63-5.96-23.86-5.96s-18.38,2.05-26.39,6.14c-8.01,4.09-14.66,9.93-19.95,17.53-5.3,7.6-8.74,16.42-10.33,26.47-1.57,9.93-.89,18.7,2.06,26.29,2.94,7.6,7.8,13.47,14.56,17.62,6.76,4.15,14.82,6.22,24.17,6.22,11.57,0,21.8-3.01,30.7-9.03,8.9-6.02,15.49-13.7,19.78-23.05h-26.47c-5.1,7.83-12.2,11.74-21.32,11.74-6.31,0-11.31-1.99-15.01-5.96-3.7-3.97-5.28-9.47-4.75-16.48h70.99c.91-2.8,1.65-5.96,2.2-9.47,1.5-9.46.81-17.85-2.06-25.15-2.88-7.3-7.65-12.94-14.33-16.91Zm-54.02,35.06c1.97-6.54,5.32-11.66,10.05-15.34,4.73-3.68,10.13-5.52,16.21-5.52,6.43,0,11.56,1.9,15.4,5.7,3.84,3.8,5.32,8.85,4.44,15.16h-46.1Z"/>
      <polygon class="cls-1" points="361.52 1314 386.06 1314 401.94 1213.74 377.4 1213.74 361.52 1314"/>
      <path class="cls-1" d="m380.85,1191.94l-1.87,11.81h20.6c2.17,0,4.22-1.76,4.56-3.94l1.87-11.81h-20.6c-2.17,0-4.22,1.76-4.56,3.94Z"/>
      <path class="cls-1" d="m490.96,1213.74l-2.44,15.43c-2.57-4.44-6.34-8.12-11.31-11.04-4.97-2.92-11.08-4.38-18.33-4.38-8.3,0-16.13,2.05-23.5,6.14-7.37,4.09-13.61,9.93-18.73,17.53-5.12,7.6-8.45,16.3-10.01,26.12-1.57,9.93-1.01,18.73,1.7,26.38,2.7,7.66,7.08,13.58,13.13,17.79,6.05,4.21,13.17,6.31,21.35,6.31,7.25,0,13.88-1.49,19.9-4.47,6.02-2.98,10.97-6.75,14.85-11.31l-2.5,15.78h24.72l15.88-100.26h-24.72Zm-13.87,65.47c-3.02,4.27-6.69,7.54-11.02,9.82-4.34,2.28-8.78,3.42-13.34,3.42s-8.43-1.17-11.98-3.51c-3.55-2.34-6.17-5.7-7.87-10.08-1.7-4.38-2.09-9.49-1.17-15.34.93-5.84,2.92-10.9,6-15.16,3.07-4.26,6.71-7.51,10.92-9.73,4.21-2.22,8.59-3.33,13.15-3.33s8.64,1.14,12.26,3.42c3.61,2.28,6.25,5.55,7.91,9.82,1.66,4.27,2.02,9.38,1.08,15.34-.94,5.96-2.92,11.07-5.93,15.34Z"/>
      <path class="cls-1" d="m337.52,1228.81c-2.67-4.56-6.65-8.21-11.94-10.96-5.29-2.74-11.09-4.12-17.4-4.12-8.3,0-16.16,2.05-23.58,6.14-7.43,4.09-13.7,9.93-18.81,17.53-5.12,7.6-8.45,16.3-10.01,26.12s-1.01,18.73,1.7,26.38c2.7,7.66,7.11,13.58,13.22,17.79,6.11,4.21,13.26,6.31,21.44,6.31,7.24,0,13.84-1.46,19.8-4.38,5.95-2.92,10.83-6.78,14.63-11.57l-2.53,15.95h24.89l19.95-126h-24.89l-6.46,40.81Zm-11.31,50.4c-3.02,4.27-6.69,7.54-11.02,9.82-4.34,2.28-8.78,3.42-13.34,3.42s-8.43-1.17-11.98-3.51c-3.55-2.34-6.17-5.7-7.87-10.08-1.7-4.38-2.09-9.49-1.17-15.34.93-5.84,2.92-10.9,6-15.16,3.07-4.26,6.71-7.51,10.92-9.73,4.21-2.22,8.59-3.33,13.15-3.33s8.64,1.14,12.26,3.42c3.61,2.28,6.25,5.55,7.91,9.82,1.66,4.27,2.02,9.38,1.08,15.34-.94,5.96-2.92,11.07-5.93,15.34Z"/>
    </g>
    <g>
      <polygon class="cls-1" points="1179.84 1314 1204.38 1314 1220.25 1213.74 1195.71 1213.74 1179.84 1314"/>
      <path class="cls-1" d="m1197.29,1203.75h20.6c2.17,0,4.22-1.76,4.56-3.94l1.87-11.81h-20.6c-2.17,0-4.22,1.76-4.56,3.94l-1.87,11.81Z"/>
      <path class="cls-1" d="m712.84,1237.4c5.12-7.59,11.36-13.44,18.73-17.53,7.37-4.09,15.2-6.14,23.5-6.14,7.24,0,13.35,1.46,18.33,4.38,4.97,2.92,8.74,6.6,11.31,11.04l2.44-15.43h24.72l-15.88,100.26h-24.72l2.5-15.78c-3.88,4.56-8.83,8.33-14.85,11.31-6.02,2.98-12.66,4.47-19.9,4.47-8.18,0-15.3-2.1-21.35-6.31-6.06-4.21-10.43-10.14-13.13-17.79-2.7-7.65-3.27-16.45-1.7-26.38,1.55-9.82,4.89-18.52,10.01-26.12Zm65.28,11.13c-1.66-4.26-4.3-7.54-7.91-9.82-3.61-2.28-7.7-3.42-12.26-3.42s-8.94,1.11-13.15,3.33c-4.21,2.22-7.85,5.46-10.92,9.73-3.07,4.27-5.07,9.32-6,15.16-.93,5.85-.54,10.96,1.17,15.34,1.7,4.38,4.32,7.74,7.87,10.08,3.54,2.34,7.54,3.51,11.98,3.51s9-1.14,13.34-3.42c4.33-2.28,8-5.55,11.02-9.82,3.01-4.26,4.99-9.38,5.93-15.34.94-5.96.59-11.07-1.08-15.34Z"/>
      <path class="cls-1" d="m977.72,1237.4c5.12-7.59,11.36-13.44,18.73-17.53,7.37-4.09,15.2-6.14,23.5-6.14,7.24,0,13.35,1.46,18.33,4.38,4.97,2.92,8.74,6.6,11.31,11.04l2.44-15.43h24.72l-15.88,100.26h-24.72l2.5-15.78c-3.88,4.56-8.83,8.33-14.85,11.31-6.02,2.98-12.66,4.47-19.9,4.47-8.18,0-15.3-2.1-21.35-6.31-6.06-4.21-10.43-10.14-13.13-17.79-2.7-7.65-3.27-16.45-1.7-26.38,1.55-9.82,4.89-18.52,10.01-26.12Zm65.28,11.13c-1.66-4.26-4.3-7.54-7.91-9.82-3.61-2.28-7.7-3.42-12.26-3.42s-8.94,1.11-13.15,3.33c-4.21,2.22-7.85,5.46-10.92,9.73-3.07,4.27-5.07,9.32-6,15.16-.93,5.85-.54,10.96,1.17,15.34,1.7,4.38,4.32,7.74,7.87,10.08,3.54,2.34,7.54,3.51,11.98,3.51s9-1.14,13.34-3.42c4.33-2.28,8-5.55,11.02-9.82,3.01-4.26,4.99-9.38,5.93-15.34.94-5.96.59-11.07-1.08-15.34Z"/>
      <path class="cls-1" d="m1300.76,1237.4c5.12-7.59,11.36-13.44,18.73-17.53,7.37-4.09,15.2-6.14,23.5-6.14,7.24,0,13.35,1.46,18.33,4.38,4.97,2.92,8.74,6.6,11.31,11.04l2.44-15.43h24.72l-15.88,100.26h-24.72l2.5-15.78c-3.88,4.56-8.83,8.33-14.85,11.31-6.02,2.98-12.66,4.47-19.9,4.47-8.18,0-15.3-2.1-21.35-6.31-6.06-4.21-10.43-10.14-13.13-17.79-2.7-7.65-3.27-16.45-1.7-26.38,1.55-9.82,4.89-18.52,10.01-26.12Zm65.28,11.13c-1.66-4.26-4.3-7.54-7.91-9.82-3.61-2.28-7.7-3.42-12.26-3.42s-8.94,1.11-13.15,3.33c-4.21,2.22-7.85,5.46-10.92,9.73-3.07,4.27-5.07,9.32-6,15.16-.93,5.85-.54,10.96,1.17,15.34,1.7,4.38,4.32,7.74,7.87,10.08,3.54,2.34,7.54,3.51,11.98,3.51s9-1.14,13.34-3.42c4.33-2.28,8-5.55,11.02-9.82,3.01-4.26,4.99-9.38,5.93-15.34.94-5.96.59-11.07-1.08-15.34Z"/>
      <path class="cls-1" d="m970.87,1213.74l-45.19,100.26h-25.6l-7.12-69.41-29.11,69.41h-25.77l-13.63-100.26h24.99l5.58,75.55,30.94-75.55h25.16l6.68,75.37,29.48-75.37h23.58Z"/>
      <path class="cls-1" d="m1091.71,1237.49c5.28-7.54,11.87-13.38,19.78-17.53,7.9-4.15,16.53-6.22,25.88-6.22,12.03,0,21.52,3.01,28.46,9.03,6.94,6.02,10.88,14.46,11.85,25.33h-26.47c-.74-4.21-2.58-7.51-5.53-9.9-2.95-2.39-6.88-3.59-11.79-3.59-7.01,0-12.97,2.54-17.86,7.62-4.9,5.08-8.08,12.3-9.56,21.65-1.46,9.23-.55,16.39,2.74,21.47,3.28,5.08,8.43,7.62,15.44,7.62,9.93,0,17.12-4.44,21.57-13.32h26.47c-4.36,10.52-11,18.87-19.92,25.07-8.93,6.2-19.35,9.29-31.27,9.29-9.35,0-17.32-2.07-23.9-6.22-6.59-4.15-11.33-9.99-14.23-17.53-2.9-7.54-3.55-16.33-1.96-26.38,1.59-10.05,5.03-18.84,10.31-26.38Z"/>
      <path class="cls-1" d="m1287.45,1235.46l3.19-20.16h-21.74l4.32-27.31h-24.71l-4.32,27.31h-11.58l-3.19,20.16h11.58l-7.66,48.4c-3.18,20.1,5.56,30.14,26.25,30.14h15.43l3.27-20.68h-11.39c-3.75,0-6.29-.73-7.64-2.2-1.33-1.45-1.75-3.82-1.23-7.09l7.69-48.57h21.74Z"/>
      <polygon class="cls-1" points="702.19 1188 682.24 1314 657.04 1314 608.29 1224 594.04 1314 568.84 1314 588.79 1188 613.99 1188 662.74 1278 676.99 1188 702.19 1188"/>
    </g>
    <g>
      <path class="cls-1" d="m2184.86,1237.4c5.12-7.59,11.36-13.44,18.73-17.53,7.37-4.09,15.2-6.14,23.5-6.14,7.24,0,13.35,1.46,18.33,4.38,4.97,2.92,8.74,6.6,11.31,11.04l2.44-15.43h24.72l-15.88,100.26h-24.72l2.5-15.78c-3.88,4.56-8.83,8.33-14.85,11.31-6.02,2.98-12.66,4.47-19.9,4.47-8.18,0-15.3-2.1-21.35-6.31-6.06-4.21-10.43-10.14-13.13-17.79-2.7-7.65-3.27-16.45-1.7-26.38,1.55-9.82,4.89-18.52,10.01-26.12Zm65.28,11.13c-1.66-4.26-4.3-7.54-7.91-9.82-3.61-2.28-7.7-3.42-12.26-3.42s-8.94,1.11-13.15,3.33c-4.21,2.22-7.85,5.46-10.92,9.73-3.07,4.27-5.07,9.32-6,15.16-.93,5.85-.54,10.96,1.17,15.34,1.7,4.38,4.32,7.74,7.87,10.08,3.54,2.34,7.54,3.51,11.98,3.51s9-1.14,13.34-3.42c4.33-2.28,8-5.55,11.02-9.82,3.01-4.26,4.99-9.38,5.93-15.34.94-5.96.59-11.07-1.08-15.34Z"/>
      <path class="cls-1" d="m1613.89,1237.4c5.12-7.59,11.39-13.44,18.81-17.53,7.42-4.09,15.28-6.14,23.58-6.14,6.31,0,12.11,1.38,17.4,4.12,5.29,2.75,9.27,6.4,11.94,10.96l6.46-40.81h24.89l-19.95,126h-24.89l2.53-15.95c-3.8,4.79-8.68,8.65-14.63,11.57-5.96,2.92-12.56,4.38-19.8,4.38-8.18,0-15.33-2.1-21.44-6.31-6.11-4.21-10.52-10.14-13.22-17.79-2.7-7.65-3.27-16.45-1.7-26.38,1.55-9.82,4.89-18.52,10.01-26.12Zm65.28,11.13c-1.66-4.26-4.3-7.54-7.91-9.82-3.61-2.28-7.7-3.42-12.26-3.42s-8.94,1.11-13.15,3.33c-4.21,2.22-7.85,5.46-10.92,9.73-3.07,4.27-5.07,9.32-6,15.16-.93,5.85-.54,10.96,1.17,15.34,1.7,4.38,4.32,7.74,7.87,10.08,3.54,2.34,7.54,3.51,11.98,3.51s9-1.14,13.34-3.42c4.33-2.28,8-5.55,11.02-9.82,3.01-4.26,4.99-9.38,5.93-15.34.94-5.96.59-11.07-1.08-15.34Z"/>
      <path class="cls-1" d="m1734.63,1307.78c-6.82-4.15-11.77-10.02-14.83-17.62-3.07-7.59-3.81-16.36-2.23-26.29,1.57-9.93,5.15-18.7,10.74-26.29,5.58-7.59,12.5-13.47,20.76-17.62,8.25-4.15,17.05-6.22,26.4-6.22s17.49,2.08,24.43,6.22c6.94,4.15,12,10.02,15.18,17.62,3.18,7.6,3.98,16.36,2.41,26.29-1.57,9.93-5.21,18.7-10.91,26.29-5.7,7.6-12.71,13.47-21.02,17.62-8.31,4.15-17.2,6.22-26.66,6.22s-17.44-2.07-24.26-6.22Zm40.69-18.4c4.26-2.16,7.9-5.4,10.92-9.73,3.02-4.32,5.02-9.58,6-15.78,1.46-9.23.16-16.33-3.9-21.3-4.06-4.97-9.6-7.45-16.61-7.45s-13.28,2.48-18.8,7.45c-5.52,4.97-9.01,12.07-10.47,21.3-1.46,9.23-.28,16.33,3.55,21.3,3.83,4.97,9.25,7.45,16.26,7.45,4.44,0,8.79-1.08,13.05-3.24Z"/>
      <path class="cls-1" d="m2029.95,1271.23h-70.99c-.53,7.01,1.06,12.51,4.75,16.48,3.69,3.97,8.7,5.96,15.01,5.96,9.12,0,16.22-3.91,21.32-11.74h26.47c-4.29,9.35-10.88,17.03-19.78,23.05-8.9,6.02-19.13,9.03-30.7,9.03-9.35,0-17.41-2.07-24.17-6.22-6.76-4.15-11.62-10.02-14.56-17.62-2.95-7.59-3.63-16.36-2.06-26.29,1.59-10.05,5.03-18.87,10.33-26.47,5.29-7.59,11.94-13.44,19.95-17.53,8.01-4.09,16.81-6.14,26.39-6.14s17.19,1.99,23.86,5.96c6.67,3.97,11.45,9.61,14.33,16.91,2.87,7.3,3.56,15.69,2.06,25.15-.56,3.51-1.29,6.66-2.2,9.47Zm-22.1-16.48c.88-6.31-.6-11.36-4.44-15.16-3.84-3.8-8.97-5.7-15.4-5.7-6.08,0-11.48,1.84-16.21,5.52-4.73,3.68-8.08,8.79-10.05,15.34h46.1Z"/>
      <path class="cls-1" d="m2058.2,1309.71c-5.86-2.86-10.24-6.75-13.14-11.66-2.9-4.91-4.06-10.34-3.47-16.3h24.72c-.13,3.74,1.22,6.84,4.05,9.29,2.83,2.45,6.63,3.68,11.43,3.68s8.47-.93,11.4-2.8c2.93-1.87,4.62-4.27,5.08-7.19.5-3.15-.74-5.52-3.7-7.1-2.96-1.58-7.8-3.3-14.52-5.17-6.97-1.75-12.61-3.56-16.93-5.43-4.32-1.87-7.84-4.73-10.56-8.59-2.72-3.86-3.56-9.05-2.52-15.6.85-5.37,3.18-10.28,6.98-14.72,3.8-4.44,8.79-7.95,14.99-10.52,6.19-2.57,13.2-3.86,21.03-3.86,11.57,0,20.34,2.89,26.32,8.68,5.98,5.78,8.54,13.58,7.69,23.4h-23.49c.26-3.86-.86-6.92-3.36-9.2-2.5-2.28-6.15-3.42-10.94-3.42-4.44,0-7.99.82-10.64,2.45-2.66,1.64-4.21,3.92-4.67,6.84-.52,3.27.72,5.76,3.73,7.45,3,1.7,7.81,3.42,14.43,5.17,6.73,1.75,12.23,3.57,16.49,5.43,4.26,1.87,7.75,4.76,10.46,8.68,2.71,3.92,3.62,9.09,2.71,15.51-.89,5.61-3.23,10.63-7.03,15.07-3.8,4.44-8.79,7.92-14.97,10.43-6.18,2.51-13.13,3.77-20.84,3.77s-14.85-1.43-20.71-4.29Z"/>
      <polygon class="cls-1" points="1478.14 1314 1452.94 1314 1472.89 1188 1498.09 1188 1478.14 1314"/>
      <polygon class="cls-1" points="2129.71 1314 2154.25 1314 2170.13 1213.74 2145.59 1213.74 2129.71 1314"/>
      <path class="cls-1" d="m2147.17,1203.75h20.6c2.17,0,4.22-1.76,4.56-3.94l1.87-11.81h-20.6c-2.17,0-4.22,1.76-4.56,3.94l-1.87,11.81Z"/>
      <path class="cls-1" d="m1586.71,1224.87c5.97,7.3,7.92,17.5,5.85,30.59l-9.27,58.55h-24.54l8.74-55.22c1.22-7.71.23-13.64-2.97-17.79-3.2-4.15-8.13-6.22-14.79-6.22s-12.45,2.08-17.02,6.22c-4.57,4.15-7.47,10.08-8.69,17.79l-8.74,55.22h-24.54l15.88-100.26h24.54l-2.16,13.67c3.94-4.21,8.64-7.51,14.1-9.9,5.46-2.39,11.23-3.59,17.31-3.59,11.57,0,20.34,3.65,26.31,10.96Z"/>
      <path class="cls-1" d="m1918.12,1224.87c5.97,7.3,7.92,17.5,5.85,30.59l-9.27,58.55h-24.54l8.74-55.22c1.22-7.71.23-13.64-2.97-17.79-3.2-4.15-8.13-6.22-14.79-6.22s-12.45,2.08-17.02,6.22c-4.57,4.15-7.47,10.08-8.69,17.79l-8.74,55.22h-24.54l15.88-100.26h24.54l-2.16,13.67c3.94-4.21,8.64-7.51,14.1-9.9,5.46-2.39,11.23-3.59,17.31-3.59,11.57,0,20.34,3.65,26.31,10.96Z"/>
    </g>
  </g>
</svg>