<?xml version="1.0" encoding="UTF-8"?>
<svg id="Main_Logo" data-name="Main Logo" xmlns="http://www.w3.org/2000/svg" viewBox="0 0 4337.99 1080">
  <defs>
    <style>
      .cls-1 {
        fill: #036;
      }

      .cls-1, .cls-2 {
        stroke-width: 0px;
      }

      .cls-2 {
        fill: #f63;
      }
    </style>
  </defs>
  <g id="Color">
    <polygon class="cls-2" points="2223 0 2052 1080 2268 1080 2439 0 2223 0"/>
    <polygon class="cls-1" points="582.75 810 387 0 171 0 0 1080 216 1080 301.5 540 432 1080 648 1080 949.5 540 864 1080 1080 1080 1251 0 1035 0 582.75 810"/>
    <polygon class="cls-1" points="1899 0 1776.86 771.44 1359 0 1310.13 308.58 1728 1080 1944 1080 2115 0 1899 0"/>
    <g>
      <polygon class="cls-1" points="2656.8 216 2604.6 0 2547 0 2501.4 288 2559 288 2581.8 144 2616.6 288 2674.2 288 2754.6 144 2731.8 288 2789.4 288 2835 0 2777.4 0 2656.8 216"/>
      <path class="cls-1" d="m3020.4,72.45c-15.26-9.08-33.44-13.62-54.54-13.62s-42.01,4.68-60.31,14.02c-18.31,9.35-33.52,22.71-45.61,40.07-12.11,17.37-19.97,37.53-23.61,60.5-3.59,22.7-2.03,42.74,4.71,60.1,6.73,17.37,17.83,30.79,33.29,40.26,15.46,9.49,33.87,14.22,55.24,14.22,26.44,0,49.83-6.87,70.18-20.63,20.34-13.75,35.41-31.31,45.2-52.68h-60.5c-11.65,17.9-27.89,26.84-48.72,26.84-14.42,0-25.86-4.54-34.3-13.62-8.45-9.08-12.07-21.64-10.87-37.66h162.27c2.08-6.41,3.76-13.62,5.03-21.64,3.43-21.63,1.85-40.8-4.72-57.49-6.57-16.69-17.49-29.58-32.74-38.66Zm-123.47,80.13c4.5-14.95,12.16-26.64,22.98-35.06,10.81-8.41,23.16-12.62,37.05-12.62,14.69,0,26.42,4.34,35.2,13.02,8.78,8.68,12.15,20.23,10.14,34.66h-105.38Z"/>
      <polygon class="cls-1" points="3327.74 288 3383.83 288 3420.12 58.82 3364.02 58.82 3327.74 288"/>
      <path class="cls-1" d="m3371.91,9l-4.28,27h47.09c4.97,0,9.64-4.03,10.43-9l4.28-27h-47.09c-4.97,0-9.64,4.03-10.43,9Z"/>
      <path class="cls-1" d="m3623.6,58.82l-5.58,35.26c-5.87-10.15-14.49-18.56-25.85-25.24-11.37-6.67-25.33-10.02-41.89-10.02-18.97,0-36.87,4.68-53.7,14.02-16.84,9.35-31.11,22.71-42.8,40.07-11.7,17.37-19.32,37.26-22.87,59.7-3.59,22.7-2.31,42.81,3.88,60.3,6.17,17.5,16.18,31.05,30.02,40.67,13.83,9.62,30.1,14.42,48.8,14.42,16.56,0,31.73-3.4,45.49-10.22,13.76-6.81,25.08-15.42,33.94-25.84l-5.71,36.06h56.49l36.29-229.18h-56.49Zm-31.7,149.65c-6.89,9.75-15.29,17.23-25.19,22.44-9.91,5.21-20.07,7.81-30.49,7.81s-19.28-2.67-27.38-8.01c-8.1-5.34-14.11-13.02-17.99-23.04-3.89-10.02-4.78-21.7-2.67-35.06,2.11-13.35,6.68-24.91,13.7-34.66,7.01-9.75,15.33-17.16,24.95-22.24,9.62-5.07,19.63-7.61,30.05-7.61s19.75,2.61,28.02,7.81c8.25,5.21,14.28,12.69,18.08,22.44,3.8,9.75,4.62,21.44,2.46,35.06-2.16,13.62-6.68,25.31-13.56,35.06Z"/>
      <path class="cls-1" d="m3272.88,93.28c-6.1-10.41-15.2-18.76-27.29-25.04-12.1-6.27-25.35-9.41-39.78-9.41-18.97,0-36.94,4.68-53.91,14.02-16.97,9.35-31.31,22.71-43,40.07-11.7,17.37-19.32,37.26-22.87,59.7-3.59,22.7-2.31,42.81,3.88,60.3,6.17,17.5,16.25,31.05,30.22,40.67,13.97,9.62,30.3,14.42,49,14.42,16.56,0,31.65-3.34,45.26-10.02,13.6-6.67,24.75-15.49,33.43-26.44l-5.77,36.46h56.89L3344.54,0h-56.89l-14.77,93.28Zm-25.85,115.19c-6.89,9.75-15.29,17.23-25.19,22.44-9.91,5.21-20.07,7.81-30.49,7.81s-19.28-2.67-27.38-8.01c-8.1-5.34-14.11-13.02-17.99-23.04-3.89-10.02-4.78-21.7-2.67-35.06,2.11-13.35,6.68-24.91,13.7-34.66,7.01-9.75,15.33-17.16,24.95-22.24,9.62-5.07,19.63-7.61,30.05-7.61s19.75,2.61,28.02,7.81c8.25,5.21,14.28,12.69,18.08,22.44,3.8,9.75,4.62,21.44,2.46,35.06-2.16,13.62-6.68,25.31-13.56,35.06Z"/>
    </g>
    <g>
      <polygon class="cls-1" points="3835.27 684 3891.36 684 3927.65 454.82 3871.55 454.82 3835.27 684"/>
      <path class="cls-1" d="m3875.17,432h47.09c4.97,0,9.64-4.03,10.43-9l4.28-27h-47.09c-4.97,0-9.64,4.03-10.43,9l-4.28,27Z"/>
      <path class="cls-1" d="m2767.84,508.91c11.69-17.36,25.96-30.71,42.8-40.07,16.84-9.35,34.74-14.02,53.7-14.02,16.56,0,30.52,3.34,41.89,10.02,11.36,6.68,19.98,15.09,25.85,25.24l5.58-35.26h56.49l-36.29,229.18h-56.49l5.71-36.06c-8.86,10.42-20.17,19.03-33.94,25.84-13.77,6.81-28.93,10.22-45.49,10.22-18.7,0-34.96-4.81-48.8-14.42-13.84-9.62-23.85-23.17-30.02-40.67-6.18-17.49-7.47-37.59-3.88-60.3,3.55-22.44,11.18-42.33,22.87-59.7Zm149.22,25.44c-3.8-9.75-9.83-17.23-18.08-22.44-8.26-5.21-17.6-7.81-28.02-7.81s-20.43,2.54-30.05,7.61c-9.62,5.08-17.94,12.49-24.95,22.24-7.02,9.75-11.59,21.3-13.7,34.66-2.12,13.36-1.23,25.04,2.67,35.06,3.88,10.02,9.88,17.7,17.99,23.04,8.1,5.35,17.22,8.01,27.38,8.01s20.58-2.6,30.49-7.81c9.9-5.21,18.29-12.68,25.19-22.44,6.89-9.75,11.4-21.44,13.56-35.06s1.34-25.3-2.46-35.06Z"/>
      <path class="cls-1" d="m3373.28,508.91c11.69-17.36,25.96-30.71,42.8-40.07,16.84-9.35,34.74-14.02,53.7-14.02,16.56,0,30.52,3.34,41.89,10.02,11.36,6.68,19.98,15.09,25.85,25.24l5.58-35.26h56.49l-36.29,229.18h-56.49l5.71-36.06c-8.86,10.42-20.17,19.03-33.94,25.84-13.77,6.81-28.93,10.22-45.49,10.22-18.7,0-34.96-4.81-48.8-14.42-13.84-9.62-23.85-23.17-30.02-40.67-6.18-17.49-7.47-37.59-3.88-60.3,3.55-22.44,11.18-42.33,22.87-59.7Zm149.22,25.44c-3.8-9.75-9.83-17.23-18.08-22.44-8.26-5.21-17.6-7.81-28.02-7.81s-20.43,2.54-30.05,7.61c-9.62,5.08-17.94,12.49-24.95,22.24-7.02,9.75-11.59,21.3-13.7,34.66-2.12,13.36-1.23,25.04,2.67,35.06,3.88,10.02,9.88,17.7,17.99,23.04,8.1,5.35,17.22,8.01,27.38,8.01s20.58-2.6,30.49-7.81c9.9-5.21,18.29-12.68,25.19-22.44,6.89-9.75,11.4-21.44,13.56-35.06,2.16-13.62,1.34-25.3-2.46-35.06Z"/>
      <path class="cls-1" d="m4111.67,508.91c11.69-17.36,25.96-30.71,42.8-40.07,16.84-9.35,34.74-14.02,53.7-14.02,16.56,0,30.52,3.34,41.89,10.02,11.36,6.68,19.98,15.09,25.85,25.24l5.58-35.26h56.49l-36.29,229.18h-56.49l5.71-36.06c-8.86,10.42-20.17,19.03-33.94,25.84-13.77,6.81-28.93,10.22-45.49,10.22-18.7,0-34.96-4.81-48.8-14.42-13.84-9.62-23.85-23.17-30.02-40.67-6.18-17.49-7.47-37.59-3.88-60.3,3.55-22.44,11.18-42.33,22.87-59.7Zm149.22,25.44c-3.8-9.75-9.83-17.23-18.08-22.44-8.26-5.21-17.6-7.81-28.02-7.81s-20.43,2.54-30.05,7.61c-9.62,5.08-17.94,12.49-24.95,22.24-7.02,9.75-11.59,21.3-13.7,34.66-2.12,13.36-1.23,25.04,2.67,35.06,3.88,10.02,9.88,17.7,17.99,23.04,8.1,5.35,17.22,8.01,27.38,8.01s20.58-2.6,30.49-7.81c9.9-5.21,18.29-12.68,25.19-22.44,6.89-9.75,11.4-21.44,13.56-35.06,2.16-13.62,1.34-25.3-2.46-35.06Z"/>
      <path class="cls-1" d="m3357.62,454.82l-103.3,229.18h-58.5l-16.28-158.66-66.53,158.66h-58.89l-31.14-229.18h57.11l12.76,172.68,70.72-172.68h57.5l15.28,172.28,67.39-172.28h53.9Z"/>
      <path class="cls-1" d="m3633.83,509.12c12.07-17.23,27.14-30.58,45.2-40.07,18.06-9.48,37.78-14.22,59.14-14.22,27.51,0,49.19,6.88,65.05,20.63,15.85,13.76,24.88,33.05,27.1,57.9h-60.5c-1.68-9.62-5.9-17.16-12.64-22.64-6.75-5.47-15.73-8.21-26.95-8.21-16.03,0-29.63,5.81-40.82,17.43-11.19,11.62-18.48,28.11-21.86,49.48-3.34,21.1-1.26,37.46,6.25,49.08,7.51,11.62,19.28,17.43,35.3,17.43,22.7,0,39.13-10.15,49.29-30.45h60.5c-9.96,24.04-25.13,43.14-45.54,57.29-20.41,14.16-44.23,21.23-71.47,21.23-21.37,0-39.58-4.74-54.64-14.22-15.06-9.48-25.9-22.84-32.52-40.06-6.63-17.23-8.12-37.33-4.48-60.3,3.64-22.97,11.49-43.07,23.57-60.3Z"/>
      <path class="cls-1" d="m4081.23,504.49l7.29-46.07h-49.69l9.88-62.42h-56.48l-9.88,62.42h-26.48l-7.29,46.07h26.48l-17.52,110.63c-7.27,45.94,12.7,68.88,60.01,68.88h35.26l7.48-47.26h-26.04c-8.56,0-14.38-1.68-17.47-5.03-3.05-3.31-4-8.74-2.82-16.19l17.58-111.03h49.69Z"/>
      <polygon class="cls-1" points="2743.5 396 2697.9 684 2640.3 684 2528.87 478.29 2496.3 684 2438.7 684 2484.3 396 2541.9 396 2653.33 601.71 2685.9 396 2743.5 396"/>
    </g>
    <g>
      <path class="cls-1" d="m4048.97,904.91c11.69-17.36,25.96-30.71,42.8-40.07,16.84-9.35,34.74-14.02,53.7-14.02,16.56,0,30.52,3.34,41.89,10.02,11.36,6.68,19.98,15.09,25.85,25.24l5.58-35.26h56.49l-36.29,229.18h-56.49l5.71-36.06c-8.86,10.42-20.17,19.03-33.94,25.84-13.77,6.81-28.93,10.22-45.49,10.22-18.7,0-34.96-4.81-48.8-14.42-13.84-9.62-23.85-23.17-30.02-40.67-6.18-17.49-7.47-37.59-3.88-60.3,3.55-22.44,11.18-42.33,22.87-59.7Zm149.22,25.44c-3.8-9.75-9.83-17.23-18.08-22.44-8.26-5.21-17.6-7.81-28.02-7.81s-20.43,2.54-30.05,7.61c-9.62,5.08-17.94,12.49-24.95,22.24-7.02,9.75-11.59,21.3-13.7,34.66-2.12,13.36-1.23,25.04,2.67,35.06,3.88,10.02,9.88,17.7,17.99,23.04,8.1,5.35,17.22,8.01,27.38,8.01s20.58-2.6,30.49-7.81c9.9-5.21,18.29-12.68,25.19-22.44,6.89-9.75,11.4-21.44,13.56-35.06,2.16-13.62,1.34-25.3-2.46-35.06Z"/>
      <path class="cls-1" d="m2743.89,904.91c11.69-17.36,26.03-30.71,43-40.07,16.97-9.35,34.93-14.02,53.91-14.02,14.42,0,27.68,3.14,39.78,9.41,12.09,6.28,21.19,14.63,27.29,25.04l14.77-93.28h56.89l-45.6,288h-56.89l5.77-36.46c-8.69,10.96-19.83,19.77-33.43,26.44-13.62,6.67-28.7,10.02-45.26,10.02-18.7,0-35.03-4.81-49-14.42-13.97-9.62-24.05-23.17-30.22-40.67-6.18-17.49-7.47-37.59-3.88-60.3,3.55-22.44,11.18-42.33,22.87-59.7Zm149.22,25.44c-3.8-9.75-9.83-17.23-18.08-22.44-8.26-5.21-17.6-7.81-28.02-7.81s-20.43,2.54-30.05,7.61c-9.62,5.08-17.94,12.49-24.95,22.24-7.02,9.75-11.59,21.3-13.7,34.66-2.12,13.36-1.23,25.04,2.67,35.06,3.88,10.02,9.88,17.7,17.99,23.04,8.1,5.35,17.22,8.01,27.38,8.01s20.58-2.6,30.49-7.81c9.9-5.21,18.29-12.68,25.19-22.44,6.89-9.75,11.4-21.44,13.56-35.06,2.16-13.62,1.34-25.3-2.46-35.06Z"/>
      <path class="cls-1" d="m3019.87,1065.78c-15.6-9.48-26.89-22.9-33.89-40.26-7.01-17.36-8.7-37.39-5.11-60.1,3.59-22.7,11.77-42.73,24.54-60.1,12.76-17.36,28.57-30.78,47.44-40.26,18.86-9.48,38.97-14.22,60.34-14.22s39.98,4.75,55.85,14.22c15.86,9.49,27.42,22.91,34.69,40.26,7.27,17.37,9.1,37.4,5.51,60.1-3.59,22.7-11.91,42.74-24.94,60.1-13.04,17.37-29.05,30.79-48.05,40.26-18.99,9.49-39.31,14.22-60.95,14.22s-39.85-4.74-55.44-14.22Zm93.01-42.07c9.73-4.94,18.05-12.35,24.95-22.24,6.91-9.88,11.48-21.9,13.72-36.06,3.34-21.1.36-37.33-8.92-48.68-9.29-11.35-21.94-17.03-37.97-17.03s-30.35,5.68-42.96,17.03c-12.62,11.35-20.59,27.58-23.93,48.68-3.34,21.1-.64,37.33,8.12,48.68,8.76,11.35,21.14,17.03,37.17,17.03,10.15,0,20.09-2.46,29.82-7.41Z"/>
      <path class="cls-1" d="m3694.89,982.24h-162.27c-1.2,16.03,2.42,28.58,10.87,37.66,8.44,9.08,19.88,13.62,34.3,13.62,20.83,0,37.08-8.94,48.72-26.84h60.5c-9.8,21.37-24.86,38.93-45.2,52.68-20.35,13.76-43.74,20.63-70.18,20.63-21.37,0-39.78-4.74-55.24-14.22-15.46-9.48-26.56-22.9-33.29-40.26-6.73-17.36-8.3-37.39-4.71-60.1,3.64-22.97,11.5-43.13,23.6-60.5,12.09-17.36,27.3-30.71,45.61-40.07,18.3-9.35,38.41-14.02,60.31-14.02s39.28,4.55,54.54,13.62c15.25,9.08,26.17,21.97,32.74,38.66,6.57,16.7,8.14,35.86,4.72,57.49-1.27,8.01-2.95,15.23-5.03,21.64Zm-50.53-37.66c2.01-14.42-1.37-25.97-10.14-34.66-8.78-8.68-20.51-13.02-35.2-13.02-13.89,0-26.24,4.21-37.05,12.62-10.81,8.41-18.47,20.1-22.98,35.06h105.38Z"/>
      <path class="cls-1" d="m3759.45,1070.18c-13.39-6.54-23.4-15.43-30.04-26.64-6.64-11.22-9.28-23.64-7.92-37.26h56.49c-.29,8.55,2.8,15.63,9.26,21.23,6.46,5.61,15.16,8.41,26.12,8.41s19.37-2.14,26.06-6.41c6.69-4.27,10.56-9.75,11.62-16.43,1.14-7.21-1.68-12.62-8.45-16.23-6.78-3.61-17.84-7.54-33.18-11.82-15.93-4.01-28.83-8.14-38.7-12.42-9.88-4.27-17.92-10.82-24.14-19.63-6.22-8.81-8.14-20.7-5.77-35.66,1.94-12.28,7.26-23.5,15.95-33.65,8.68-10.15,20.1-18.16,34.25-24.04,14.15-5.87,30.18-8.81,48.07-8.81,26.44,0,46.5,6.61,60.16,19.83s19.53,31.05,17.58,53.49h-53.69c.6-8.81-1.97-15.83-7.68-21.04-5.72-5.21-14.06-7.81-25.01-7.81-10.15,0-18.26,1.87-24.33,5.61-6.07,3.74-9.63,8.95-10.69,15.63-1.18,7.48,1.66,13.16,8.52,17.03,6.86,3.87,17.86,7.81,32.99,11.82,15.39,4.01,27.96,8.15,37.7,12.42,9.74,4.28,17.7,10.89,23.9,19.83,6.2,8.95,8.26,20.77,6.21,35.46-2.03,12.82-7.39,24.31-16.07,34.46-8.68,10.15-20.09,18.1-34.22,23.84-14.13,5.74-30.01,8.61-47.64,8.61s-33.94-3.27-47.33-9.82Z"/>
      <polygon class="cls-1" points="2433.6 1080 2376 1080 2421.6 792 2479.2 792 2433.6 1080"/>
      <polygon class="cls-1" points="3922.91 1080 3979.01 1080 4015.29 850.82 3959.2 850.82 3922.91 1080"/>
      <path class="cls-1" d="m3962.81,828h47.09c4.97,0,9.64-4.03,10.43-9l4.28-27h-47.09c-4.97,0-9.64,4.03-10.43,9l-4.28,27Z"/>
      <path class="cls-1" d="m2681.76,876.27c13.65,16.69,18.11,40,13.37,69.91l-21.19,133.82h-56.09l19.98-126.21c2.79-17.63.53-31.18-6.78-40.66-7.31-9.48-18.58-14.22-33.81-14.22s-28.47,4.74-38.91,14.22c-10.45,9.48-17.07,23.04-19.86,40.66l-19.98,126.21h-56.09l36.29-229.18h56.09l-4.95,31.25c9-9.62,19.75-17.16,32.23-22.64,12.48-5.47,25.67-8.21,39.56-8.21,26.44,0,46.49,8.35,60.14,25.04Z"/>
      <path class="cls-1" d="m3439.26,876.27c13.65,16.69,18.11,40,13.37,69.91l-21.19,133.82h-56.09l19.98-126.21c2.79-17.63.53-31.18-6.78-40.66-7.31-9.48-18.58-14.22-33.81-14.22s-28.47,4.74-38.91,14.22c-10.45,9.48-17.07,23.04-19.86,40.66l-19.98,126.21h-56.09l36.29-229.18h56.09l-4.95,31.25c9-9.62,19.75-17.16,32.23-22.64,12.48-5.47,25.67-8.21,39.56-8.21,26.44,0,46.49,8.35,60.14,25.04Z"/>
    </g>
  </g>
</svg>