<?xml version="1.0" encoding="UTF-8"?>
<svg id="Icon" xmlns="http://www.w3.org/2000/svg" viewBox="0 0 1080 1080">
  <defs>
    <style>
      .cls-1 {
        fill: #fafafa;
        stroke-width: 0px;
      }
    </style>
  </defs>
  <path class="cls-1" d="m251.38,938.79c-68.27,0-127.24-22.21-176.9-66.73C24.83,827.6,0,753.65,0,650.17c0-80.69,14.98-150.52,45-209.49,29.97-58.96,67.21-108.62,111.73-148.97,44.47-40.34,89.46-72.39,135-96.2,45.49-23.76,85.83-41.9,121.03-54.31l40.35,86.9c-39.33,18.62-78.12,40.34-116.38,65.17-38.31,24.83-69.34,59.5-93.1,103.97-23.81,44.52-35.69,103.97-35.69,178.45,12.42-4.12,24.83-7.23,37.24-9.31,12.41-2.03,25.84-3.1,40.35-3.1,51.69,0,94.12,16.58,127.24,49.65,33.07,33.12,49.66,75.55,49.66,127.24s-18.14,97.76-54.31,138.11c-36.23,40.34-88.45,60.52-156.72,60.52Zm617.59,0c-68.27,0-127.24-22.21-176.89-66.73-49.66-44.47-74.48-118.41-74.48-221.89,0-80.69,14.98-150.52,45-209.49,29.97-58.96,67.21-108.62,111.73-148.97,44.47-40.34,89.47-72.39,135-96.2,45.49-23.76,85.83-41.9,121.03-54.31l40.35,86.9c-39.33,18.62-78.12,40.34-116.38,65.17-38.31,24.83-69.34,59.5-93.1,103.97-23.81,44.52-35.69,103.97-35.69,178.45,12.41-4.12,24.82-7.23,37.24-9.31,12.41-2.03,25.84-3.1,40.35-3.1,51.69,0,94.12,16.58,127.24,49.65,33.07,33.12,49.66,75.55,49.66,127.24s-18.14,97.76-54.31,138.11c-36.22,40.34-88.45,60.52-156.72,60.52Z"/>
</svg>