<?xml version="1.0" encoding="UTF-8"?>
<svg id="Arrow_Circle" data-name="Arrow Circle" xmlns="http://www.w3.org/2000/svg" viewBox="0 0 1080 1080">
  <defs>
    <style>
      .cls-1 {
        fill: #050505;
        stroke-width: 0px;
      }
    </style>
  </defs>
  <path class="cls-1" d="m291,339c-13.3-13.3-13.3-34.8,0-48.1,13.3-13.3,34.8-13.3,48.1,0l392,392v-217.9c0-18.8,15.2-34,34-34s34,15.2,34,34v300c0,5.1-1.1,9.9-3.1,14.3,0,0,0,0,0,0-.2.5-.5,1-.7,1.4,0,0,0,0,0,0-.2.5-.5.9-.8,1.4,0,0,0,0,0,.1-.3.5-.6.9-.9,1.4,0,0,0,0,0,0-2.5,3.8-5.8,7.1-9.7,9.7,0,0,0,0,0,0-.5.3-.9.6-1.4.9,0,0,0,0,0,0-.5.3-.9.5-1.4.8,0,0,0,0,0,0-.5.2-.9.5-1.4.7,0,0,0,0,0,0-4.3,2-9.2,3.2-14.3,3.2h-300c-18.8,0-34-15.2-34-34s15.2-34,34-34h217.9l-392-392ZM0,540C0,241.8,241.8,0,540,0s540,241.8,540,540-241.8,540-540,540S0,838.2,0,540Zm105.1,183.7c23.8,56.2,57.8,106.7,101.2,150.1,43.4,43.4,93.9,77.4,150.1,101.2,58.1,24.6,120,37.1,183.7,37.1s125.6-12.5,183.7-37.1c56.2-23.8,106.7-57.8,150.1-101.2,43.4-43.4,77.4-93.9,101.2-150.1,24.6-58.1,37.1-120,37.1-183.7s-12.5-125.6-37.1-183.7c-23.8-56.2-57.8-106.7-101.2-150.1-43.4-43.4-93.9-77.4-150.1-101.2-58.1-24.6-120-37.1-183.7-37.1s-125.6,12.5-183.7,37.1c-56.2,23.8-106.7,57.8-150.1,101.2-43.4,43.4-77.4,93.9-101.2,150.1-24.6,58.1-37.1,120-37.1,183.7s12.5,125.6,37.1,183.7Z"/>
</svg>