<?xml version="1.0" encoding="UTF-8"?>
<svg id="Arrow_Circle" data-name="Arrow Circle" xmlns="http://www.w3.org/2000/svg" viewBox="0 0 1080 1080">
  <defs>
    <style>
      .cls-1 {
        fill: #050505;
        stroke-width: 0px;
      }
    </style>
  </defs>
  <path class="cls-1" d="m765,431c-18.8,0-34,15.2-34,34v217.9l-392-392c-13.3-13.3-34.8-13.3-48.1,0-13.3,13.3-13.3,34.8,0,48.1l392,392h-217.9c-18.8,0-34,15.2-34,34s15.2,34,34,34h300c5.1,0,9.9-1.1,14.3-3.2,0,0,0,0,0,0,.5-.2,1-.5,1.4-.7,0,0,0,0,0,0,.5-.2.9-.5,1.4-.8,0,0,0,0,0,0,.5-.3.9-.6,1.4-.9,0,0,0,0,0,0,3.8-2.5,7.1-5.8,9.7-9.7,0,0,0,0,0,0,.3-.4.6-.9.9-1.4,0,0,0,0,0-.1.3-.4.5-.9.8-1.4,0,0,0,0,0,0,.2-.5.5-.9.7-1.4,0,0,0,0,0,0,2-4.3,3.1-9.2,3.1-14.3v-300c0-18.8-15.2-34-34-34Z"/>
</svg>