<?xml version="1.0" encoding="utf-8"?>
<!-- Generator: Adobe Illustrator 27.9.0, SVG Export Plug-In . SVG Version: 6.00 Build 0)  -->
<svg version="1.1" id="Layer_1" xmlns="http://www.w3.org/2000/svg" xmlns:xlink="http://www.w3.org/1999/xlink" x="0px" y="0px"
	 viewBox="0 0 3611.6 1080" style="enable-background:new 0 0 3611.6 1080;" xml:space="preserve">
<style type="text/css">
	.st0{fill:#FAFAFA;}
</style>
<path class="st0" d="M591.2,467.7c-28.8-14-71.9-21.1-105.3-21.1s-64.2,6-92.6,18.1c-28.4,12-51.5,29.1-68.9,51.5
	C307,538.6,296.3,565,293,596.1h101.7c4-22.1,14.4-38.1,31.1-49.2s39.1-16.4,60.2-16.4s38.5,4,51.5,11.7
	c13.4,7.7,23.1,19.4,29.8,34.4c6.7,15,10,34.1,10,57.2H467.8c-40.8,0-74.9,5.7-102.3,16.7c-27.8,11-48.5,26.8-62.5,46.8
	c-14,20.1-21.1,46.5-21.1,70.6s5.7,46.2,17,66.2s29.1,36.1,52.8,48.2c23.7,12,53.2,18.1,88.3,18.1l-0.3,0.7c18.4,0,34.8-2,49.2-6
	s27.4-9.7,39.1-16.7c12-7.4,22.1-15.7,31.1-25.1c9-9.4,16.4-20.1,22.1-31.4l10.4,68.9h88.6V622.2c0-37.1-7.7-68.9-22.7-94.6
	S620.3,481.7,591.2,467.7L591.2,467.7z M573.5,701.8c-1.3,15.7-4.7,30.4-10,44.5c-5.7,14-13,26.8-22.1,37.8S521,803.8,508,809.8
	c-13.4,6-28.1,9-44.8,9c-14,0-27.1-2.3-38.1-7c-11-4.7-19.7-11-25.8-19.7s-9-19.7-9-31.8s3-22.4,9.4-31.4c6.4-9,15.7-16,28.8-21.1
	s29.8-7.7,50.5-7.7h94.6L573.5,701.8L573.5,701.8z M193.6,457.7c21.1-7.4,44.8-11,70.6-11V555h-37.1c-17.1,0-33.4,2-49.2,6.3
	c-15.4,4.3-28.8,11.4-40.1,21.1c-11,9.7-19.7,23.1-25.8,39.5c-6,16.7-9,37.1-9,61.2v207.3H0V456.7h92l8.7,80.9
	c11-19.1,23.7-35.1,38.8-48.5S172.6,465,193.6,457.7L193.6,457.7z M2976.6,456.7h103.3v433.7h-103.3V456.7L2976.6,456.7z
	 M1909.2,532.9c12.7,28.4,19.4,63.2,19.4,104.7v253.1h-102.3V647.3c0-36.8-7.4-64.9-22.4-84.3c-15.1-19.4-36.8-29.1-65.5-29.1
	s-37.4,5-52.5,15c-15.1,10-26.8,24.4-35.1,43.1c-8.7,18.7-13,41.5-13,68.5v230.7h-103.3V647.9c0-36.8-7.4-64.9-22.4-84.3
	c-15.1-19.4-37.4-29.1-67.9-29.1s-35.8,5-50.8,15c-15.1,10-26.4,24.4-34.8,43.1c-8.4,18.7-12.4,41.5-12.4,68.5v230.7h-103.3v-1.7
	V456.7h91.3l7,58.5c13.7-21.1,32.4-38.1,55.5-50.5c23.1-12.4,48.8-18.4,76.9-18.4s42.1,3,59.9,8.7c17.4,5.7,33.1,14.4,46.5,25.8
	c13.4,11.4,24.4,25.8,33.1,43.1c15.4-24.1,36.1-43.1,61.9-56.9s54.2-20.7,85.3-20.7s66.9,7.4,92,22.1
	C1877.1,483.1,1896.5,504.5,1909.2,532.9L1909.2,532.9z M2294.8,467.7c-28.8-14-71.9-21.1-105.3-21.1s-64.2,6-92.6,18.1
	c-28.4,12-51.5,29.1-68.9,51.5c-17.4,22.4-28.1,48.8-31.4,79.9h101.7c4-22.1,14.4-38.1,31.1-49.2c16.7-11,39.1-16.4,60.2-16.4
	s38.5,4,51.5,11.7c13.4,7.7,23.1,19.4,29.8,34.4c6.7,15,10,34.1,10,57.2h-109.4c-40.8,0-74.9,5.7-102.3,16.7
	c-27.8,11-48.5,26.8-62.5,46.8c-14.1,20.1-21.1,46.5-21.1,70.6s5.7,46.2,17.1,66.2s29.1,36.1,52.8,48.2c23.7,12,53.2,18.1,88.3,18.1
	l-0.3,0.7c18.4,0,34.8-2,49.2-6s27.4-9.7,39.1-16.7c12-7.4,22.1-15.7,31.1-25.1c9-9.4,16.4-20.1,22.1-31.4l10.4,68.9h88.6V622.2
	c0-37.1-7.7-68.9-22.7-94.6S2323.8,481.7,2294.8,467.7L2294.8,467.7z M2277,701.8c-1.3,15.7-4.7,30.4-10,44.5
	c-5.7,14-13,26.8-22.1,37.8s-20.4,19.7-33.4,25.8c-13.3,6-28,9-44.6,9c-14.3,0-27.3-2.4-38.3-7c-11-4.7-19.7-11-25.8-19.7
	s-9-19.7-9-31.8s3-22.4,9.4-31.4c6.4-9,15.7-16,28.8-21.1s29.8-7.7,50.5-7.7h94.6L2277,701.8L2277,701.8z M3093.3,326.6
	c0,17.7-6,31.8-18.4,43.5c-12.4,11.7-28.1,17.7-46.8,17.7s-34.4-6-46.8-17.7c-12.4-11.7-18.4-26.1-18.4-43.5s6-32.1,18.4-43.5
	c12.4-11,28.1-16.7,46.8-16.7s34.4,5.7,46.8,16.7C3087.3,294.2,3093.3,308.9,3093.3,326.6z M2793,516.5
	c-14.4-22.4-33.8-39.8-58.2-52.2c-24.1-12.4-44.5-18.4-84.6-18.4s-76.2,9.7-108,29.1c-32.1,19.7-56.9,46.5-74.6,80.6
	s-26.8,73.6-26.8,117.4s8.7,82.6,26.1,116.7c17.7,34.1,41.8,61.2,73.2,80.9c31.1,19.7,66.9,29.8,107,29.8l0.7,0.7
	c24.4,0,46.1-3.3,64.9-10.4c18.7-7,34.8-15.7,47.8-26.8c13-11,24.4-23.4,33.4-37.1l10.4,63.5h92V270.7H2793L2793,516.5L2793,516.5z
	 M2778.7,744.6c-10,20.4-24.4,36.8-43.1,48.5s-40.8,17.7-65.9,17.7v-0.3c-23.4,0-44.5-6-63.5-17.7c-18.7-11.7-33.4-27.8-43.8-48.2
	c-10.4-20.4-15.4-44.8-15.4-71.9s5-50.8,15.4-71.9c10.4-20.7,24.8-37.1,43.8-48.5c18.7-11.4,38.1-17.1,63.5-17.1s47.1,6,65.9,17.7
	c18.7,11.7,33.1,27.8,43.1,48.5c10,20.7,15.1,44.5,15.1,71.6S2788.7,723.8,2778.7,744.6L2778.7,744.6z M1147.1,533.2
	c13,28.8,19.4,63.9,19.4,105.7v251.1h-102.3V648.3c0-37.1-7.7-65.9-23.1-85.6s-39.5-29.8-71.6-29.8s-39.5,5-56.5,15.4
	c-17.1,10.4-30.1,25.1-39.5,43.8c-9.4,18.7-14,41.5-14,67.9v229.7H756.1l-0.3,0.7V270.7h103.3v253.1c13.7-23.4,33.1-42.1,57.5-56.5
	c24.8-14,52.8-21.1,84.3-21.1c31.4,0,64.9,7.4,89.6,22.1C1115.3,483.1,1134,504.8,1147.1,533.2L1147.1,533.2z M3584.9,557
	c-17.7-34.1-42.1-61.2-73.2-80.9c-30.8-19.7-66.9-29.8-108.4-29.8c-25.1,0-46.8,3.3-64.9,10.4c-18.1,7-33.4,15.7-46.5,26.8
	c-13,11-24.4,23.1-34.1,36.1l-9.4-62.9h-92V1080h103.3V829.5c13.7,22.7,32.8,40.5,57.2,52.8c24.4,12.4,46.5,18.4,86.6,18.4
	s75.6-9.7,107-29.1c31.1-19.7,55.9-46.5,73.9-80.6c18.1-34.1,27.1-72.6,27.1-116.7S3602.6,591.1,3584.9,557L3584.9,557z M3490,745.3
	c-10.7,20.4-25.1,36.5-43.8,48.2c-18.7,11.7-40.1,17.7-64.2,17.7v-0.3c-25.4,0-47.1-6-65.9-17.7c-18.7-11.7-33.1-27.8-43.5-48.5
	c-10.4-20.7-15.4-43.1-15.4-70.6s5-51.8,15.4-72.2c10.4-20.4,24.8-36.8,43.5-48.5c18.7-11.7,41.8-17.7,65.9-17.7s45.5,6,64.2,17.7
	c18.7,12,33.1,28.1,43.8,49.2c10.7,21.1,16.1,45.2,16.1,71.9S3500.7,724.9,3490,745.3L3490,745.3z M956,212.5
	c11.2,6.6,24,10,38.5,10c12.1,0,22.6-2.1,31.7-6.3c9.1-4.2,16.7-10,22.9-17.4c6.2-7.4,10.7-15.6,13.3-24.9h-30.2
	c-2.8,7.2-7.4,13-13.7,17.2c-6.3,4.2-14.3,6.3-24,6.3c-8.3,0-15.8-2-22.5-6c-6.7-4-12.1-9.9-16.2-17.5c-3.5-6.7-5.5-14.7-5.9-24.1
	h116.1c0.4-2.6,0.6-5.1,0.6-7.6v-6.6c0-13.3-2.9-25.3-8.6-36.2c-5.7-10.9-13.9-19.6-24.6-26.3c-10.7-6.6-23.4-10-38.3-10
	s-28,3.4-39.4,10.1s-20.1,16.1-26.3,28.1c-6.1,12-9.2,25.9-9.2,41.8s3.2,29.8,9.5,41.6C936.1,196.6,944.9,205.9,956,212.5L956,212.5
	z M955.9,110c4-7.2,9.5-12.6,16.3-16.3c6.8-3.7,14.4-5.6,22.7-5.6c11.7,0,21.4,3.6,29.3,10.9c7.8,7.2,12.1,17.1,12.7,29.6h-86.5
	C951.1,121.4,953,115.2,955.9,110L955.9,110z M1379.9,195.6c3.4,5.2,7.7,9.9,12.7,13.9c5,4,10.9,7.2,17.7,9.5
	c6.7,2.3,14.2,3.5,22.5,3.5c14.5,0,27.3-3.4,38.3-10.3c11.1-6.9,19.7-16.3,25.8-28.4c6.1-12.1,9.2-25.8,9.2-41.1s-3.1-28.9-9.2-40.9
	c-6.1-12-14.7-21.4-25.8-28.4c-11.1-6.9-23.8-10.4-38.3-10.4c-12.7,0-23.4,2.7-32.2,8s-15.6,11.8-20.7,19.5v-89h-30.2v217.4h27.2
	L1379.9,195.6L1379.9,195.6z M1386.1,115c3.9-8.1,9.4-14.3,16.6-18.9c7.2-4.5,15.6-6.8,25.2-6.8c9.1,0,17.2,2.2,24.4,6.6
	c7.2,4.4,12.9,10.7,16.9,18.7c4,8.1,6,17.4,6,28.1s-2,20.2-6,28.1c-4,7.9-9.7,14.1-16.9,18.6c-7.2,4.5-15.4,6.8-24.4,6.8
	c-9.7,0-18.1-2.3-25.2-6.8c-7.2-4.5-12.7-10.7-16.6-18.6c-3.9-7.8-5.9-17.2-5.9-28.1S1382.2,123,1386.1,115L1386.1,115z M521.7,32.6
	c-3.7-3.6-5.6-8.2-5.6-13.9s1.8-9.9,5.6-13.4C525.4,1.8,530.2,0,536,0s10.4,1.8,14.2,5.3c3.8,3.5,5.7,8,5.7,13.4s-1.9,10.3-5.7,13.9
	c-3.8,3.6-8.6,5.4-14.2,5.4S525.4,36.2,521.7,32.6z M1575,201.9l-60.1-135.2h32.9l47.4,110.5l48-110.5h31.7l-96.6,218.6h-31.7
	l37.1-83.3L1575,201.9L1575,201.9z M783.3,218.9h-30.2V66.7h27.2l1.8,26c4.8-9.3,11.6-16.5,20.4-21.7s19-7.8,30.6-7.8
	c12.3,0,22.7,2.4,31.4,7.2c8.7,4.8,15.3,12.1,20.1,21.9c4.7,9.8,7.1,22,7.1,36.7v90h-30.2v-86.9c0-14.1-3.1-24.8-9.4-32.1
	c-6.2-7.3-15.3-11-27.2-11c-7.8,0-14.9,1.9-21.1,5.7c-6.2,3.8-11.2,9.4-14.9,16.6c-3.7,7.2-5.6,16.1-5.6,26.6L783.3,218.9
	L783.3,218.9z M1246.2,1.5H1216v88.4c-5-8.4-12-15-21-19.8c-9-4.7-19.6-7.1-31.9-7.1c-14.3,0-27,3.4-38.2,10.3s-19.8,16.2-25.8,28.2
	c-6,12-9.1,25.7-9.1,41.2s3,28.7,9.1,40.8c6,12.1,14.6,21.6,25.7,28.5c11.1,6.9,23.7,10.4,38,10.4c9.1,0,16.9-1.3,23.7-3.9
	c6.7-2.6,12.6-6,17.5-10.1c4.9-4.1,9-8.6,12.2-13.4l2.7,23.9h27.2V1.5z M1209.8,170.7c-3.9,7.9-9.5,14.2-16.6,18.7
	c-7.2,4.5-15.4,6.8-24.9,6.8s-17.5-2.3-24.8-6.8s-12.8-10.8-16.8-18.7c-3.9-7.9-5.9-17.4-5.9-28.2s2-19.7,5.9-27.8
	c3.9-8.1,9.5-14.3,16.8-18.7c7.2-4.4,15.5-6.6,24.8-6.6s17.8,2.2,24.9,6.6c7.1,4.4,12.7,10.7,16.6,18.7c3.9,8.1,5.9,17.4,5.9,28.1
	S1213.7,162.8,1209.8,170.7L1209.8,170.7z M648.9,63.1c-12.9,0-23.7,2.5-32.6,7.4c-8.9,4.9-15.7,11.5-20.5,19.6
	c-4.8,8.2-7.2,17.3-7.2,27.3s2.4,19.5,7.1,27.6c2.8,4.8,6.3,9,10.6,12.7l-26.2,26.7v6.9c2.6,2.6,5.8,5.2,9.7,7.7
	c2.8,1.8,6,3.5,9.6,5c-1.9,1.4-3.7,2.9-5.3,4.4c-5.4,5.1-9.3,10.5-11.8,16c-2.4,5.5-3.6,11-3.6,16.4c0,10.5,2.9,19.3,8.8,26.6
	c5.8,7.2,14.1,12.6,24.8,16.1c10.7,3.5,22.9,5.3,36.8,5.3c15.7,0,28.5-2.5,38.5-7.5c10-5,17.3-11.4,22-19.2
	c4.7-7.8,7.1-15.9,7.1-24.6c0-9.3-1.8-17.1-5.6-23.6c-3.7-6.4-9.8-11.5-18.3-15.2c-8.4-3.7-19.6-6.1-33.5-7.1
	c-9.3-0.8-16.8-1.6-22.6-2.4s-10.4-1.7-13.7-2.7c-3.3-1-6-2.1-8.2-3.5c-0.5-0.3-1.1-0.7-1.6-1.1l14.1-12.9c6.6,2,13.8,2.9,21.8,2.9
	c12.7,0,23.5-2.5,32.5-7.4c9-4.9,15.8-11.5,20.4-19.6c4.6-8.1,7-17.3,7-27.6s-2.3-19.2-7-27.3c-0.2-0.4-0.5-0.8-0.7-1.2l27.9-1.7
	V66.7h-56.2C665.7,64.3,657.8,63.1,648.9,63.1L648.9,63.1z M652.9,214.3c13.7,0.8,23,3.3,27.8,7.5s7.2,9.8,7.2,16.6
	c0,5.4-1.6,10.1-4.8,14c-3.2,3.9-7.7,7-13.4,9.2c-5.7,2.2-12.6,3.3-20.7,3.3s-15-1-21.4-3c-6.5-2-11.5-5-15.1-9.1
	c-3.6-4-5.4-9.2-5.4-15.4c0-4.8,1.8-9.9,5.3-15.2c2.7-4.1,7.3-7.8,14-11.1C633.8,212.6,642.7,213.6,652.9,214.3L652.9,214.3z
	 M672.3,140.2c-5.7,5.1-13.5,7.7-23.4,7.7s-18.1-2.6-24-7.7c-6-5.1-8.9-12.6-8.9-22.5s3-17.4,9.2-22.5c6.1-5.1,14-7.7,23.7-7.7
	s17.7,2.6,23.4,7.7c5.7,5.1,8.6,12.6,8.6,22.5S678.1,135.1,672.3,140.2z M326.3,198.8c6.2-7.4,10.7-15.6,13.3-24.9h-30.2
	c-2.8,7.2-7.4,13-13.7,17.2c-6.3,4.2-14.4,6.3-24,6.3c-8.3,0-15.8-2-22.5-6c-6.7-4-12.1-9.9-16.1-17.5c-3.5-6.7-5.5-14.7-5.9-24.1
	h116.1c0.4-2.6,0.6-5.1,0.6-7.6v-6.6c0-13.3-2.9-25.3-8.6-36.2c-5.7-10.9-14-19.6-24.6-26.3s-23.4-10-38.3-10s-28,3.4-39.4,10.1
	c-11.4,6.7-20.1,16.1-26.3,28.1c-6.1,12-9.2,25.9-9.2,41.8s3.2,29.8,9.5,41.6c6.3,11.9,15.1,21.1,26.3,27.8c11.2,6.6,24,10,38.5,10
	c12.1,0,22.6-2.1,31.7-6.3S320.1,206.1,326.3,198.8L326.3,198.8z M233,110c4-7.2,9.5-12.6,16.3-16.3c6.8-3.7,14.4-5.6,22.7-5.6
	c11.7,0,21.4,3.6,29.3,10.9c7.9,7.2,12.1,17.1,12.7,29.6h-86.5C228.3,121.4,230.1,115.2,233,110L233,110z M125.9,206
	c16.1-8.6,28-20.7,35.8-36.4c7.7-15.7,11.6-34.4,11.6-56.2s-3.9-40.5-11.6-56.3c-7.8-15.8-19.7-28-35.8-36.7
	c-16.1-8.7-36.4-13-61-13H0v211.3h64.9C89.5,218.8,109.8,214.6,125.9,206L125.9,206z M30.2,193.5V32.9h33.5
	c19.3,0,34.8,3.2,46.3,9.7s19.8,15.7,24.7,27.8c4.9,12.1,7.4,26.5,7.4,43.2s-2.5,30.7-7.4,42.7c-4.9,12-13.2,21.2-24.8,27.6
	c-11.6,6.4-27,9.6-46.3,9.6L30.2,193.5L30.2,193.5z M520.9,66.7h30.2v152.1h-30.2V66.7L520.9,66.7z M456.5,187.3
	c2.1-3.3,3.2-6.9,3.2-10.7c0-5.6-1.4-9.9-4.1-12.8c-2.7-2.9-6.8-5.3-12.2-7.1c-5.4-1.8-12-3.3-19.6-4.5c-6.6-1.4-13.3-3.1-19.9-5.1
	c-6.6-2-12.5-4.7-17.7-8c-5.1-3.3-9.2-7.4-12.2-12.2c-3-4.8-4.5-10.9-4.5-18.1c0-8.7,2.3-16.5,6.8-23.4c4.5-6.9,11.1-12.4,19.8-16.3
	c8.7-3.9,18.8-5.9,30.5-5.9c16.9,0,30.5,4,40.8,11.9c10.2,7.9,16.4,19.4,18.4,34.3h-29.3c-1-6.8-4.1-12.2-9.2-16
	c-5.1-3.8-12.1-5.7-21-5.7s-15.3,1.8-19.9,5.3c-4.6,3.5-6.9,8-6.9,13.4c0,3.6,1.4,6.8,4.1,9.7c2.7,2.8,6.6,5.2,11.6,7.2
	c5,2,11.3,3.7,18.7,5.1c10.7,2,20.2,4.6,28.7,7.7c8.4,3.1,15.2,7.6,20.4,13.4c5.1,5.9,7.7,14.2,7.7,25.1c0,9.6-2.5,18.1-7.4,25.2
	c-4.9,7.1-11.9,12.7-20.8,16.8c-9,4-19.5,6-31.6,6c-13.3,0-24.7-2.2-34.3-6.5c-9.6-4.3-17.1-10.3-22.6-17.8
	c-5.5-7.6-8.9-16.5-10.1-26.7h30.5c1,4.8,3,9.3,5.9,13.3c2.9,4,6.9,7.2,12.1,9.7c5.1,2.4,11.3,3.6,18.6,3.6c6.4,0,11.8-0.9,16.2-2.9
	C451.1,193.2,454.4,190.6,456.5,187.3L456.5,187.3z"/>
</svg>
