<?xml version="1.0" encoding="UTF-8"?>
<svg id="CoverVIMNI" xmlns="http://www.w3.org/2000/svg" viewBox="0 0 2160 1080">
  <defs>
    <style>
      .cls-1 {
        fill: #f9f9f9;
      }

      .cls-2 {
        fill: #036;
      }
    </style>
  </defs>
  <rect id="bgvi" class="cls-2" width="2160" height="1080"/>
  <path id="MNI" class="cls-1" d="M193.95,72l-8.55,54h-10.8l8.55-54h10.8ZM166.95,72l-6.1,38.57-20.9-38.57-2.45,15.43,20.9,38.57h10.8l8.55-54h-10.8ZM123.75,72l-22.61,40.5-9.79-40.5h-10.8l-8.55,54h10.8l4.28-27,6.52,27h10.8l15.08-27-4.28,27h10.8l8.55-54h-10.8Z"/>
  <polygon id="Arrow" class="cls-1" points="2088 949.86 2088 1008 2029.86 1008 2029.86 995.76 2067.11 995.76 1998 926.65 2006.65 918 2075.76 987.11 2075.76 949.86 2088 949.86"/>
</svg>