<?xml version="1.0" encoding="UTF-8"?>
<svg id="Layer_1" data-name="Layer 1" xmlns="http://www.w3.org/2000/svg" viewBox="0 0 1080 1080">
  <defs>
    <style>
      .cls-1 {
        fill: #060606;
      }
    </style>
  </defs>
  <g id="coverProduct">
    <path class="cls-1" d="M110.4,937.87h-13.32v24.36h13.32c4.64,0,8.08-1.06,10.32-3.18s3.36-5.1,3.36-8.94c0-8.16-4.56-12.24-13.68-12.24ZM110.4,937.87h-13.32v24.36h13.32c4.64,0,8.08-1.06,10.32-3.18s3.36-5.1,3.36-8.94c0-8.16-4.56-12.24-13.68-12.24ZM110.4,937.87h-13.32v24.36h13.32c4.64,0,8.08-1.06,10.32-3.18s3.36-5.1,3.36-8.94c0-8.16-4.56-12.24-13.68-12.24ZM230.67,960.13c-3.32-3.4-7.38-5.1-12.18-5.1s-8.82,1.7-12.06,5.1c-3.24,3.4-4.86,8.26-4.86,14.58s1.58,11.18,4.74,14.58c3.16,3.4,7.14,5.1,11.94,5.1,3.04,0,5.9-.74,8.58-2.22,2.68-1.48,4.82-3.7,6.42-6.66,1.6-2.96,2.4-6.56,2.4-10.8,0-6.32-1.66-11.18-4.98-14.58ZM230.67,960.13c-3.32-3.4-7.38-5.1-12.18-5.1s-8.82,1.7-12.06,5.1c-3.24,3.4-4.86,8.26-4.86,14.58s1.58,11.18,4.74,14.58c3.16,3.4,7.14,5.1,11.94,5.1,3.04,0,5.9-.74,8.58-2.22,2.68-1.48,4.82-3.7,6.42-6.66,1.6-2.96,2.4-6.56,2.4-10.8,0-6.32-1.66-11.18-4.98-14.58ZM110.4,937.87h-13.32v24.36h13.32c4.64,0,8.08-1.06,10.32-3.18s3.36-5.1,3.36-8.94c0-8.16-4.56-12.24-13.68-12.24ZM110.4,937.87h-13.32v24.36h13.32c4.64,0,8.08-1.06,10.32-3.18s3.36-5.1,3.36-8.94c0-8.16-4.56-12.24-13.68-12.24ZM230.67,960.13c-3.32-3.4-7.38-5.1-12.18-5.1s-8.82,1.7-12.06,5.1c-3.24,3.4-4.86,8.26-4.86,14.58s1.58,11.18,4.74,14.58c3.16,3.4,7.14,5.1,11.94,5.1,3.04,0,5.9-.74,8.58-2.22,2.68-1.48,4.82-3.7,6.42-6.66,1.6-2.96,2.4-6.56,2.4-10.8,0-6.32-1.66-11.18-4.98-14.58ZM306.31,964.21c-1.6-2.92-3.76-5.16-6.48-6.72-2.72-1.56-5.64-2.34-8.76-2.34s-6,.76-8.64,2.28c-2.64,1.52-4.78,3.74-6.42,6.66-1.64,2.92-2.46,6.38-2.46,10.38s.82,7.5,2.46,10.5,3.8,5.3,6.48,6.9c2.68,1.6,5.54,2.4,8.58,2.4s6.04-.78,8.76-2.34c2.72-1.56,4.88-3.8,6.48-6.72,1.6-2.92,2.4-6.42,2.4-10.5s-.8-7.58-2.4-10.5ZM306.31,964.21c-1.6-2.92-3.76-5.16-6.48-6.72-2.72-1.56-5.64-2.34-8.76-2.34s-6,.76-8.64,2.28c-2.64,1.52-4.78,3.74-6.42,6.66-1.64,2.92-2.46,6.38-2.46,10.38s.82,7.5,2.46,10.5,3.8,5.3,6.48,6.9c2.68,1.6,5.54,2.4,8.58,2.4s6.04-.78,8.76-2.34c2.72-1.56,4.88-3.8,6.48-6.72,1.6-2.92,2.4-6.42,2.4-10.5s-.8-7.58-2.4-10.5ZM230.67,960.13c-3.32-3.4-7.38-5.1-12.18-5.1s-8.82,1.7-12.06,5.1c-3.24,3.4-4.86,8.26-4.86,14.58s1.58,11.18,4.74,14.58c3.16,3.4,7.14,5.1,11.94,5.1,3.04,0,5.9-.74,8.58-2.22,2.68-1.48,4.82-3.7,6.42-6.66,1.6-2.96,2.4-6.56,2.4-10.8,0-6.32-1.66-11.18-4.98-14.58ZM110.4,937.87h-13.32v24.36h13.32c4.64,0,8.08-1.06,10.32-3.18s3.36-5.1,3.36-8.94c0-8.16-4.56-12.24-13.68-12.24ZM110.4,937.87h-13.32v24.36h13.32c4.64,0,8.08-1.06,10.32-3.18s3.36-5.1,3.36-8.94c0-8.16-4.56-12.24-13.68-12.24ZM230.67,960.13c-3.32-3.4-7.38-5.1-12.18-5.1s-8.82,1.7-12.06,5.1c-3.24,3.4-4.86,8.26-4.86,14.58s1.58,11.18,4.74,14.58c3.16,3.4,7.14,5.1,11.94,5.1,3.04,0,5.9-.74,8.58-2.22,2.68-1.48,4.82-3.7,6.42-6.66,1.6-2.96,2.4-6.56,2.4-10.8,0-6.32-1.66-11.18-4.98-14.58ZM306.31,964.21c-1.6-2.92-3.76-5.16-6.48-6.72-2.72-1.56-5.64-2.34-8.76-2.34s-6,.76-8.64,2.28c-2.64,1.52-4.78,3.74-6.42,6.66-1.64,2.92-2.46,6.38-2.46,10.38s.82,7.5,2.46,10.5,3.8,5.3,6.48,6.9c2.68,1.6,5.54,2.4,8.58,2.4s6.04-.78,8.76-2.34c2.72-1.56,4.88-3.8,6.48-6.72,1.6-2.92,2.4-6.42,2.4-10.5s-.8-7.58-2.4-10.5ZM306.31,964.21c-1.6-2.92-3.76-5.16-6.48-6.72-2.72-1.56-5.64-2.34-8.76-2.34s-6,.76-8.64,2.28c-2.64,1.52-4.78,3.74-6.42,6.66-1.64,2.92-2.46,6.38-2.46,10.38s.82,7.5,2.46,10.5,3.8,5.3,6.48,6.9c2.68,1.6,5.54,2.4,8.58,2.4s6.04-.78,8.76-2.34c2.72-1.56,4.88-3.8,6.48-6.72,1.6-2.92,2.4-6.42,2.4-10.5s-.8-7.58-2.4-10.5ZM230.67,960.13c-3.32-3.4-7.38-5.1-12.18-5.1s-8.82,1.7-12.06,5.1c-3.24,3.4-4.86,8.26-4.86,14.58s1.58,11.18,4.74,14.58c3.16,3.4,7.14,5.1,11.94,5.1,3.04,0,5.9-.74,8.58-2.22,2.68-1.48,4.82-3.7,6.42-6.66,1.6-2.96,2.4-6.56,2.4-10.8,0-6.32-1.66-11.18-4.98-14.58ZM110.4,937.87h-13.32v24.36h13.32c4.64,0,8.08-1.06,10.32-3.18s3.36-5.1,3.36-8.94c0-8.16-4.56-12.24-13.68-12.24ZM0,0v1080h1080V0H0ZM193.95,72l-8.55,54h-10.8l8.55-54h10.8ZM139.95,72l20.9,38.57,6.1-38.57h10.8l-8.55,54h-10.8l-20.9-38.57,2.45-15.43ZM80.55,72h10.8l9.79,40.5,22.61-40.5h10.8l-8.55,54h-10.8l4.28-27-15.08,27h-10.8l-6.52-27-4.28,27h-10.8l8.55-54ZM138.18,962.71c-2.12,3.92-5.44,7.08-9.96,9.48-4.52,2.4-10.22,3.6-17.1,3.6h-14.04v32.16h-16.8v-83.76h30.84c6.48,0,12,1.12,16.56,3.36,4.56,2.24,7.98,5.32,10.26,9.24s3.42,8.36,3.42,13.32c0,4.48-1.06,8.68-3.18,12.6ZM183.41,958.15h-4.44c-5.28,0-9.26,1.24-11.94,3.72s-4.02,6.8-4.02,12.96v33.12h-16.8v-66.48h16.8v10.32c2.16-3.52,4.98-6.28,8.46-8.28s7.45-3,11.94-3v17.64ZM248.31,992.71c-3.08,5.2-7.24,9.22-12.48,12.06-5.24,2.84-11.1,4.26-17.58,4.26s-12.16-1.42-17.28-4.26c-5.12-2.84-9.14-6.86-12.06-12.06-2.92-5.2-4.38-11.2-4.38-18s1.5-12.8,4.5-18c3-5.2,7.1-9.22,12.3-12.06,5.2-2.84,11-4.26,17.4-4.26s12.2,1.42,17.4,4.26c5.2,2.84,9.3,6.86,12.3,12.06,3,5.2,4.5,11.2,4.5,18s-1.54,12.8-4.62,18ZM325.63,1007.95h-17.04v-9.84c-2.08,3.28-5,5.92-8.76,7.92s-8.12,3-13.08,3c-5.6,0-10.72-1.44-15.36-4.32-4.64-2.88-8.3-6.94-10.98-12.18-2.68-5.24-4.02-11.26-4.02-18.06s1.34-12.68,4.02-17.88c2.68-5.2,6.34-9.2,10.98-12,4.64-2.8,9.8-4.2,15.48-4.2,4.32,0,8.44.94,12.36,2.82s7.04,4.38,9.36,7.5v-31.56h17.04v88.8ZM399.45,1007.95h-16.92v-8.4c-2.16,2.88-4.98,5.14-8.46,6.78-3.48,1.64-7.26,2.46-11.34,2.46-5.2,0-9.8-1.1-13.8-3.3s-7.14-5.44-9.42-9.72c-2.28-4.28-3.42-9.38-3.42-15.3v-39h16.8v36.6c0,5.28,1.32,9.34,3.96,12.18,2.64,2.84,6.24,4.26,10.8,4.26s8.28-1.42,10.92-4.26c2.64-2.84,3.96-6.9,3.96-12.18v-36.6h16.92v66.48ZM427.99,989.41c2.8,3.48,6.6,5.22,11.4,5.22,6.8,0,11.24-3.04,13.32-9.12h18.12c-1.84,7.2-5.48,12.92-10.92,17.16-5.44,4.24-12.24,6.36-20.4,6.36-6.4,0-12.08-1.42-17.04-4.26-4.96-2.84-8.84-6.84-11.64-12-2.8-5.16-4.2-11.18-4.2-18.06s1.4-12.9,4.2-18.06c2.8-5.16,6.68-9.16,11.64-12,4.96-2.84,10.64-4.26,17.04-4.26,8.24,0,15.06,2.06,20.46,6.18,5.4,4.12,9.02,9.9,10.86,17.34h-18.12c-.96-2.88-2.58-5.14-4.86-6.78-2.28-1.64-5.1-2.46-8.46-2.46-4.8,0-8.6,1.74-11.4,5.22-2.8,3.48-4.2,8.42-4.2,14.82s1.4,11.22,4.2,14.7ZM512,955.27h-14.88v32.16c0,2.24.54,3.86,1.62,4.86s2.9,1.5,5.46,1.5h7.8v14.16h-10.56c-14.16,0-21.24-6.88-21.24-20.64v-32.04h-7.92v-13.8h7.92v-16.44h16.92v16.44h14.88v13.8ZM1008,1008h-58.14v-12.24h37.25l-69.11-69.11,8.65-8.65,69.11,69.11v-37.25h12.24v58.14ZM299.83,957.49c-2.72-1.56-5.64-2.34-8.76-2.34s-6,.76-8.64,2.28c-2.64,1.52-4.78,3.74-6.42,6.66-1.64,2.92-2.46,6.38-2.46,10.38s.82,7.5,2.46,10.5,3.8,5.3,6.48,6.9c2.68,1.6,5.54,2.4,8.58,2.4s6.04-.78,8.76-2.34c2.72-1.56,4.88-3.8,6.48-6.72,1.6-2.92,2.4-6.42,2.4-10.5s-.8-7.58-2.4-10.5c-1.6-2.92-3.76-5.16-6.48-6.72ZM218.49,955.03c-4.8,0-8.82,1.7-12.06,5.1-3.24,3.4-4.86,8.26-4.86,14.58s1.58,11.18,4.74,14.58c3.16,3.4,7.14,5.1,11.94,5.1,3.04,0,5.9-.74,8.58-2.22,2.68-1.48,4.82-3.7,6.42-6.66,1.6-2.96,2.4-6.56,2.4-10.8,0-6.32-1.66-11.18-4.98-14.58-3.32-3.4-7.38-5.1-12.18-5.1ZM110.4,937.87h-13.32v24.36h13.32c4.64,0,8.08-1.06,10.32-3.18s3.36-5.1,3.36-8.94c0-8.16-4.56-12.24-13.68-12.24ZM110.4,937.87h-13.32v24.36h13.32c4.64,0,8.08-1.06,10.32-3.18s3.36-5.1,3.36-8.94c0-8.16-4.56-12.24-13.68-12.24ZM230.67,960.13c-3.32-3.4-7.38-5.1-12.18-5.1s-8.82,1.7-12.06,5.1c-3.24,3.4-4.86,8.26-4.86,14.58s1.58,11.18,4.74,14.58c3.16,3.4,7.14,5.1,11.94,5.1,3.04,0,5.9-.74,8.58-2.22,2.68-1.48,4.82-3.7,6.42-6.66,1.6-2.96,2.4-6.56,2.4-10.8,0-6.32-1.66-11.18-4.98-14.58ZM306.31,964.21c-1.6-2.92-3.76-5.16-6.48-6.72-2.72-1.56-5.64-2.34-8.76-2.34s-6,.76-8.64,2.28c-2.64,1.52-4.78,3.74-6.42,6.66-1.64,2.92-2.46,6.38-2.46,10.38s.82,7.5,2.46,10.5,3.8,5.3,6.48,6.9c2.68,1.6,5.54,2.4,8.58,2.4s6.04-.78,8.76-2.34c2.72-1.56,4.88-3.8,6.48-6.72,1.6-2.92,2.4-6.42,2.4-10.5s-.8-7.58-2.4-10.5ZM306.31,964.21c-1.6-2.92-3.76-5.16-6.48-6.72-2.72-1.56-5.64-2.34-8.76-2.34s-6,.76-8.64,2.28c-2.64,1.52-4.78,3.74-6.42,6.66-1.64,2.92-2.46,6.38-2.46,10.38s.82,7.5,2.46,10.5,3.8,5.3,6.48,6.9c2.68,1.6,5.54,2.4,8.58,2.4s6.04-.78,8.76-2.34c2.72-1.56,4.88-3.8,6.48-6.72,1.6-2.92,2.4-6.42,2.4-10.5s-.8-7.58-2.4-10.5ZM230.67,960.13c-3.32-3.4-7.38-5.1-12.18-5.1s-8.82,1.7-12.06,5.1c-3.24,3.4-4.86,8.26-4.86,14.58s1.58,11.18,4.74,14.58c3.16,3.4,7.14,5.1,11.94,5.1,3.04,0,5.9-.74,8.58-2.22,2.68-1.48,4.82-3.7,6.42-6.66,1.6-2.96,2.4-6.56,2.4-10.8,0-6.32-1.66-11.18-4.98-14.58ZM110.4,937.87h-13.32v24.36h13.32c4.64,0,8.08-1.06,10.32-3.18s3.36-5.1,3.36-8.94c0-8.16-4.56-12.24-13.68-12.24ZM110.4,937.87h-13.32v24.36h13.32c4.64,0,8.08-1.06,10.32-3.18s3.36-5.1,3.36-8.94c0-8.16-4.56-12.24-13.68-12.24ZM230.67,960.13c-3.32-3.4-7.38-5.1-12.18-5.1s-8.82,1.7-12.06,5.1c-3.24,3.4-4.86,8.26-4.86,14.58s1.58,11.18,4.74,14.58c3.16,3.4,7.14,5.1,11.94,5.1,3.04,0,5.9-.74,8.58-2.22,2.68-1.48,4.82-3.7,6.42-6.66,1.6-2.96,2.4-6.56,2.4-10.8,0-6.32-1.66-11.18-4.98-14.58ZM306.31,964.21c-1.6-2.92-3.76-5.16-6.48-6.72-2.72-1.56-5.64-2.34-8.76-2.34s-6,.76-8.64,2.28c-2.64,1.52-4.78,3.74-6.42,6.66-1.64,2.92-2.46,6.38-2.46,10.38s.82,7.5,2.46,10.5,3.8,5.3,6.48,6.9c2.68,1.6,5.54,2.4,8.58,2.4s6.04-.78,8.76-2.34c2.72-1.56,4.88-3.8,6.48-6.72,1.6-2.92,2.4-6.42,2.4-10.5s-.8-7.58-2.4-10.5ZM306.31,964.21c-1.6-2.92-3.76-5.16-6.48-6.72-2.72-1.56-5.64-2.34-8.76-2.34s-6,.76-8.64,2.28c-2.64,1.52-4.78,3.74-6.42,6.66-1.64,2.92-2.46,6.38-2.46,10.38s.82,7.5,2.46,10.5,3.8,5.3,6.48,6.9c2.68,1.6,5.54,2.4,8.58,2.4s6.04-.78,8.76-2.34c2.72-1.56,4.88-3.8,6.48-6.72,1.6-2.92,2.4-6.42,2.4-10.5s-.8-7.58-2.4-10.5ZM230.67,960.13c-3.32-3.4-7.38-5.1-12.18-5.1s-8.82,1.7-12.06,5.1c-3.24,3.4-4.86,8.26-4.86,14.58s1.58,11.18,4.74,14.58c3.16,3.4,7.14,5.1,11.94,5.1,3.04,0,5.9-.74,8.58-2.22,2.68-1.48,4.82-3.7,6.42-6.66,1.6-2.96,2.4-6.56,2.4-10.8,0-6.32-1.66-11.18-4.98-14.58ZM110.4,937.87h-13.32v24.36h13.32c4.64,0,8.08-1.06,10.32-3.18s3.36-5.1,3.36-8.94c0-8.16-4.56-12.24-13.68-12.24ZM110.4,937.87h-13.32v24.36h13.32c4.64,0,8.08-1.06,10.32-3.18s3.36-5.1,3.36-8.94c0-8.16-4.56-12.24-13.68-12.24ZM110.4,937.87h-13.32v24.36h13.32c4.64,0,8.08-1.06,10.32-3.18s3.36-5.1,3.36-8.94c0-8.16-4.56-12.24-13.68-12.24Z"/>
  </g>
</svg>