<?xml version="1.0" encoding="UTF-8"?>
<svg id="Layer_1" xmlns="http://www.w3.org/2000/svg" version="1.1" viewBox="0 0 1080 1080">
  <!-- Generator: Adobe Illustrator 29.4.0, SVG Export Plug-In . SVG Version: 2.1.0 Build 152)  -->
  <defs>
    <style>
      .st0 {
        fill: #f60;
      }

      .st1 {
        fill: #f9f9f9;
      }

      .st2 {
        isolation: isolate;
      }

      .st3 {
        fill: #036;
      }
    </style>
  </defs>
  <g id="coverDesign101">
    <rect class="st1" width="1080" height="1080"/>
    <g id="Design101">
      <g class="st2">
        <g class="st2">
          <path class="st3" d="M467.58,967.65c2.67,1.38,4.74,3.34,6.19,5.88,1.46,2.54,2.18,5.5,2.18,8.86s-.73,6.3-2.18,8.81c-1.46,2.51-3.52,4.46-6.19,5.83-2.67,1.38-5.77,2.06-9.29,2.06h-11.71v-33.5h11.71c3.52,0,6.62.69,9.29,2.06ZM466.21,990.5c1.92-1.92,2.88-4.62,2.88-8.11s-.96-6.22-2.88-8.18c-1.92-1.97-4.64-2.95-8.16-2.95h-4.75v22.13h4.75c3.52,0,6.24-.96,8.16-2.88Z"/>
        </g>
        <g class="st2">
          <path class="st3" d="M504.11,987.81h-19.44c.16,1.92.83,3.42,2.02,4.51,1.18,1.09,2.64,1.63,4.37,1.63,2.5,0,4.27-1.07,5.33-3.22h7.25c-.77,2.56-2.24,4.66-4.42,6.31-2.18,1.65-4.85,2.47-8.02,2.47-2.56,0-4.86-.57-6.89-1.7-2.03-1.13-3.62-2.74-4.75-4.82-1.14-2.08-1.7-4.48-1.7-7.2s.56-5.17,1.68-7.25c1.12-2.08,2.69-3.68,4.7-4.8,2.02-1.12,4.34-1.68,6.96-1.68s4.79.54,6.79,1.63c2,1.09,3.55,2.63,4.66,4.63s1.66,4.3,1.66,6.89c0,.96-.06,1.82-.19,2.59ZM497.34,983.3c-.03-1.73-.66-3.11-1.87-4.15-1.22-1.04-2.7-1.56-4.46-1.56-1.66,0-3.06.5-4.2,1.51-1.14,1.01-1.83,2.41-2.09,4.2h12.62Z"/>
        </g>
        <g class="st2">
          <path class="st3" d="M511.59,998.35c-1.73-.78-3.1-1.85-4.1-3.19-1.01-1.34-1.56-2.83-1.66-4.46h6.77c.13,1.02.63,1.87,1.51,2.54.88.67,1.98,1.01,3.29,1.01s2.28-.26,3-.77c.72-.51,1.08-1.17,1.08-1.97,0-.86-.44-1.51-1.32-1.94-.88-.43-2.28-.9-4.2-1.42-1.98-.48-3.61-.98-4.87-1.49-1.26-.51-2.35-1.3-3.26-2.35-.91-1.06-1.37-2.48-1.37-4.27,0-1.47.42-2.82,1.27-4.03.85-1.22,2.06-2.18,3.65-2.88s3.45-1.06,5.59-1.06c3.17,0,5.7.79,7.58,2.38s2.93,3.72,3.12,6.41h-6.43c-.1-1.06-.54-1.9-1.32-2.52-.78-.62-1.83-.94-3.14-.94-1.22,0-2.15.22-2.81.67-.66.45-.98,1.07-.98,1.87,0,.9.45,1.58,1.34,2.04.9.46,2.29.94,4.18,1.42,1.92.48,3.5.98,4.75,1.49,1.25.51,2.33,1.3,3.24,2.38.91,1.07,1.38,2.49,1.42,4.25,0,1.54-.42,2.91-1.27,4.13-.85,1.22-2.06,2.17-3.65,2.86-1.58.69-3.43,1.03-5.54,1.03s-4.13-.39-5.86-1.18Z"/>
        </g>
        <g class="st2">
          <path class="st3" d="M531.94,968.21c-.78-.75-1.18-1.69-1.18-2.81s.39-2.06,1.18-2.81c.78-.75,1.77-1.13,2.95-1.13s2.17.38,2.95,1.13c.78.75,1.18,1.69,1.18,2.81s-.39,2.06-1.18,2.81c-.78.75-1.77,1.13-2.95,1.13s-2.17-.38-2.95-1.13ZM538.2,972.5v26.59h-6.72v-26.59h6.72Z"/>
        </g>
        <g class="st2">
          <path class="st3" d="M558.71,973.25c1.5.78,2.69,1.8,3.55,3.05v-3.79h6.77v26.78c0,2.46-.5,4.66-1.49,6.6-.99,1.94-2.48,3.47-4.46,4.61-1.98,1.13-4.38,1.7-7.2,1.7-3.78,0-6.87-.88-9.29-2.64s-3.78-4.16-4.1-7.2h6.67c.35,1.22,1.11,2.18,2.28,2.9s2.58,1.08,4.25,1.08c1.95,0,3.54-.58,4.75-1.75,1.22-1.17,1.82-2.94,1.82-5.3v-4.13c-.86,1.25-2.06,2.29-3.58,3.12-1.52.83-3.26,1.25-5.21,1.25-2.24,0-4.29-.58-6.14-1.73-1.86-1.15-3.32-2.78-4.39-4.87-1.07-2.1-1.61-4.5-1.61-7.22s.54-5.07,1.61-7.15,2.53-3.68,4.37-4.8c1.84-1.12,3.89-1.68,6.17-1.68,1.98,0,3.73.39,5.23,1.18ZM561.3,981.6c-.64-1.17-1.5-2.06-2.59-2.69-1.09-.62-2.26-.94-3.5-.94s-2.4.3-3.46.91c-1.06.61-1.91,1.5-2.57,2.66s-.98,2.55-.98,4.15.33,3,.98,4.2c.66,1.2,1.52,2.12,2.59,2.76,1.07.64,2.22.96,3.43.96s2.42-.31,3.5-.94c1.09-.62,1.95-1.52,2.59-2.69s.96-2.57.96-4.2-.32-3.03-.96-4.2Z"/>
        </g>
        <g class="st2">
          <path class="st3" d="M596.15,975.12c1.95,2,2.93,4.79,2.93,8.38v15.6h-6.72v-14.69c0-2.11-.53-3.74-1.58-4.87-1.06-1.14-2.5-1.7-4.32-1.7s-3.32.57-4.39,1.7c-1.07,1.14-1.61,2.76-1.61,4.87v14.69h-6.72v-26.59h6.72v3.31c.9-1.15,2.04-2.06,3.43-2.71,1.39-.66,2.92-.98,4.58-.98,3.17,0,5.73,1,7.68,3Z"/>
        </g>
      </g>
      <g class="st2">
        <g class="st2">
          <path class="st0" d="M601.79,966.41v-3.59h6.71v20.29h-4.01v-16.7h-2.7Z"/>
        </g>
        <g class="st2">
          <path class="st0" d="M613.15,965.16c1.16-1.82,3.08-2.73,5.78-2.73s4.62.91,5.78,2.73c1.16,1.82,1.74,4.33,1.74,7.54s-.58,5.76-1.74,7.6c-1.16,1.84-3.09,2.76-5.78,2.76s-4.62-.92-5.78-2.76c-1.16-1.84-1.74-4.37-1.74-7.6s.58-5.73,1.74-7.54ZM622.34,969.24c-.18-.94-.53-1.7-1.06-2.3s-1.31-.89-2.35-.89-1.82.3-2.35.89c-.53.59-.88,1.36-1.06,2.3-.18.94-.26,2.09-.26,3.47s.08,2.59.25,3.55.52,1.73,1.06,2.31c.54.58,1.33.88,2.37.88s1.83-.29,2.37-.88.89-1.35,1.06-2.31.25-2.14.25-3.55-.09-2.53-.26-3.47Z"/>
        </g>
        <g class="st2">
          <path class="st0" d="M627.47,966.41v-3.59h6.71v20.29h-4.01v-16.7h-2.7Z"/>
        </g>
      </g>
    </g>
    <g id="MNI">
      <polygon class="st0" points="679.38 480 655.63 630 685.63 630 709.38 480 679.38 480"/>
      <polygon class="st3" points="451.57 592.5 424.38 480 394.38 480 370.62 630 400.63 630 412.5 555 430.63 630 460.63 630 502.5 555 490.63 630 520.62 630 544.38 480 514.37 480 451.57 592.5"/>
      <polygon class="st3" points="634.38 480 617.42 587.14 559.38 480 552.58 522.86 610.63 630 640.63 630 664.38 480 634.38 480"/>
    </g>
  </g>
</svg>