<?xml version="1.0" encoding="UTF-8"?>
<svg id="Layer_1" data-name="Layer 1" xmlns="http://www.w3.org/2000/svg" viewBox="0 0 1080 1080">
  <defs>
    <style>
      .cls-1 {
        fill: #f60;
      }
    </style>
  </defs>
  <g id="coverBrandGuidelines">
    <path class="cls-1" d="M121.68,830.51c-2.16-1.84-5.24-2.76-9.24-2.76h-15.36v21h15.36c4,0,7.08-.9,9.24-2.7,2.16-1.8,3.24-4.38,3.24-7.74s-1.08-5.96-3.24-7.8ZM123.36,864.77c-2.4-2.04-5.64-3.06-9.72-3.06h-16.56v22.56h16.92c4.08,0,7.26-.96,9.54-2.88,2.28-1.92,3.42-4.64,3.42-8.16s-1.2-6.42-3.6-8.46ZM123.36,864.77c-2.4-2.04-5.64-3.06-9.72-3.06h-16.56v22.56h16.92c4.08,0,7.26-.96,9.54-2.88,2.28-1.92,3.42-4.64,3.42-8.16s-1.2-6.42-3.6-8.46ZM121.68,830.51c-2.16-1.84-5.24-2.76-9.24-2.76h-15.36v21h15.36c4,0,7.08-.9,9.24-2.7,2.16-1.8,3.24-4.38,3.24-7.74s-1.08-5.96-3.24-7.8ZM121.68,830.51c-2.16-1.84-5.24-2.76-9.24-2.76h-15.36v21h15.36c4,0,7.08-.9,9.24-2.7,2.16-1.8,3.24-4.38,3.24-7.74s-1.08-5.96-3.24-7.8ZM123.36,864.77c-2.4-2.04-5.64-3.06-9.72-3.06h-16.56v22.56h16.92c4.08,0,7.26-.96,9.54-2.88,2.28-1.92,3.42-4.64,3.42-8.16s-1.2-6.42-3.6-8.46ZM219.77,869.39c-3.84,0-6.71.76-8.58,2.28-1.89,1.52-2.82,3.52-2.82,6s.85,4.32,2.58,5.76c1.72,1.44,4.14,2.16,7.26,2.16,2.79,0,5.53-.6,8.22-1.8,2.68-1.2,4.9-3,6.66-5.4,1.75-2.4,2.64-5.24,2.64-8.52v-.48h-15.96ZM219.77,869.39c-3.84,0-6.71.76-8.58,2.28-1.89,1.52-2.82,3.52-2.82,6s.85,4.32,2.58,5.76c1.72,1.44,4.14,2.16,7.26,2.16,2.79,0,5.53-.6,8.22-1.8,2.68-1.2,4.9-3,6.66-5.4,1.75-2.4,2.64-5.24,2.64-8.52v-.48h-15.96ZM123.36,864.77c-2.4-2.04-5.64-3.06-9.72-3.06h-16.56v22.56h16.92c4.08,0,7.26-.96,9.54-2.88,2.28-1.92,3.42-4.64,3.42-8.16s-1.2-6.42-3.6-8.46ZM121.68,830.51c-2.16-1.84-5.24-2.76-9.24-2.76h-15.36v21h15.36c4,0,7.08-.9,9.24-2.7,2.16-1.8,3.24-4.38,3.24-7.74s-1.08-5.96-3.24-7.8ZM121.68,830.51c-2.16-1.84-5.24-2.76-9.24-2.76h-15.36v21h15.36c4,0,7.08-.9,9.24-2.7,2.16-1.8,3.24-4.38,3.24-7.74s-1.08-5.96-3.24-7.8ZM123.36,864.77c-2.4-2.04-5.64-3.06-9.72-3.06h-16.56v22.56h16.92c4.08,0,7.26-.96,9.54-2.88,2.28-1.92,3.42-4.64,3.42-8.16s-1.2-6.42-3.6-8.46ZM219.77,869.39c-3.84,0-6.71.76-8.58,2.28-1.89,1.52-2.82,3.52-2.82,6s.85,4.32,2.58,5.76c1.72,1.44,4.14,2.16,7.26,2.16,2.79,0,5.53-.6,8.22-1.8,2.68-1.2,4.9-3,6.66-5.4,1.75-2.4,2.64-5.24,2.64-8.52v-.48h-15.96ZM383.56,854.21c-1.6-2.92-3.76-5.16-6.48-6.72-2.72-1.56-5.64-2.34-8.76-2.34s-6,.76-8.64,2.28c-2.64,1.52-4.78,3.74-6.42,6.66-1.64,2.92-2.46,6.38-2.46,10.38s.82,7.5,2.46,10.5,3.8,5.3,6.48,6.9c2.68,1.6,5.54,2.4,8.58,2.4s6.04-.78,8.76-2.34c2.72-1.56,4.88-3.8,6.48-6.72,1.6-2.92,2.4-6.42,2.4-10.5s-.8-7.58-2.4-10.5ZM383.56,854.21c-1.6-2.92-3.76-5.16-6.48-6.72-2.72-1.56-5.64-2.34-8.76-2.34s-6,.76-8.64,2.28c-2.64,1.52-4.78,3.74-6.42,6.66-1.64,2.92-2.46,6.38-2.46,10.38s.82,7.5,2.46,10.5,3.8,5.3,6.48,6.9c2.68,1.6,5.54,2.4,8.58,2.4s6.04-.78,8.76-2.34c2.72-1.56,4.88-3.8,6.48-6.72,1.6-2.92,2.4-6.42,2.4-10.5s-.8-7.58-2.4-10.5ZM219.77,869.39c-3.84,0-6.71.76-8.58,2.28-1.89,1.52-2.82,3.52-2.82,6s.85,4.32,2.58,5.76c1.72,1.44,4.14,2.16,7.26,2.16,2.79,0,5.53-.6,8.22-1.8,2.68-1.2,4.9-3,6.66-5.4,1.75-2.4,2.64-5.24,2.64-8.52v-.48h-15.96ZM123.36,864.77c-2.4-2.04-5.64-3.06-9.72-3.06h-16.56v22.56h16.92c4.08,0,7.26-.96,9.54-2.88,2.28-1.92,3.42-4.64,3.42-8.16s-1.2-6.42-3.6-8.46ZM121.68,830.51c-2.16-1.84-5.24-2.76-9.24-2.76h-15.36v21h15.36c4,0,7.08-.9,9.24-2.7,2.16-1.8,3.24-4.38,3.24-7.74s-1.08-5.96-3.24-7.8ZM121.68,830.51c-2.16-1.84-5.24-2.76-9.24-2.76h-15.36v21h15.36c4,0,7.08-.9,9.24-2.7,2.16-1.8,3.24-4.38,3.24-7.74s-1.08-5.96-3.24-7.8ZM123.36,864.77c-2.4-2.04-5.64-3.06-9.72-3.06h-16.56v22.56h16.92c4.08,0,7.26-.96,9.54-2.88,2.28-1.92,3.42-4.64,3.42-8.16s-1.2-6.42-3.6-8.46ZM219.77,869.39c-3.84,0-6.71.76-8.58,2.28-1.89,1.52-2.82,3.52-2.82,6s.85,4.32,2.58,5.76c1.72,1.44,4.14,2.16,7.26,2.16,2.79,0,5.53-.6,8.22-1.8,2.68-1.2,4.9-3,6.66-5.4,1.75-2.4,2.64-5.24,2.64-8.52v-.48h-15.96ZM383.56,854.21c-1.6-2.92-3.76-5.16-6.48-6.72-2.72-1.56-5.64-2.34-8.76-2.34s-6,.76-8.64,2.28c-2.64,1.52-4.78,3.74-6.42,6.66-1.64,2.92-2.46,6.38-2.46,10.38s.82,7.5,2.46,10.5,3.8,5.3,6.48,6.9c2.68,1.6,5.54,2.4,8.58,2.4s6.04-.78,8.76-2.34c2.72-1.56,4.88-3.8,6.48-6.72,1.6-2.92,2.4-6.42,2.4-10.5s-.8-7.58-2.4-10.5ZM383.56,854.21c-1.6-2.92-3.76-5.16-6.48-6.72-2.72-1.56-5.64-2.34-8.76-2.34s-6,.76-8.64,2.28c-2.64,1.52-4.78,3.74-6.42,6.66-1.64,2.92-2.46,6.38-2.46,10.38s.82,7.5,2.46,10.5,3.8,5.3,6.48,6.9c2.68,1.6,5.54,2.4,8.58,2.4s6.04-.78,8.76-2.34c2.72-1.56,4.88-3.8,6.48-6.72,1.6-2.92,2.4-6.42,2.4-10.5s-.8-7.58-2.4-10.5ZM219.77,869.39c-3.84,0-6.71.76-8.58,2.28-1.89,1.52-2.82,3.52-2.82,6s.85,4.32,2.58,5.76c1.72,1.44,4.14,2.16,7.26,2.16,2.79,0,5.53-.6,8.22-1.8,2.68-1.2,4.9-3,6.66-5.4,1.75-2.4,2.64-5.24,2.64-8.52v-.48h-15.96ZM123.36,864.77c-2.4-2.04-5.64-3.06-9.72-3.06h-16.56v22.56h16.92c4.08,0,7.26-.96,9.54-2.88,2.28-1.92,3.42-4.64,3.42-8.16s-1.2-6.42-3.6-8.46ZM121.68,830.51c-2.16-1.84-5.24-2.76-9.24-2.76h-15.36v21h15.36c4,0,7.08-.9,9.24-2.7,2.16-1.8,3.24-4.38,3.24-7.74s-1.08-5.96-3.24-7.8ZM121.68,830.51c-2.16-1.84-5.24-2.76-9.24-2.76h-15.36v21h15.36c4,0,7.08-.9,9.24-2.7,2.16-1.8,3.24-4.38,3.24-7.74s-1.08-5.96-3.24-7.8ZM123.36,864.77c-2.4-2.04-5.64-3.06-9.72-3.06h-16.56v22.56h16.92c4.08,0,7.26-.96,9.54-2.88,2.28-1.92,3.42-4.64,3.42-8.16s-1.2-6.42-3.6-8.46ZM219.77,869.39c-3.84,0-6.71.76-8.58,2.28-1.89,1.52-2.82,3.52-2.82,6s.85,4.32,2.58,5.76c1.72,1.44,4.14,2.16,7.26,2.16,2.79,0,5.53-.6,8.22-1.8,2.68-1.2,4.9-3,6.66-5.4,1.75-2.4,2.64-5.24,2.64-8.52v-.48h-15.96ZM383.56,854.21c-1.6-2.92-3.76-5.16-6.48-6.72-2.72-1.56-5.64-2.34-8.76-2.34s-6,.76-8.64,2.28c-2.64,1.52-4.78,3.74-6.42,6.66-1.64,2.92-2.46,6.38-2.46,10.38s.82,7.5,2.46,10.5,3.8,5.3,6.48,6.9c2.68,1.6,5.54,2.4,8.58,2.4s6.04-.78,8.76-2.34c2.72-1.56,4.88-3.8,6.48-6.72,1.6-2.92,2.4-6.42,2.4-10.5s-.8-7.58-2.4-10.5ZM383.56,854.21c-1.6-2.92-3.76-5.16-6.48-6.72-2.72-1.56-5.64-2.34-8.76-2.34s-6,.76-8.64,2.28c-2.64,1.52-4.78,3.74-6.42,6.66-1.64,2.92-2.46,6.38-2.46,10.38s.82,7.5,2.46,10.5,3.8,5.3,6.48,6.9c2.68,1.6,5.54,2.4,8.58,2.4s6.04-.78,8.76-2.34c2.72-1.56,4.88-3.8,6.48-6.72,1.6-2.92,2.4-6.42,2.4-10.5s-.8-7.58-2.4-10.5ZM219.77,869.39c-3.84,0-6.71.76-8.58,2.28-1.89,1.52-2.82,3.52-2.82,6s.85,4.32,2.58,5.76c1.72,1.44,4.14,2.16,7.26,2.16,2.79,0,5.53-.6,8.22-1.8,2.68-1.2,4.9-3,6.66-5.4,1.75-2.4,2.64-5.24,2.64-8.52v-.48h-15.96ZM123.36,864.77c-2.4-2.04-5.64-3.06-9.72-3.06h-16.56v22.56h16.92c4.08,0,7.26-.96,9.54-2.88,2.28-1.92,3.42-4.64,3.42-8.16s-1.2-6.42-3.6-8.46ZM121.68,830.51c-2.16-1.84-5.24-2.76-9.24-2.76h-15.36v21h15.36c4,0,7.08-.9,9.24-2.7,2.16-1.8,3.24-4.38,3.24-7.74s-1.08-5.96-3.24-7.8ZM121.68,830.51c-2.16-1.84-5.24-2.76-9.24-2.76h-15.36v21h15.36c4,0,7.08-.9,9.24-2.7,2.16-1.8,3.24-4.38,3.24-7.74s-1.08-5.96-3.24-7.8ZM123.36,864.77c-2.4-2.04-5.64-3.06-9.72-3.06h-16.56v22.56h16.92c4.08,0,7.26-.96,9.54-2.88,2.28-1.92,3.42-4.64,3.42-8.16s-1.2-6.42-3.6-8.46ZM219.77,869.39c-3.84,0-6.71.76-8.58,2.28-1.89,1.52-2.82,3.52-2.82,6s.85,4.32,2.58,5.76c1.72,1.44,4.14,2.16,7.26,2.16,2.79,0,5.53-.6,8.22-1.8,2.68-1.2,4.9-3,6.66-5.4,1.75-2.4,2.64-5.24,2.64-8.52v-.48h-15.96ZM315.8,964.21c-1.6-2.92-3.76-5.16-6.48-6.72s-5.64-2.34-8.76-2.34-6,.76-8.64,2.28c-2.64,1.52-4.78,3.74-6.42,6.66-1.64,2.92-2.46,6.38-2.46,10.38s.82,7.5,2.46,10.5,3.8,5.3,6.48,6.9c2.68,1.6,5.54,2.4,8.58,2.4s6.04-.78,8.76-2.34,4.88-3.8,6.48-6.72c1.6-2.92,2.4-6.42,2.4-10.5s-.8-7.58-2.4-10.5ZM383.56,854.21c-1.6-2.92-3.76-5.16-6.48-6.72-2.72-1.56-5.64-2.34-8.76-2.34s-6,.76-8.64,2.28c-2.64,1.52-4.78,3.74-6.42,6.66-1.64,2.92-2.46,6.38-2.46,10.38s.82,7.5,2.46,10.5,3.8,5.3,6.48,6.9c2.68,1.6,5.54,2.4,8.58,2.4s6.04-.78,8.76-2.34c2.72-1.56,4.88-3.8,6.48-6.72,1.6-2.92,2.4-6.42,2.4-10.5s-.8-7.58-2.4-10.5ZM386.29,958.09c-3.04-2.6-6.76-3.9-11.16-3.9-4.16,0-7.66,1.26-10.5,3.78-2.84,2.52-4.58,6.02-5.22,10.5h31.56c-.08-4.32-1.64-7.78-4.68-10.38ZM386.29,958.09c-3.04-2.6-6.76-3.9-11.16-3.9-4.16,0-7.66,1.26-10.5,3.78-2.84,2.52-4.58,6.02-5.22,10.5h31.56c-.08-4.32-1.64-7.78-4.68-10.38ZM383.56,854.21c-1.6-2.92-3.76-5.16-6.48-6.72-2.72-1.56-5.64-2.34-8.76-2.34s-6,.76-8.64,2.28c-2.64,1.52-4.78,3.74-6.42,6.66-1.64,2.92-2.46,6.38-2.46,10.38s.82,7.5,2.46,10.5,3.8,5.3,6.48,6.9c2.68,1.6,5.54,2.4,8.58,2.4s6.04-.78,8.76-2.34c2.72-1.56,4.88-3.8,6.48-6.72,1.6-2.92,2.4-6.42,2.4-10.5s-.8-7.58-2.4-10.5ZM315.8,964.21c-1.6-2.92-3.76-5.16-6.48-6.72s-5.64-2.34-8.76-2.34-6,.76-8.64,2.28c-2.64,1.52-4.78,3.74-6.42,6.66-1.64,2.92-2.46,6.38-2.46,10.38s.82,7.5,2.46,10.5,3.8,5.3,6.48,6.9c2.68,1.6,5.54,2.4,8.58,2.4s6.04-.78,8.76-2.34,4.88-3.8,6.48-6.72c1.6-2.92,2.4-6.42,2.4-10.5s-.8-7.58-2.4-10.5ZM219.77,869.39c-3.84,0-6.71.76-8.58,2.28-1.89,1.52-2.82,3.52-2.82,6s.85,4.32,2.58,5.76c1.72,1.44,4.14,2.16,7.26,2.16,2.79,0,5.53-.6,8.22-1.8,2.68-1.2,4.9-3,6.66-5.4,1.75-2.4,2.64-5.24,2.64-8.52v-.48h-15.96ZM123.36,864.77c-2.4-2.04-5.64-3.06-9.72-3.06h-16.56v22.56h16.92c4.08,0,7.26-.96,9.54-2.88,2.28-1.92,3.42-4.64,3.42-8.16s-1.2-6.42-3.6-8.46ZM121.68,830.51c-2.16-1.84-5.24-2.76-9.24-2.76h-15.36v21h15.36c4,0,7.08-.9,9.24-2.7,2.16-1.8,3.24-4.38,3.24-7.74s-1.08-5.96-3.24-7.8ZM121.68,830.51c-2.16-1.84-5.24-2.76-9.24-2.76h-15.36v21h15.36c4,0,7.08-.9,9.24-2.7,2.16-1.8,3.24-4.38,3.24-7.74s-1.08-5.96-3.24-7.8ZM123.36,864.77c-2.4-2.04-5.64-3.06-9.72-3.06h-16.56v22.56h16.92c4.08,0,7.26-.96,9.54-2.88,2.28-1.92,3.42-4.64,3.42-8.16s-1.2-6.42-3.6-8.46ZM219.77,869.39c-3.84,0-6.71.76-8.58,2.28-1.89,1.52-2.82,3.52-2.82,6s.85,4.32,2.58,5.76c1.72,1.44,4.14,2.16,7.26,2.16,2.79,0,5.53-.6,8.22-1.8,2.68-1.2,4.9-3,6.66-5.4,1.75-2.4,2.64-5.24,2.64-8.52v-.48h-15.96ZM315.8,964.21c-1.6-2.92-3.76-5.16-6.48-6.72s-5.64-2.34-8.76-2.34-6,.76-8.64,2.28c-2.64,1.52-4.78,3.74-6.42,6.66-1.64,2.92-2.46,6.38-2.46,10.38s.82,7.5,2.46,10.5,3.8,5.3,6.48,6.9c2.68,1.6,5.54,2.4,8.58,2.4s6.04-.78,8.76-2.34,4.88-3.8,6.48-6.72c1.6-2.92,2.4-6.42,2.4-10.5s-.8-7.58-2.4-10.5ZM383.56,854.21c-1.6-2.92-3.76-5.16-6.48-6.72-2.72-1.56-5.64-2.34-8.76-2.34s-6,.76-8.64,2.28c-2.64,1.52-4.78,3.74-6.42,6.66-1.64,2.92-2.46,6.38-2.46,10.38s.82,7.5,2.46,10.5,3.8,5.3,6.48,6.9c2.68,1.6,5.54,2.4,8.58,2.4s6.04-.78,8.76-2.34c2.72-1.56,4.88-3.8,6.48-6.72,1.6-2.92,2.4-6.42,2.4-10.5s-.8-7.58-2.4-10.5ZM386.29,958.09c-3.04-2.6-6.76-3.9-11.16-3.9-4.16,0-7.66,1.26-10.5,3.78-2.84,2.52-4.58,6.02-5.22,10.5h31.56c-.08-4.32-1.64-7.78-4.68-10.38ZM386.29,958.09c-3.04-2.6-6.76-3.9-11.16-3.9-4.16,0-7.66,1.26-10.5,3.78-2.84,2.52-4.58,6.02-5.22,10.5h31.56c-.08-4.32-1.64-7.78-4.68-10.38ZM383.56,854.21c-1.6-2.92-3.76-5.16-6.48-6.72-2.72-1.56-5.64-2.34-8.76-2.34s-6,.76-8.64,2.28c-2.64,1.52-4.78,3.74-6.42,6.66-1.64,2.92-2.46,6.38-2.46,10.38s.82,7.5,2.46,10.5,3.8,5.3,6.48,6.9c2.68,1.6,5.54,2.4,8.58,2.4s6.04-.78,8.76-2.34c2.72-1.56,4.88-3.8,6.48-6.72,1.6-2.92,2.4-6.42,2.4-10.5s-.8-7.58-2.4-10.5ZM315.8,964.21c-1.6-2.92-3.76-5.16-6.48-6.72s-5.64-2.34-8.76-2.34-6,.76-8.64,2.28c-2.64,1.52-4.78,3.74-6.42,6.66-1.64,2.92-2.46,6.38-2.46,10.38s.82,7.5,2.46,10.5,3.8,5.3,6.48,6.9c2.68,1.6,5.54,2.4,8.58,2.4s6.04-.78,8.76-2.34,4.88-3.8,6.48-6.72c1.6-2.92,2.4-6.42,2.4-10.5s-.8-7.58-2.4-10.5ZM219.77,869.39c-3.84,0-6.71.76-8.58,2.28-1.89,1.52-2.82,3.52-2.82,6s.85,4.32,2.58,5.76c1.72,1.44,4.14,2.16,7.26,2.16,2.79,0,5.53-.6,8.22-1.8,2.68-1.2,4.9-3,6.66-5.4,1.75-2.4,2.64-5.24,2.64-8.52v-.48h-15.96ZM123.36,864.77c-2.4-2.04-5.64-3.06-9.72-3.06h-16.56v22.56h16.92c4.08,0,7.26-.96,9.54-2.88,2.28-1.92,3.42-4.64,3.42-8.16s-1.2-6.42-3.6-8.46ZM121.68,830.51c-2.16-1.84-5.24-2.76-9.24-2.76h-15.36v21h15.36c4,0,7.08-.9,9.24-2.7,2.16-1.8,3.24-4.38,3.24-7.74s-1.08-5.96-3.24-7.8ZM121.68,830.51c-2.16-1.84-5.24-2.76-9.24-2.76h-15.36v21h15.36c4,0,7.08-.9,9.24-2.7,2.16-1.8,3.24-4.38,3.24-7.74s-1.08-5.96-3.24-7.8ZM123.36,864.77c-2.4-2.04-5.64-3.06-9.72-3.06h-16.56v22.56h16.92c4.08,0,7.26-.96,9.54-2.88,2.28-1.92,3.42-4.64,3.42-8.16s-1.2-6.42-3.6-8.46ZM219.77,869.39c-3.84,0-6.71.76-8.58,2.28-1.89,1.52-2.82,3.52-2.82,6s.85,4.32,2.58,5.76c1.72,1.44,4.14,2.16,7.26,2.16,2.79,0,5.53-.6,8.22-1.8,2.68-1.2,4.9-3,6.66-5.4,1.75-2.4,2.64-5.24,2.64-8.52v-.48h-15.96ZM315.8,964.21c-1.6-2.92-3.76-5.16-6.48-6.72s-5.64-2.34-8.76-2.34-6,.76-8.64,2.28c-2.64,1.52-4.78,3.74-6.42,6.66-1.64,2.92-2.46,6.38-2.46,10.38s.82,7.5,2.46,10.5,3.8,5.3,6.48,6.9c2.68,1.6,5.54,2.4,8.58,2.4s6.04-.78,8.76-2.34,4.88-3.8,6.48-6.72c1.6-2.92,2.4-6.42,2.4-10.5s-.8-7.58-2.4-10.5ZM383.56,854.21c-1.6-2.92-3.76-5.16-6.48-6.72-2.72-1.56-5.64-2.34-8.76-2.34s-6,.76-8.64,2.28c-2.64,1.52-4.78,3.74-6.42,6.66-1.64,2.92-2.46,6.38-2.46,10.38s.82,7.5,2.46,10.5,3.8,5.3,6.48,6.9c2.68,1.6,5.54,2.4,8.58,2.4s6.04-.78,8.76-2.34c2.72-1.56,4.88-3.8,6.48-6.72,1.6-2.92,2.4-6.42,2.4-10.5s-.8-7.58-2.4-10.5ZM386.29,958.09c-3.04-2.6-6.76-3.9-11.16-3.9-4.16,0-7.66,1.26-10.5,3.78-2.84,2.52-4.58,6.02-5.22,10.5h31.56c-.08-4.32-1.64-7.78-4.68-10.38ZM386.29,958.09c-3.04-2.6-6.76-3.9-11.16-3.9-4.16,0-7.66,1.26-10.5,3.78-2.84,2.52-4.58,6.02-5.22,10.5h31.56c-.08-4.32-1.64-7.78-4.68-10.38ZM383.56,854.21c-1.6-2.92-3.76-5.16-6.48-6.72-2.72-1.56-5.64-2.34-8.76-2.34s-6,.76-8.64,2.28c-2.64,1.52-4.78,3.74-6.42,6.66-1.64,2.92-2.46,6.38-2.46,10.38s.82,7.5,2.46,10.5,3.8,5.3,6.48,6.9c2.68,1.6,5.54,2.4,8.58,2.4s6.04-.78,8.76-2.34c2.72-1.56,4.88-3.8,6.48-6.72,1.6-2.92,2.4-6.42,2.4-10.5s-.8-7.58-2.4-10.5ZM315.8,964.21c-1.6-2.92-3.76-5.16-6.48-6.72s-5.64-2.34-8.76-2.34-6,.76-8.64,2.28c-2.64,1.52-4.78,3.74-6.42,6.66-1.64,2.92-2.46,6.38-2.46,10.38s.82,7.5,2.46,10.5,3.8,5.3,6.48,6.9c2.68,1.6,5.54,2.4,8.58,2.4s6.04-.78,8.76-2.34,4.88-3.8,6.48-6.72c1.6-2.92,2.4-6.42,2.4-10.5s-.8-7.58-2.4-10.5ZM219.77,869.39c-3.84,0-6.71.76-8.58,2.28-1.89,1.52-2.82,3.52-2.82,6s.85,4.32,2.58,5.76c1.72,1.44,4.14,2.16,7.26,2.16,2.79,0,5.53-.6,8.22-1.8,2.68-1.2,4.9-3,6.66-5.4,1.75-2.4,2.64-5.24,2.64-8.52v-.48h-15.96ZM123.36,864.77c-2.4-2.04-5.64-3.06-9.72-3.06h-16.56v22.56h16.92c4.08,0,7.26-.96,9.54-2.88,2.28-1.92,3.42-4.64,3.42-8.16s-1.2-6.42-3.6-8.46ZM121.68,830.51c-2.16-1.84-5.24-2.76-9.24-2.76h-15.36v21h15.36c4,0,7.08-.9,9.24-2.7,2.16-1.8,3.24-4.38,3.24-7.74s-1.08-5.96-3.24-7.8ZM121.68,830.51c-2.16-1.84-5.24-2.76-9.24-2.76h-15.36v21h15.36c4,0,7.08-.9,9.24-2.7,2.16-1.8,3.24-4.38,3.24-7.74s-1.08-5.96-3.24-7.8ZM123.36,864.77c-2.4-2.04-5.64-3.06-9.72-3.06h-16.56v22.56h16.92c4.08,0,7.26-.96,9.54-2.88,2.28-1.92,3.42-4.64,3.42-8.16s-1.2-6.42-3.6-8.46ZM219.77,869.39c-3.84,0-6.71.76-8.58,2.28-1.89,1.52-2.82,3.52-2.82,6s.85,4.32,2.58,5.76c1.72,1.44,4.14,2.16,7.26,2.16,2.79,0,5.53-.6,8.22-1.8,2.68-1.2,4.9-3,6.66-5.4,1.75-2.4,2.64-5.24,2.64-8.52v-.48h-15.96ZM315.8,964.21c-1.6-2.92-3.76-5.16-6.48-6.72s-5.64-2.34-8.76-2.34-6,.76-8.64,2.28c-2.64,1.52-4.78,3.74-6.42,6.66-1.64,2.92-2.46,6.38-2.46,10.38s.82,7.5,2.46,10.5,3.8,5.3,6.48,6.9c2.68,1.6,5.54,2.4,8.58,2.4s6.04-.78,8.76-2.34,4.88-3.8,6.48-6.72c1.6-2.92,2.4-6.42,2.4-10.5s-.8-7.58-2.4-10.5ZM383.56,854.21c-1.6-2.92-3.76-5.16-6.48-6.72-2.72-1.56-5.64-2.34-8.76-2.34s-6,.76-8.64,2.28c-2.64,1.52-4.78,3.74-6.42,6.66-1.64,2.92-2.46,6.38-2.46,10.38s.82,7.5,2.46,10.5,3.8,5.3,6.48,6.9c2.68,1.6,5.54,2.4,8.58,2.4s6.04-.78,8.76-2.34c2.72-1.56,4.88-3.8,6.48-6.72,1.6-2.92,2.4-6.42,2.4-10.5s-.8-7.58-2.4-10.5ZM386.29,958.09c-3.04-2.6-6.76-3.9-11.16-3.9-4.16,0-7.66,1.26-10.5,3.78-2.84,2.52-4.58,6.02-5.22,10.5h31.56c-.08-4.32-1.64-7.78-4.68-10.38ZM585.48,958.09c-3.04-2.6-6.77-3.9-11.16-3.9-4.16,0-7.66,1.26-10.5,3.78-2.84,2.52-4.58,6.02-5.22,10.5h31.56c-.08-4.32-1.64-7.78-4.68-10.38ZM585.48,958.09c-3.04-2.6-6.77-3.9-11.16-3.9-4.16,0-7.66,1.26-10.5,3.78-2.84,2.52-4.58,6.02-5.22,10.5h31.56c-.08-4.32-1.64-7.78-4.68-10.38ZM386.29,958.09c-3.04-2.6-6.76-3.9-11.16-3.9-4.16,0-7.66,1.26-10.5,3.78-2.84,2.52-4.58,6.02-5.22,10.5h31.56c-.08-4.32-1.64-7.78-4.68-10.38ZM383.56,854.21c-1.6-2.92-3.76-5.16-6.48-6.72-2.72-1.56-5.64-2.34-8.76-2.34s-6,.76-8.64,2.28c-2.64,1.52-4.78,3.74-6.42,6.66-1.64,2.92-2.46,6.38-2.46,10.38s.82,7.5,2.46,10.5,3.8,5.3,6.48,6.9c2.68,1.6,5.54,2.4,8.58,2.4s6.04-.78,8.76-2.34c2.72-1.56,4.88-3.8,6.48-6.72,1.6-2.92,2.4-6.42,2.4-10.5s-.8-7.58-2.4-10.5ZM315.8,964.21c-1.6-2.92-3.76-5.16-6.48-6.72s-5.64-2.34-8.76-2.34-6,.76-8.64,2.28c-2.64,1.52-4.78,3.74-6.42,6.66-1.64,2.92-2.46,6.38-2.46,10.38s.82,7.5,2.46,10.5,3.8,5.3,6.48,6.9c2.68,1.6,5.54,2.4,8.58,2.4s6.04-.78,8.76-2.34,4.88-3.8,6.48-6.72c1.6-2.92,2.4-6.42,2.4-10.5s-.8-7.58-2.4-10.5ZM219.77,869.39c-3.84,0-6.71.76-8.58,2.28-1.89,1.52-2.82,3.52-2.82,6s.85,4.32,2.58,5.76c1.72,1.44,4.14,2.16,7.26,2.16,2.79,0,5.53-.6,8.22-1.8,2.68-1.2,4.9-3,6.66-5.4,1.75-2.4,2.64-5.24,2.64-8.52v-.48h-15.96ZM123.36,864.77c-2.4-2.04-5.64-3.06-9.72-3.06h-16.56v22.56h16.92c4.08,0,7.26-.96,9.54-2.88,2.28-1.92,3.42-4.64,3.42-8.16s-1.2-6.42-3.6-8.46ZM121.68,846.05c2.16-1.8,3.24-4.38,3.24-7.74s-1.08-5.96-3.24-7.8c-2.16-1.84-5.24-2.76-9.24-2.76h-15.36v21h15.36c4,0,7.08-.9,9.24-2.7ZM0,0v1080h1080V0H0ZM193.95,72l-8.55,54h-10.8l8.55-54h10.8ZM178.15,833.51c3.48-2,7.46-3,11.94-3v17.64h-4.44c-5.28,0-9.26,1.24-11.94,3.72-2.68,2.48-4.02,6.8-4.02,12.96v33.12h-16.8v-66.48h16.8v10.32c2.16-3.52,4.98-6.28,8.46-8.28ZM139.95,72l20.9,38.57,6.1-38.57h10.8l-8.55,54h-10.8l-20.9-38.57,2.45-15.43ZM138.9,824.63c2.12,3.28,3.18,7,3.18,11.16,0,4.88-1.3,8.96-3.9,12.24-2.6,3.28-6.06,5.6-10.38,6.96,4.72.88,8.6,3.24,11.64,7.08,3.04,3.84,4.56,8.24,4.56,13.2,0,4.48-1.1,8.42-3.3,11.82-2.2,3.4-5.38,6.06-9.54,7.98-4.16,1.92-9.08,2.88-14.76,2.88h-36.12v-83.76h34.56c5.68,0,10.58.92,14.7,2.76,4.12,1.84,7.24,4.4,9.36,7.68ZM80.55,72h10.8l9.79,40.5,22.61-40.5h10.8l-8.55,54h-10.8l4.28-27-15.08,27h-10.8l-6.52-27-4.28,27h-10.8l8.55-54ZM159.96,976.03c-1.12,5.84-3.52,11.24-7.2,16.2s-8.42,8.94-14.22,11.94-12.3,4.5-19.5,4.5c-8.08,0-15.38-1.82-21.9-5.46-6.52-3.64-11.64-8.7-15.36-15.18-3.72-6.48-5.58-13.84-5.58-22.08s1.86-15.62,5.58-22.14c3.72-6.52,8.84-11.6,15.36-15.24,6.52-3.64,13.78-5.46,21.78-5.46,9.44,0,17.64,2.3,24.6,6.9,6.96,4.6,11.76,11.06,14.4,19.38h-19.32c-1.92-3.52-4.56-6.2-7.92-8.04-3.36-1.84-7.28-2.76-11.76-2.76-4.96,0-9.36,1.12-13.2,3.36-3.84,2.24-6.84,5.44-9,9.6s-3.24,8.96-3.24,14.4,1.1,10.48,3.3,14.64c2.2,4.16,5.26,7.36,9.18,9.6s8.48,3.36,13.68,3.36c6.4,0,11.64-1.7,15.72-5.1,4.08-3.4,6.76-8.14,8.04-14.22h-28.8v-12.84h45.36v14.64ZM230.93,1007.95h-16.92v-8.4c-2.16,2.88-4.98,5.14-8.46,6.78-3.48,1.64-7.26,2.46-11.34,2.46-5.2,0-9.8-1.1-13.8-3.3s-7.14-5.44-9.42-9.72c-2.28-4.28-3.42-9.38-3.42-15.3v-39h16.8v36.6c0,5.28,1.32,9.34,3.96,12.18,2.64,2.84,6.24,4.26,10.8,4.26s8.28-1.42,10.92-4.26c2.64-2.84,3.96-6.9,3.96-12.18v-36.6h16.92v66.48ZM226.73,896.09c-4.17,2.04-8.64,3.06-13.44,3.06-4.17,0-7.92-.84-11.28-2.52s-6-4-7.92-6.96c-1.92-2.96-2.88-6.36-2.88-10.2,0-6.16,2.29-11.2,6.9-15.12,4.6-3.92,11.5-5.88,20.7-5.88h16.92c-.17-4.24-1.38-7.62-3.66-10.14-2.28-2.52-5.43-3.78-9.42-3.78-3.53,0-6.44.94-8.76,2.82-2.33,1.88-3.81,4.5-4.44,7.86h-16.8c.79-4.8,2.53-9.1,5.22-12.9,2.67-3.8,6.19-6.76,10.56-8.88,4.36-2.12,9.25-3.18,14.69-3.18s10.67,1.16,15.19,3.48c4.51,2.32,8.05,5.64,10.62,9.96,2.55,4.32,3.84,9.4,3.84,15.24v39h-17.04v-9.48c-1.85,3.04-4.85,5.58-9,7.62ZM258.8,1007.95h-16.8v-66.48h16.8v66.48ZM257.9,930.73c-1.96,1.88-4.42,2.82-7.38,2.82s-5.42-.94-7.38-2.82c-1.96-1.88-2.94-4.22-2.94-7.02s.98-5.14,2.94-7.02c1.96-1.88,4.42-2.82,7.38-2.82s5.42.94,7.38,2.82,2.94,4.22,2.94,7.02-.98,5.14-2.94,7.02ZM263.6,831.47h16.8v8.28c2.24-2.88,5.1-5.14,8.58-6.78s7.3-2.46,11.46-2.46c7.92,0,14.32,2.5,19.2,7.5,4.88,5,7.32,11.98,7.32,20.94v39h-16.8v-36.72c0-5.28-1.32-9.34-3.96-12.18-2.64-2.84-6.24-4.26-10.8-4.26s-8.3,1.42-10.98,4.26c-2.68,2.84-4.02,6.9-4.02,12.18v36.72h-16.8v-66.48ZM335.12,1007.95h-17.04v-9.84c-2.08,3.28-5,5.92-8.76,7.92s-8.12,3-13.08,3c-5.6,0-10.72-1.44-15.36-4.32-4.64-2.88-8.3-6.94-10.98-12.18-2.68-5.24-4.02-11.26-4.02-18.06s1.34-12.68,4.02-17.88c2.68-5.2,6.34-9.2,10.98-12,4.64-2.8,9.8-4.2,15.48-4.2,4.32,0,8.44.94,12.36,2.82,3.92,1.88,7.04,4.38,9.36,7.5v-31.56h17.04v88.8ZM333.64,864.47c0-6.72,1.34-12.68,4.02-17.88,2.68-5.2,6.34-9.2,10.98-12,4.64-2.8,9.8-4.2,15.48-4.2,4.32,0,8.44.94,12.36,2.82s7.04,4.38,9.36,7.5v-31.56h17.04v88.8h-17.04v-9.84c-2.08,3.28-5,5.92-8.76,7.92s-8.12,3-13.08,3c-5.6,0-10.72-1.44-15.36-4.32-4.64-2.88-8.3-6.94-10.98-12.18-2.68-5.24-4.02-11.26-4.02-18.06ZM407.89,979.75h-48.6c.4,4.8,2.08,8.56,5.04,11.28,2.96,2.72,6.6,4.08,10.92,4.08,6.24,0,10.68-2.68,13.32-8.04h18.12c-1.92,6.4-5.6,11.66-11.04,15.78-5.44,4.12-12.12,6.18-20.04,6.18-6.4,0-12.14-1.42-17.22-4.26-5.08-2.84-9.04-6.86-11.88-12.06-2.84-5.2-4.26-11.2-4.26-18s1.4-12.92,4.2-18.12c2.8-5.2,6.72-9.2,11.76-12,5.04-2.8,10.84-4.2,17.4-4.2s11.98,1.36,16.98,4.08c5,2.72,8.88,6.58,11.64,11.58s4.14,10.74,4.14,17.22c0,2.4-.16,4.56-.48,6.48ZM432.34,1007.95h-16.8v-88.8h16.8v88.8ZM460.29,1007.95h-16.8v-66.48h16.8v66.48ZM459.39,930.73c-1.96,1.88-4.42,2.82-7.38,2.82s-5.42-.94-7.38-2.82c-1.96-1.88-2.94-4.22-2.94-7.02s.98-5.14,2.94-7.02c1.96-1.88,4.42-2.82,7.38-2.82s5.42.94,7.38,2.82c1.96,1.88,2.94,4.22,2.94,7.02s-.98,5.14-2.94,7.02ZM534.75,1007.95h-16.8v-36.72c0-5.28-1.32-9.34-3.96-12.18s-6.24-4.26-10.8-4.26-8.3,1.42-10.98,4.26c-2.68,2.84-4.02,6.9-4.02,12.18v36.72h-16.8v-66.48h16.8v8.28c2.24-2.88,5.1-5.14,8.58-6.78s7.3-2.46,11.46-2.46c7.92,0,14.32,2.5,19.2,7.5,4.88,5,7.32,11.98,7.32,20.94v39ZM607.08,979.75h-48.6c.4,4.8,2.08,8.56,5.04,11.28,2.96,2.72,6.6,4.08,10.92,4.08,6.24,0,10.68-2.68,13.32-8.04h18.12c-1.92,6.4-5.6,11.66-11.04,15.78-5.44,4.12-12.12,6.18-20.04,6.18-6.4,0-12.14-1.42-17.22-4.26-5.08-2.84-9.04-6.86-11.88-12.06-2.84-5.2-4.26-11.2-4.26-18s1.39-12.92,4.2-18.12c2.8-5.2,6.72-9.2,11.76-12,5.04-2.8,10.84-4.2,17.4-4.2s11.98,1.36,16.98,4.08c5,2.72,8.88,6.58,11.64,11.58s4.14,10.74,4.14,17.22c0,2.4-.16,4.56-.48,6.48ZM662.64,999.31c-2.13,3.04-5.16,5.42-9.12,7.14-3.96,1.72-8.58,2.58-13.86,2.58s-10.32-.98-14.64-2.94c-4.32-1.96-7.74-4.62-10.26-7.98s-3.9-7.08-4.14-11.16h16.92c.31,2.56,1.57,4.68,3.78,6.36,2.19,1.68,4.93,2.52,8.22,2.52s5.7-.64,7.5-1.92c1.8-1.28,2.7-2.92,2.7-4.92,0-2.16-1.11-3.78-3.3-4.86-2.21-1.08-5.7-2.26-10.5-3.54-4.97-1.2-9.02-2.44-12.18-3.72-3.17-1.28-5.88-3.24-8.16-5.88-2.28-2.64-3.42-6.2-3.42-10.68,0-3.68,1.06-7.04,3.18-10.08,2.11-3.04,5.16-5.44,9.12-7.2s8.61-2.64,13.98-2.64c7.92,0,14.23,1.98,18.96,5.94,4.71,3.96,7.32,9.3,7.8,16.02h-16.08c-.24-2.64-1.35-4.74-3.3-6.3-1.97-1.56-4.59-2.34-7.86-2.34-3.05,0-5.39.56-7.02,1.68-1.65,1.12-2.46,2.68-2.46,4.68,0,2.24,1.12,3.94,3.36,5.1,2.23,1.16,5.71,2.34,10.44,3.54,4.8,1.2,8.76,2.44,11.88,3.72,3.12,1.28,5.82,3.26,8.1,5.94s3.46,6.22,3.54,10.62c0,3.84-1.07,7.28-3.18,10.32ZM1008,1008h-58.14v-12.24h37.25l-69.11-69.11,8.65-8.65,69.11,69.11v-37.25h12.24v58.14ZM585.48,958.09c-3.04-2.6-6.77-3.9-11.16-3.9-4.16,0-7.66,1.26-10.5,3.78-2.84,2.52-4.58,6.02-5.22,10.5h31.56c-.08-4.32-1.64-7.78-4.68-10.38ZM386.29,958.09c-3.04-2.6-6.76-3.9-11.16-3.9-4.16,0-7.66,1.26-10.5,3.78-2.84,2.52-4.58,6.02-5.22,10.5h31.56c-.08-4.32-1.64-7.78-4.68-10.38ZM359.74,881.87c2.68,1.6,5.54,2.4,8.58,2.4s6.04-.78,8.76-2.34c2.72-1.56,4.88-3.8,6.48-6.72,1.6-2.92,2.4-6.42,2.4-10.5s-.8-7.58-2.4-10.5c-1.6-2.92-3.76-5.16-6.48-6.72-2.72-1.56-5.64-2.34-8.76-2.34s-6,.76-8.64,2.28c-2.64,1.52-4.78,3.74-6.42,6.66-1.64,2.92-2.46,6.38-2.46,10.38s.82,7.5,2.46,10.5,3.8,5.3,6.48,6.9ZM309.32,957.49c-2.72-1.56-5.64-2.34-8.76-2.34s-6,.76-8.64,2.28c-2.64,1.52-4.78,3.74-6.42,6.66-1.64,2.92-2.46,6.38-2.46,10.38s.82,7.5,2.46,10.5,3.8,5.3,6.48,6.9c2.68,1.6,5.54,2.4,8.58,2.4s6.04-.78,8.76-2.34,4.88-3.8,6.48-6.72c1.6-2.92,2.4-6.42,2.4-10.5s-.8-7.58-2.4-10.5c-1.6-2.92-3.76-5.16-6.48-6.72ZM235.73,869.39h-15.96c-3.84,0-6.71.76-8.58,2.28-1.89,1.52-2.82,3.52-2.82,6s.85,4.32,2.58,5.76c1.72,1.44,4.14,2.16,7.26,2.16,2.79,0,5.53-.6,8.22-1.8,2.68-1.2,4.9-3,6.66-5.4,1.75-2.4,2.64-5.24,2.64-8.52v-.48ZM123.36,864.77c-2.4-2.04-5.64-3.06-9.72-3.06h-16.56v22.56h16.92c4.08,0,7.26-.96,9.54-2.88,2.28-1.92,3.42-4.64,3.42-8.16s-1.2-6.42-3.6-8.46ZM121.68,846.05c2.16-1.8,3.24-4.38,3.24-7.74s-1.08-5.96-3.24-7.8c-2.16-1.84-5.24-2.76-9.24-2.76h-15.36v21h15.36c4,0,7.08-.9,9.24-2.7ZM121.68,830.51c-2.16-1.84-5.24-2.76-9.24-2.76h-15.36v21h15.36c4,0,7.08-.9,9.24-2.7,2.16-1.8,3.24-4.38,3.24-7.74s-1.08-5.96-3.24-7.8ZM123.36,864.77c-2.4-2.04-5.64-3.06-9.72-3.06h-16.56v22.56h16.92c4.08,0,7.26-.96,9.54-2.88,2.28-1.92,3.42-4.64,3.42-8.16s-1.2-6.42-3.6-8.46ZM219.77,869.39c-3.84,0-6.71.76-8.58,2.28-1.89,1.52-2.82,3.52-2.82,6s.85,4.32,2.58,5.76c1.72,1.44,4.14,2.16,7.26,2.16,2.79,0,5.53-.6,8.22-1.8,2.68-1.2,4.9-3,6.66-5.4,1.75-2.4,2.64-5.24,2.64-8.52v-.48h-15.96ZM315.8,964.21c-1.6-2.92-3.76-5.16-6.48-6.72s-5.64-2.34-8.76-2.34-6,.76-8.64,2.28c-2.64,1.52-4.78,3.74-6.42,6.66-1.64,2.92-2.46,6.38-2.46,10.38s.82,7.5,2.46,10.5,3.8,5.3,6.48,6.9c2.68,1.6,5.54,2.4,8.58,2.4s6.04-.78,8.76-2.34,4.88-3.8,6.48-6.72c1.6-2.92,2.4-6.42,2.4-10.5s-.8-7.58-2.4-10.5ZM383.56,854.21c-1.6-2.92-3.76-5.16-6.48-6.72-2.72-1.56-5.64-2.34-8.76-2.34s-6,.76-8.64,2.28c-2.64,1.52-4.78,3.74-6.42,6.66-1.64,2.92-2.46,6.38-2.46,10.38s.82,7.5,2.46,10.5,3.8,5.3,6.48,6.9c2.68,1.6,5.54,2.4,8.58,2.4s6.04-.78,8.76-2.34c2.72-1.56,4.88-3.8,6.48-6.72,1.6-2.92,2.4-6.42,2.4-10.5s-.8-7.58-2.4-10.5ZM386.29,958.09c-3.04-2.6-6.76-3.9-11.16-3.9-4.16,0-7.66,1.26-10.5,3.78-2.84,2.52-4.58,6.02-5.22,10.5h31.56c-.08-4.32-1.64-7.78-4.68-10.38ZM585.48,958.09c-3.04-2.6-6.77-3.9-11.16-3.9-4.16,0-7.66,1.26-10.5,3.78-2.84,2.52-4.58,6.02-5.22,10.5h31.56c-.08-4.32-1.64-7.78-4.68-10.38ZM585.48,958.09c-3.04-2.6-6.77-3.9-11.16-3.9-4.16,0-7.66,1.26-10.5,3.78-2.84,2.52-4.58,6.02-5.22,10.5h31.56c-.08-4.32-1.64-7.78-4.68-10.38ZM386.29,958.09c-3.04-2.6-6.76-3.9-11.16-3.9-4.16,0-7.66,1.26-10.5,3.78-2.84,2.52-4.58,6.02-5.22,10.5h31.56c-.08-4.32-1.64-7.78-4.68-10.38ZM383.56,854.21c-1.6-2.92-3.76-5.16-6.48-6.72-2.72-1.56-5.64-2.34-8.76-2.34s-6,.76-8.64,2.28c-2.64,1.52-4.78,3.74-6.42,6.66-1.64,2.92-2.46,6.38-2.46,10.38s.82,7.5,2.46,10.5,3.8,5.3,6.48,6.9c2.68,1.6,5.54,2.4,8.58,2.4s6.04-.78,8.76-2.34c2.72-1.56,4.88-3.8,6.48-6.72,1.6-2.92,2.4-6.42,2.4-10.5s-.8-7.58-2.4-10.5ZM315.8,964.21c-1.6-2.92-3.76-5.16-6.48-6.72s-5.64-2.34-8.76-2.34-6,.76-8.64,2.28c-2.64,1.52-4.78,3.74-6.42,6.66-1.64,2.92-2.46,6.38-2.46,10.38s.82,7.5,2.46,10.5,3.8,5.3,6.48,6.9c2.68,1.6,5.54,2.4,8.58,2.4s6.04-.78,8.76-2.34,4.88-3.8,6.48-6.72c1.6-2.92,2.4-6.42,2.4-10.5s-.8-7.58-2.4-10.5ZM219.77,869.39c-3.84,0-6.71.76-8.58,2.28-1.89,1.52-2.82,3.52-2.82,6s.85,4.32,2.58,5.76c1.72,1.44,4.14,2.16,7.26,2.16,2.79,0,5.53-.6,8.22-1.8,2.68-1.2,4.9-3,6.66-5.4,1.75-2.4,2.64-5.24,2.64-8.52v-.48h-15.96ZM123.36,864.77c-2.4-2.04-5.64-3.06-9.72-3.06h-16.56v22.56h16.92c4.08,0,7.26-.96,9.54-2.88,2.28-1.92,3.42-4.64,3.42-8.16s-1.2-6.42-3.6-8.46ZM121.68,830.51c-2.16-1.84-5.24-2.76-9.24-2.76h-15.36v21h15.36c4,0,7.08-.9,9.24-2.7,2.16-1.8,3.24-4.38,3.24-7.74s-1.08-5.96-3.24-7.8ZM121.68,830.51c-2.16-1.84-5.24-2.76-9.24-2.76h-15.36v21h15.36c4,0,7.08-.9,9.24-2.7,2.16-1.8,3.24-4.38,3.24-7.74s-1.08-5.96-3.24-7.8ZM123.36,864.77c-2.4-2.04-5.64-3.06-9.72-3.06h-16.56v22.56h16.92c4.08,0,7.26-.96,9.54-2.88,2.28-1.92,3.42-4.64,3.42-8.16s-1.2-6.42-3.6-8.46ZM219.77,869.39c-3.84,0-6.71.76-8.58,2.28-1.89,1.52-2.82,3.52-2.82,6s.85,4.32,2.58,5.76c1.72,1.44,4.14,2.16,7.26,2.16,2.79,0,5.53-.6,8.22-1.8,2.68-1.2,4.9-3,6.66-5.4,1.75-2.4,2.64-5.24,2.64-8.52v-.48h-15.96ZM315.8,964.21c-1.6-2.92-3.76-5.16-6.48-6.72s-5.64-2.34-8.76-2.34-6,.76-8.64,2.28c-2.64,1.52-4.78,3.74-6.42,6.66-1.64,2.92-2.46,6.38-2.46,10.38s.82,7.5,2.46,10.5,3.8,5.3,6.48,6.9c2.68,1.6,5.54,2.4,8.58,2.4s6.04-.78,8.76-2.34,4.88-3.8,6.48-6.72c1.6-2.92,2.4-6.42,2.4-10.5s-.8-7.58-2.4-10.5ZM383.56,854.21c-1.6-2.92-3.76-5.16-6.48-6.72-2.72-1.56-5.64-2.34-8.76-2.34s-6,.76-8.64,2.28c-2.64,1.52-4.78,3.74-6.42,6.66-1.64,2.92-2.46,6.38-2.46,10.38s.82,7.5,2.46,10.5,3.8,5.3,6.48,6.9c2.68,1.6,5.54,2.4,8.58,2.4s6.04-.78,8.76-2.34c2.72-1.56,4.88-3.8,6.48-6.72,1.6-2.92,2.4-6.42,2.4-10.5s-.8-7.58-2.4-10.5ZM386.29,958.09c-3.04-2.6-6.76-3.9-11.16-3.9-4.16,0-7.66,1.26-10.5,3.78-2.84,2.52-4.58,6.02-5.22,10.5h31.56c-.08-4.32-1.64-7.78-4.68-10.38ZM386.29,958.09c-3.04-2.6-6.76-3.9-11.16-3.9-4.16,0-7.66,1.26-10.5,3.78-2.84,2.52-4.58,6.02-5.22,10.5h31.56c-.08-4.32-1.64-7.78-4.68-10.38ZM383.56,854.21c-1.6-2.92-3.76-5.16-6.48-6.72-2.72-1.56-5.64-2.34-8.76-2.34s-6,.76-8.64,2.28c-2.64,1.52-4.78,3.74-6.42,6.66-1.64,2.92-2.46,6.38-2.46,10.38s.82,7.5,2.46,10.5,3.8,5.3,6.48,6.9c2.68,1.6,5.54,2.4,8.58,2.4s6.04-.78,8.76-2.34c2.72-1.56,4.88-3.8,6.48-6.72,1.6-2.92,2.4-6.42,2.4-10.5s-.8-7.58-2.4-10.5ZM315.8,964.21c-1.6-2.92-3.76-5.16-6.48-6.72s-5.64-2.34-8.76-2.34-6,.76-8.64,2.28c-2.64,1.52-4.78,3.74-6.42,6.66-1.64,2.92-2.46,6.38-2.46,10.38s.82,7.5,2.46,10.5,3.8,5.3,6.48,6.9c2.68,1.6,5.54,2.4,8.58,2.4s6.04-.78,8.76-2.34,4.88-3.8,6.48-6.72c1.6-2.92,2.4-6.42,2.4-10.5s-.8-7.58-2.4-10.5ZM219.77,869.39c-3.84,0-6.71.76-8.58,2.28-1.89,1.52-2.82,3.52-2.82,6s.85,4.32,2.58,5.76c1.72,1.44,4.14,2.16,7.26,2.16,2.79,0,5.53-.6,8.22-1.8,2.68-1.2,4.9-3,6.66-5.4,1.75-2.4,2.64-5.24,2.64-8.52v-.48h-15.96ZM123.36,864.77c-2.4-2.04-5.64-3.06-9.72-3.06h-16.56v22.56h16.92c4.08,0,7.26-.96,9.54-2.88,2.28-1.92,3.42-4.64,3.42-8.16s-1.2-6.42-3.6-8.46ZM121.68,830.51c-2.16-1.84-5.24-2.76-9.24-2.76h-15.36v21h15.36c4,0,7.08-.9,9.24-2.7,2.16-1.8,3.24-4.38,3.24-7.74s-1.08-5.96-3.24-7.8ZM121.68,830.51c-2.16-1.84-5.24-2.76-9.24-2.76h-15.36v21h15.36c4,0,7.08-.9,9.24-2.7,2.16-1.8,3.24-4.38,3.24-7.74s-1.08-5.96-3.24-7.8ZM123.36,864.77c-2.4-2.04-5.64-3.06-9.72-3.06h-16.56v22.56h16.92c4.08,0,7.26-.96,9.54-2.88,2.28-1.92,3.42-4.64,3.42-8.16s-1.2-6.42-3.6-8.46ZM219.77,869.39c-3.84,0-6.71.76-8.58,2.28-1.89,1.52-2.82,3.52-2.82,6s.85,4.32,2.58,5.76c1.72,1.44,4.14,2.16,7.26,2.16,2.79,0,5.53-.6,8.22-1.8,2.68-1.2,4.9-3,6.66-5.4,1.75-2.4,2.64-5.24,2.64-8.52v-.48h-15.96ZM315.8,964.21c-1.6-2.92-3.76-5.16-6.48-6.72s-5.64-2.34-8.76-2.34-6,.76-8.64,2.28c-2.64,1.52-4.78,3.74-6.42,6.66-1.64,2.92-2.46,6.38-2.46,10.38s.82,7.5,2.46,10.5,3.8,5.3,6.48,6.9c2.68,1.6,5.54,2.4,8.58,2.4s6.04-.78,8.76-2.34,4.88-3.8,6.48-6.72c1.6-2.92,2.4-6.42,2.4-10.5s-.8-7.58-2.4-10.5ZM383.56,854.21c-1.6-2.92-3.76-5.16-6.48-6.72-2.72-1.56-5.64-2.34-8.76-2.34s-6,.76-8.64,2.28c-2.64,1.52-4.78,3.74-6.42,6.66-1.64,2.92-2.46,6.38-2.46,10.38s.82,7.5,2.46,10.5,3.8,5.3,6.48,6.9c2.68,1.6,5.54,2.4,8.58,2.4s6.04-.78,8.76-2.34c2.72-1.56,4.88-3.8,6.48-6.72,1.6-2.92,2.4-6.42,2.4-10.5s-.8-7.58-2.4-10.5ZM386.29,958.09c-3.04-2.6-6.76-3.9-11.16-3.9-4.16,0-7.66,1.26-10.5,3.78-2.84,2.52-4.58,6.02-5.22,10.5h31.56c-.08-4.32-1.64-7.78-4.68-10.38ZM386.29,958.09c-3.04-2.6-6.76-3.9-11.16-3.9-4.16,0-7.66,1.26-10.5,3.78-2.84,2.52-4.58,6.02-5.22,10.5h31.56c-.08-4.32-1.64-7.78-4.68-10.38ZM383.56,854.21c-1.6-2.92-3.76-5.16-6.48-6.72-2.72-1.56-5.64-2.34-8.76-2.34s-6,.76-8.64,2.28c-2.64,1.52-4.78,3.74-6.42,6.66-1.64,2.92-2.46,6.38-2.46,10.38s.82,7.5,2.46,10.5,3.8,5.3,6.48,6.9c2.68,1.6,5.54,2.4,8.58,2.4s6.04-.78,8.76-2.34c2.72-1.56,4.88-3.8,6.48-6.72,1.6-2.92,2.4-6.42,2.4-10.5s-.8-7.58-2.4-10.5ZM315.8,964.21c-1.6-2.92-3.76-5.16-6.48-6.72s-5.64-2.34-8.76-2.34-6,.76-8.64,2.28c-2.64,1.52-4.78,3.74-6.42,6.66-1.64,2.92-2.46,6.38-2.46,10.38s.82,7.5,2.46,10.5,3.8,5.3,6.48,6.9c2.68,1.6,5.54,2.4,8.58,2.4s6.04-.78,8.76-2.34,4.88-3.8,6.48-6.72c1.6-2.92,2.4-6.42,2.4-10.5s-.8-7.58-2.4-10.5ZM219.77,869.39c-3.84,0-6.71.76-8.58,2.28-1.89,1.52-2.82,3.52-2.82,6s.85,4.32,2.58,5.76c1.72,1.44,4.14,2.16,7.26,2.16,2.79,0,5.53-.6,8.22-1.8,2.68-1.2,4.9-3,6.66-5.4,1.75-2.4,2.64-5.24,2.64-8.52v-.48h-15.96ZM123.36,864.77c-2.4-2.04-5.64-3.06-9.72-3.06h-16.56v22.56h16.92c4.08,0,7.26-.96,9.54-2.88,2.28-1.92,3.42-4.64,3.42-8.16s-1.2-6.42-3.6-8.46ZM121.68,830.51c-2.16-1.84-5.24-2.76-9.24-2.76h-15.36v21h15.36c4,0,7.08-.9,9.24-2.7,2.16-1.8,3.24-4.38,3.24-7.74s-1.08-5.96-3.24-7.8ZM121.68,830.51c-2.16-1.84-5.24-2.76-9.24-2.76h-15.36v21h15.36c4,0,7.08-.9,9.24-2.7,2.16-1.8,3.24-4.38,3.24-7.74s-1.08-5.96-3.24-7.8ZM123.36,864.77c-2.4-2.04-5.64-3.06-9.72-3.06h-16.56v22.56h16.92c4.08,0,7.26-.96,9.54-2.88,2.28-1.92,3.42-4.64,3.42-8.16s-1.2-6.42-3.6-8.46ZM219.77,869.39c-3.84,0-6.71.76-8.58,2.28-1.89,1.52-2.82,3.52-2.82,6s.85,4.32,2.58,5.76c1.72,1.44,4.14,2.16,7.26,2.16,2.79,0,5.53-.6,8.22-1.8,2.68-1.2,4.9-3,6.66-5.4,1.75-2.4,2.64-5.24,2.64-8.52v-.48h-15.96ZM315.8,964.21c-1.6-2.92-3.76-5.16-6.48-6.72s-5.64-2.34-8.76-2.34-6,.76-8.64,2.28c-2.64,1.52-4.78,3.74-6.42,6.66-1.64,2.92-2.46,6.38-2.46,10.38s.82,7.5,2.46,10.5,3.8,5.3,6.48,6.9c2.68,1.6,5.54,2.4,8.58,2.4s6.04-.78,8.76-2.34,4.88-3.8,6.48-6.72c1.6-2.92,2.4-6.42,2.4-10.5s-.8-7.58-2.4-10.5ZM383.56,854.21c-1.6-2.92-3.76-5.16-6.48-6.72-2.72-1.56-5.64-2.34-8.76-2.34s-6,.76-8.64,2.28c-2.64,1.52-4.78,3.74-6.42,6.66-1.64,2.92-2.46,6.38-2.46,10.38s.82,7.5,2.46,10.5,3.8,5.3,6.48,6.9c2.68,1.6,5.54,2.4,8.58,2.4s6.04-.78,8.76-2.34c2.72-1.56,4.88-3.8,6.48-6.72,1.6-2.92,2.4-6.42,2.4-10.5s-.8-7.58-2.4-10.5ZM383.56,854.21c-1.6-2.92-3.76-5.16-6.48-6.72-2.72-1.56-5.64-2.34-8.76-2.34s-6,.76-8.64,2.28c-2.64,1.52-4.78,3.74-6.42,6.66-1.64,2.92-2.46,6.38-2.46,10.38s.82,7.5,2.46,10.5,3.8,5.3,6.48,6.9c2.68,1.6,5.54,2.4,8.58,2.4s6.04-.78,8.76-2.34c2.72-1.56,4.88-3.8,6.48-6.72,1.6-2.92,2.4-6.42,2.4-10.5s-.8-7.58-2.4-10.5ZM315.8,964.21c-1.6-2.92-3.76-5.16-6.48-6.72s-5.64-2.34-8.76-2.34-6,.76-8.64,2.28c-2.64,1.52-4.78,3.74-6.42,6.66-1.64,2.92-2.46,6.38-2.46,10.38s.82,7.5,2.46,10.5,3.8,5.3,6.48,6.9c2.68,1.6,5.54,2.4,8.58,2.4s6.04-.78,8.76-2.34,4.88-3.8,6.48-6.72c1.6-2.92,2.4-6.42,2.4-10.5s-.8-7.58-2.4-10.5ZM219.77,869.39c-3.84,0-6.71.76-8.58,2.28-1.89,1.52-2.82,3.52-2.82,6s.85,4.32,2.58,5.76c1.72,1.44,4.14,2.16,7.26,2.16,2.79,0,5.53-.6,8.22-1.8,2.68-1.2,4.9-3,6.66-5.4,1.75-2.4,2.64-5.24,2.64-8.52v-.48h-15.96ZM123.36,864.77c-2.4-2.04-5.64-3.06-9.72-3.06h-16.56v22.56h16.92c4.08,0,7.26-.96,9.54-2.88,2.28-1.92,3.42-4.64,3.42-8.16s-1.2-6.42-3.6-8.46ZM121.68,830.51c-2.16-1.84-5.24-2.76-9.24-2.76h-15.36v21h15.36c4,0,7.08-.9,9.24-2.7,2.16-1.8,3.24-4.38,3.24-7.74s-1.08-5.96-3.24-7.8ZM121.68,830.51c-2.16-1.84-5.24-2.76-9.24-2.76h-15.36v21h15.36c4,0,7.08-.9,9.24-2.7,2.16-1.8,3.24-4.38,3.24-7.74s-1.08-5.96-3.24-7.8ZM123.36,864.77c-2.4-2.04-5.64-3.06-9.72-3.06h-16.56v22.56h16.92c4.08,0,7.26-.96,9.54-2.88,2.28-1.92,3.42-4.64,3.42-8.16s-1.2-6.42-3.6-8.46ZM219.77,869.39c-3.84,0-6.71.76-8.58,2.28-1.89,1.52-2.82,3.52-2.82,6s.85,4.32,2.58,5.76c1.72,1.44,4.14,2.16,7.26,2.16,2.79,0,5.53-.6,8.22-1.8,2.68-1.2,4.9-3,6.66-5.4,1.75-2.4,2.64-5.24,2.64-8.52v-.48h-15.96ZM383.56,854.21c-1.6-2.92-3.76-5.16-6.48-6.72-2.72-1.56-5.64-2.34-8.76-2.34s-6,.76-8.64,2.28c-2.64,1.52-4.78,3.74-6.42,6.66-1.64,2.92-2.46,6.38-2.46,10.38s.82,7.5,2.46,10.5,3.8,5.3,6.48,6.9c2.68,1.6,5.54,2.4,8.58,2.4s6.04-.78,8.76-2.34c2.72-1.56,4.88-3.8,6.48-6.72,1.6-2.92,2.4-6.42,2.4-10.5s-.8-7.58-2.4-10.5ZM383.56,854.21c-1.6-2.92-3.76-5.16-6.48-6.72-2.72-1.56-5.64-2.34-8.76-2.34s-6,.76-8.64,2.28c-2.64,1.52-4.78,3.74-6.42,6.66-1.64,2.92-2.46,6.38-2.46,10.38s.82,7.5,2.46,10.5,3.8,5.3,6.48,6.9c2.68,1.6,5.54,2.4,8.58,2.4s6.04-.78,8.76-2.34c2.72-1.56,4.88-3.8,6.48-6.72,1.6-2.92,2.4-6.42,2.4-10.5s-.8-7.58-2.4-10.5ZM219.77,869.39c-3.84,0-6.71.76-8.58,2.28-1.89,1.52-2.82,3.52-2.82,6s.85,4.32,2.58,5.76c1.72,1.44,4.14,2.16,7.26,2.16,2.79,0,5.53-.6,8.22-1.8,2.68-1.2,4.9-3,6.66-5.4,1.75-2.4,2.64-5.24,2.64-8.52v-.48h-15.96ZM123.36,864.77c-2.4-2.04-5.64-3.06-9.72-3.06h-16.56v22.56h16.92c4.08,0,7.26-.96,9.54-2.88,2.28-1.92,3.42-4.64,3.42-8.16s-1.2-6.42-3.6-8.46ZM121.68,830.51c-2.16-1.84-5.24-2.76-9.24-2.76h-15.36v21h15.36c4,0,7.08-.9,9.24-2.7,2.16-1.8,3.24-4.38,3.24-7.74s-1.08-5.96-3.24-7.8ZM121.68,830.51c-2.16-1.84-5.24-2.76-9.24-2.76h-15.36v21h15.36c4,0,7.08-.9,9.24-2.7,2.16-1.8,3.24-4.38,3.24-7.74s-1.08-5.96-3.24-7.8ZM123.36,864.77c-2.4-2.04-5.64-3.06-9.72-3.06h-16.56v22.56h16.92c4.08,0,7.26-.96,9.54-2.88,2.28-1.92,3.42-4.64,3.42-8.16s-1.2-6.42-3.6-8.46ZM219.77,869.39c-3.84,0-6.71.76-8.58,2.28-1.89,1.52-2.82,3.52-2.82,6s.85,4.32,2.58,5.76c1.72,1.44,4.14,2.16,7.26,2.16,2.79,0,5.53-.6,8.22-1.8,2.68-1.2,4.9-3,6.66-5.4,1.75-2.4,2.64-5.24,2.64-8.52v-.48h-15.96ZM383.56,854.21c-1.6-2.92-3.76-5.16-6.48-6.72-2.72-1.56-5.64-2.34-8.76-2.34s-6,.76-8.64,2.28c-2.64,1.52-4.78,3.74-6.42,6.66-1.64,2.92-2.46,6.38-2.46,10.38s.82,7.5,2.46,10.5,3.8,5.3,6.48,6.9c2.68,1.6,5.54,2.4,8.58,2.4s6.04-.78,8.76-2.34c2.72-1.56,4.88-3.8,6.48-6.72,1.6-2.92,2.4-6.42,2.4-10.5s-.8-7.58-2.4-10.5ZM383.56,854.21c-1.6-2.92-3.76-5.16-6.48-6.72-2.72-1.56-5.64-2.34-8.76-2.34s-6,.76-8.64,2.28c-2.64,1.52-4.78,3.74-6.42,6.66-1.64,2.92-2.46,6.38-2.46,10.38s.82,7.5,2.46,10.5,3.8,5.3,6.48,6.9c2.68,1.6,5.54,2.4,8.58,2.4s6.04-.78,8.76-2.34c2.72-1.56,4.88-3.8,6.48-6.72,1.6-2.92,2.4-6.42,2.4-10.5s-.8-7.58-2.4-10.5ZM219.77,869.39c-3.84,0-6.71.76-8.58,2.28-1.89,1.52-2.82,3.52-2.82,6s.85,4.32,2.58,5.76c1.72,1.44,4.14,2.16,7.26,2.16,2.79,0,5.53-.6,8.22-1.8,2.68-1.2,4.9-3,6.66-5.4,1.75-2.4,2.64-5.24,2.64-8.52v-.48h-15.96ZM123.36,864.77c-2.4-2.04-5.64-3.06-9.72-3.06h-16.56v22.56h16.92c4.08,0,7.26-.96,9.54-2.88,2.28-1.92,3.42-4.64,3.42-8.16s-1.2-6.42-3.6-8.46ZM121.68,830.51c-2.16-1.84-5.24-2.76-9.24-2.76h-15.36v21h15.36c4,0,7.08-.9,9.24-2.7,2.16-1.8,3.24-4.38,3.24-7.74s-1.08-5.96-3.24-7.8ZM121.68,830.51c-2.16-1.84-5.24-2.76-9.24-2.76h-15.36v21h15.36c4,0,7.08-.9,9.24-2.7,2.16-1.8,3.24-4.38,3.24-7.74s-1.08-5.96-3.24-7.8ZM123.36,864.77c-2.4-2.04-5.64-3.06-9.72-3.06h-16.56v22.56h16.92c4.08,0,7.26-.96,9.54-2.88,2.28-1.92,3.42-4.64,3.42-8.16s-1.2-6.42-3.6-8.46ZM219.77,869.39c-3.84,0-6.71.76-8.58,2.28-1.89,1.52-2.82,3.52-2.82,6s.85,4.32,2.58,5.76c1.72,1.44,4.14,2.16,7.26,2.16,2.79,0,5.53-.6,8.22-1.8,2.68-1.2,4.9-3,6.66-5.4,1.75-2.4,2.64-5.24,2.64-8.52v-.48h-15.96ZM219.77,869.39c-3.84,0-6.71.76-8.58,2.28-1.89,1.52-2.82,3.52-2.82,6s.85,4.32,2.58,5.76c1.72,1.44,4.14,2.16,7.26,2.16,2.79,0,5.53-.6,8.22-1.8,2.68-1.2,4.9-3,6.66-5.4,1.75-2.4,2.64-5.24,2.64-8.52v-.48h-15.96ZM123.36,864.77c-2.4-2.04-5.64-3.06-9.72-3.06h-16.56v22.56h16.92c4.08,0,7.26-.96,9.54-2.88,2.28-1.92,3.42-4.64,3.42-8.16s-1.2-6.42-3.6-8.46ZM121.68,830.51c-2.16-1.84-5.24-2.76-9.24-2.76h-15.36v21h15.36c4,0,7.08-.9,9.24-2.7,2.16-1.8,3.24-4.38,3.24-7.74s-1.08-5.96-3.24-7.8ZM121.68,830.51c-2.16-1.84-5.24-2.76-9.24-2.76h-15.36v21h15.36c4,0,7.08-.9,9.24-2.7,2.16-1.8,3.24-4.38,3.24-7.74s-1.08-5.96-3.24-7.8ZM123.36,864.77c-2.4-2.04-5.64-3.06-9.72-3.06h-16.56v22.56h16.92c4.08,0,7.26-.96,9.54-2.88,2.28-1.92,3.42-4.64,3.42-8.16s-1.2-6.42-3.6-8.46ZM123.36,864.77c-2.4-2.04-5.64-3.06-9.72-3.06h-16.56v22.56h16.92c4.08,0,7.26-.96,9.54-2.88,2.28-1.92,3.42-4.64,3.42-8.16s-1.2-6.42-3.6-8.46ZM121.68,830.51c-2.16-1.84-5.24-2.76-9.24-2.76h-15.36v21h15.36c4,0,7.08-.9,9.24-2.7,2.16-1.8,3.24-4.38,3.24-7.74s-1.08-5.96-3.24-7.8Z"/>
  </g>
</svg>