<?xml version="1.0" encoding="UTF-8"?>
<svg id="Layer_1" data-name="Layer 1" xmlns="http://www.w3.org/2000/svg" viewBox="0 0 1080 1080">
  <defs>
    <style>
      .cls-1 {
        fill: #036;
      }
    </style>
  </defs>
  <g id="coverVisualIdentity">
    <path class="cls-1" d="M346.31,869.39c-3.84,0-6.7.76-8.58,2.28s-2.82,3.52-2.82,6,.86,4.32,2.58,5.76,4.14,2.16,7.26,2.16c2.8,0,5.54-.6,8.22-1.8,2.68-1.2,4.9-3,6.66-5.4,1.76-2.4,2.64-5.24,2.64-8.52v-.48h-15.96ZM346.31,869.39c-3.84,0-6.7.76-8.58,2.28s-2.82,3.52-2.82,6,.86,4.32,2.58,5.76,4.14,2.16,7.26,2.16c2.8,0,5.54-.6,8.22-1.8,2.68-1.2,4.9-3,6.66-5.4,1.76-2.4,2.64-5.24,2.64-8.52v-.48h-15.96ZM346.31,869.39c-3.84,0-6.7.76-8.58,2.28s-2.82,3.52-2.82,6,.86,4.32,2.58,5.76,4.14,2.16,7.26,2.16c2.8,0,5.54-.6,8.22-1.8,2.68-1.2,4.9-3,6.66-5.4,1.76-2.4,2.64-5.24,2.64-8.52v-.48h-15.96ZM346.31,869.39c-3.84,0-6.7.76-8.58,2.28s-2.82,3.52-2.82,6,.86,4.32,2.58,5.76,4.14,2.16,7.26,2.16c2.8,0,5.54-.6,8.22-1.8,2.68-1.2,4.9-3,6.66-5.4,1.76-2.4,2.64-5.24,2.64-8.52v-.48h-15.96ZM155.29,964.21c-1.6-2.92-3.76-5.16-6.48-6.72s-5.64-2.34-8.76-2.34-6,.76-8.64,2.28c-2.64,1.52-4.78,3.74-6.42,6.66-1.64,2.92-2.46,6.38-2.46,10.38s.82,7.5,2.46,10.5,3.8,5.3,6.48,6.9c2.68,1.6,5.54,2.4,8.58,2.4s6.04-.78,8.76-2.34,4.88-3.8,6.48-6.72c1.6-2.92,2.4-6.42,2.4-10.5s-.8-7.58-2.4-10.5ZM225.78,958.09c-3.04-2.6-6.76-3.9-11.16-3.9-4.16,0-7.66,1.26-10.5,3.78-2.84,2.52-4.58,6.02-5.22,10.5h31.56c-.08-4.32-1.64-7.78-4.68-10.38ZM346.31,869.39c-3.84,0-6.7.76-8.58,2.28s-2.82,3.52-2.82,6,.86,4.32,2.58,5.76,4.14,2.16,7.26,2.16c2.8,0,5.54-.6,8.22-1.8,2.68-1.2,4.9-3,6.66-5.4,1.76-2.4,2.64-5.24,2.64-8.52v-.48h-15.96ZM346.31,869.39c-3.84,0-6.7.76-8.58,2.28s-2.82,3.52-2.82,6,.86,4.32,2.58,5.76,4.14,2.16,7.26,2.16c2.8,0,5.54-.6,8.22-1.8,2.68-1.2,4.9-3,6.66-5.4,1.76-2.4,2.64-5.24,2.64-8.52v-.48h-15.96ZM225.78,958.09c-3.04-2.6-6.76-3.9-11.16-3.9-4.16,0-7.66,1.26-10.5,3.78-2.84,2.52-4.58,6.02-5.22,10.5h31.56c-.08-4.32-1.64-7.78-4.68-10.38ZM155.29,964.21c-1.6-2.92-3.76-5.16-6.48-6.72s-5.64-2.34-8.76-2.34-6,.76-8.64,2.28c-2.64,1.52-4.78,3.74-6.42,6.66-1.64,2.92-2.46,6.38-2.46,10.38s.82,7.5,2.46,10.5,3.8,5.3,6.48,6.9c2.68,1.6,5.54,2.4,8.58,2.4s6.04-.78,8.76-2.34,4.88-3.8,6.48-6.72c1.6-2.92,2.4-6.42,2.4-10.5s-.8-7.58-2.4-10.5ZM155.29,964.21c-1.6-2.92-3.76-5.16-6.48-6.72s-5.64-2.34-8.76-2.34-6,.76-8.64,2.28c-2.64,1.52-4.78,3.74-6.42,6.66-1.64,2.92-2.46,6.38-2.46,10.38s.82,7.5,2.46,10.5,3.8,5.3,6.48,6.9c2.68,1.6,5.54,2.4,8.58,2.4s6.04-.78,8.76-2.34,4.88-3.8,6.48-6.72c1.6-2.92,2.4-6.42,2.4-10.5s-.8-7.58-2.4-10.5ZM225.78,958.09c-3.04-2.6-6.76-3.9-11.16-3.9-4.16,0-7.66,1.26-10.5,3.78-2.84,2.52-4.58,6.02-5.22,10.5h31.56c-.08-4.32-1.64-7.78-4.68-10.38ZM346.31,869.39c-3.84,0-6.7.76-8.58,2.28s-2.82,3.52-2.82,6,.86,4.32,2.58,5.76,4.14,2.16,7.26,2.16c2.8,0,5.54-.6,8.22-1.8,2.68-1.2,4.9-3,6.66-5.4,1.76-2.4,2.64-5.24,2.64-8.52v-.48h-15.96ZM346.31,869.39c-3.84,0-6.7.76-8.58,2.28s-2.82,3.52-2.82,6,.86,4.32,2.58,5.76,4.14,2.16,7.26,2.16c2.8,0,5.54-.6,8.22-1.8,2.68-1.2,4.9-3,6.66-5.4,1.76-2.4,2.64-5.24,2.64-8.52v-.48h-15.96ZM225.78,958.09c-3.04-2.6-6.76-3.9-11.16-3.9-4.16,0-7.66,1.26-10.5,3.78-2.84,2.52-4.58,6.02-5.22,10.5h31.56c-.08-4.32-1.64-7.78-4.68-10.38ZM155.29,964.21c-1.6-2.92-3.76-5.16-6.48-6.72s-5.64-2.34-8.76-2.34-6,.76-8.64,2.28c-2.64,1.52-4.78,3.74-6.42,6.66-1.64,2.92-2.46,6.38-2.46,10.38s.82,7.5,2.46,10.5,3.8,5.3,6.48,6.9c2.68,1.6,5.54,2.4,8.58,2.4s6.04-.78,8.76-2.34,4.88-3.8,6.48-6.72c1.6-2.92,2.4-6.42,2.4-10.5s-.8-7.58-2.4-10.5ZM155.29,964.21c-1.6-2.92-3.76-5.16-6.48-6.72s-5.64-2.34-8.76-2.34-6,.76-8.64,2.28c-2.64,1.52-4.78,3.74-6.42,6.66-1.64,2.92-2.46,6.38-2.46,10.38s.82,7.5,2.46,10.5,3.8,5.3,6.48,6.9c2.68,1.6,5.54,2.4,8.58,2.4s6.04-.78,8.76-2.34,4.88-3.8,6.48-6.72c1.6-2.92,2.4-6.42,2.4-10.5s-.8-7.58-2.4-10.5ZM225.78,958.09c-3.04-2.6-6.76-3.9-11.16-3.9-4.16,0-7.66,1.26-10.5,3.78-2.84,2.52-4.58,6.02-5.22,10.5h31.56c-.08-4.32-1.64-7.78-4.68-10.38ZM346.31,869.39c-3.84,0-6.7.76-8.58,2.28s-2.82,3.52-2.82,6,.86,4.32,2.58,5.76,4.14,2.16,7.26,2.16c2.8,0,5.54-.6,8.22-1.8,2.68-1.2,4.9-3,6.66-5.4,1.76-2.4,2.64-5.24,2.64-8.52v-.48h-15.96ZM346.31,869.39c-3.84,0-6.7.76-8.58,2.28s-2.82,3.52-2.82,6,.86,4.32,2.58,5.76,4.14,2.16,7.26,2.16c2.8,0,5.54-.6,8.22-1.8,2.68-1.2,4.9-3,6.66-5.4,1.76-2.4,2.64-5.24,2.64-8.52v-.48h-15.96ZM225.78,958.09c-3.04-2.6-6.76-3.9-11.16-3.9-4.16,0-7.66,1.26-10.5,3.78-2.84,2.52-4.58,6.02-5.22,10.5h31.56c-.08-4.32-1.64-7.78-4.68-10.38ZM155.29,964.21c-1.6-2.92-3.76-5.16-6.48-6.72s-5.64-2.34-8.76-2.34-6,.76-8.64,2.28c-2.64,1.52-4.78,3.74-6.42,6.66-1.64,2.92-2.46,6.38-2.46,10.38s.82,7.5,2.46,10.5,3.8,5.3,6.48,6.9c2.68,1.6,5.54,2.4,8.58,2.4s6.04-.78,8.76-2.34,4.88-3.8,6.48-6.72c1.6-2.92,2.4-6.42,2.4-10.5s-.8-7.58-2.4-10.5ZM155.29,964.21c-1.6-2.92-3.76-5.16-6.48-6.72s-5.64-2.34-8.76-2.34-6,.76-8.64,2.28c-2.64,1.52-4.78,3.74-6.42,6.66-1.64,2.92-2.46,6.38-2.46,10.38s.82,7.5,2.46,10.5,3.8,5.3,6.48,6.9c2.68,1.6,5.54,2.4,8.58,2.4s6.04-.78,8.76-2.34,4.88-3.8,6.48-6.72c1.6-2.92,2.4-6.42,2.4-10.5s-.8-7.58-2.4-10.5ZM225.78,958.09c-3.04-2.6-6.76-3.9-11.16-3.9-4.16,0-7.66,1.26-10.5,3.78-2.84,2.52-4.58,6.02-5.22,10.5h31.56c-.08-4.32-1.64-7.78-4.68-10.38ZM346.31,869.39c-3.84,0-6.7.76-8.58,2.28s-2.82,3.52-2.82,6,.86,4.32,2.58,5.76,4.14,2.16,7.26,2.16c2.8,0,5.54-.6,8.22-1.8,2.68-1.2,4.9-3,6.66-5.4,1.76-2.4,2.64-5.24,2.64-8.52v-.48h-15.96ZM346.31,869.39c-3.84,0-6.7.76-8.58,2.28s-2.82,3.52-2.82,6,.86,4.32,2.58,5.76,4.14,2.16,7.26,2.16c2.8,0,5.54-.6,8.22-1.8,2.68-1.2,4.9-3,6.66-5.4,1.76-2.4,2.64-5.24,2.64-8.52v-.48h-15.96ZM225.78,958.09c-3.04-2.6-6.76-3.9-11.16-3.9-4.16,0-7.66,1.26-10.5,3.78-2.84,2.52-4.58,6.02-5.22,10.5h31.56c-.08-4.32-1.64-7.78-4.68-10.38ZM155.29,964.21c-1.6-2.92-3.76-5.16-6.48-6.72s-5.64-2.34-8.76-2.34-6,.76-8.64,2.28c-2.64,1.52-4.78,3.74-6.42,6.66-1.64,2.92-2.46,6.38-2.46,10.38s.82,7.5,2.46,10.5,3.8,5.3,6.48,6.9c2.68,1.6,5.54,2.4,8.58,2.4s6.04-.78,8.76-2.34,4.88-3.8,6.48-6.72c1.6-2.92,2.4-6.42,2.4-10.5s-.8-7.58-2.4-10.5ZM0,0v1080h1080V0H0ZM212.46,830.39c7.92,0,14.24,1.98,18.96,5.94,4.72,3.96,7.32,9.3,7.8,16.02h-16.08c-.24-2.64-1.34-4.74-3.3-6.3-1.96-1.56-4.58-2.34-7.86-2.34-3.04,0-5.38.56-7.02,1.68-1.64,1.12-2.46,2.68-2.46,4.68,0,2.24,1.12,3.94,3.36,5.1s5.72,2.34,10.44,3.54c4.8,1.2,8.76,2.44,11.88,3.72,3.12,1.28,5.82,3.26,8.1,5.94s3.46,6.22,3.54,10.62c0,3.84-1.06,7.28-3.18,10.32-2.12,3.04-5.16,5.42-9.12,7.14-3.96,1.72-8.58,2.58-13.86,2.58s-10.32-.98-14.64-2.94c-4.32-1.96-7.74-4.62-10.26-7.98s-3.9-7.08-4.14-11.16h16.92c.32,2.56,1.58,4.68,3.78,6.36,2.2,1.68,4.94,2.52,8.22,2.52s5.7-.64,7.5-1.92c1.8-1.28,2.7-2.92,2.7-4.92,0-2.16-1.1-3.78-3.3-4.86-2.2-1.08-5.7-2.26-10.5-3.54-4.96-1.2-9.02-2.44-12.18-3.72-3.16-1.28-5.88-3.24-8.16-5.88-2.28-2.64-3.42-6.2-3.42-10.68,0-3.68,1.06-7.04,3.18-10.08s5.16-5.44,9.12-7.2,8.62-2.64,13.98-2.64ZM193.95,72l-8.55,54h-10.8l8.55-54h10.8ZM139.95,72l20.9,38.57,6.1-38.57h10.8l-8.55,54h-10.8l-20.9-38.57,2.45-15.43ZM80.55,72h10.8l9.79,40.5,22.61-40.5h10.8l-8.55,54h-10.8l4.28-27-15.08,27h-10.8l-6.52-27-4.28,27h-10.8l8.55-54ZM97.08,1007.95h-16.8v-83.76h16.8v83.76ZM73.68,814.19h18l23.04,66.6,22.92-66.6h17.88l-30.72,83.76h-20.4l-30.72-83.76ZM174.61,1007.95h-17.04v-9.84c-2.08,3.28-5,5.92-8.76,7.92s-8.12,3-13.08,3c-5.6,0-10.72-1.44-15.36-4.32s-8.3-6.94-10.98-12.18-4.02-11.26-4.02-18.06,1.34-12.68,4.02-17.88c2.68-5.2,6.34-9.2,10.98-12,4.64-2.8,9.8-4.2,15.48-4.2,4.32,0,8.44.94,12.36,2.82,3.92,1.88,7.04,4.38,9.36,7.5v-31.56h17.04v88.8ZM177.22,897.95h-16.8v-66.48h16.8v66.48ZM176.32,820.73c-1.97,1.88-4.43,2.82-7.38,2.82s-5.42-.94-7.38-2.82c-1.97-1.88-2.94-4.22-2.94-7.02s.97-5.14,2.94-7.02c1.96-1.88,4.41-2.82,7.38-2.82s5.41.94,7.38,2.82c1.96,1.88,2.94,4.22,2.94,7.02s-.98,5.14-2.94,7.02ZM247.38,979.75h-48.6c.4,4.8,2.08,8.56,5.04,11.28,2.96,2.72,6.6,4.08,10.92,4.08,6.24,0,10.68-2.68,13.32-8.04h18.12c-1.92,6.4-5.6,11.66-11.04,15.78s-12.12,6.18-20.04,6.18c-6.4,0-12.14-1.42-17.22-4.26-5.08-2.84-9.04-6.86-11.88-12.06-2.84-5.2-4.26-11.2-4.26-18s1.4-12.92,4.2-18.12c2.8-5.2,6.72-9.2,11.76-12,5.04-2.8,10.84-4.2,17.4-4.2s11.98,1.36,16.98,4.08c5,2.72,8.88,6.58,11.64,11.58s4.14,10.74,4.14,17.22c0,2.4-.16,4.56-.48,6.48ZM250.37,885.77c-2.28-4.28-3.42-9.38-3.42-15.3v-39h16.8v36.6c0,5.28,1.32,9.34,3.96,12.18,2.64,2.84,6.24,4.26,10.8,4.26s8.28-1.42,10.92-4.26c2.64-2.84,3.96-6.9,3.96-12.18v-36.6h16.92v66.48h-16.92v-8.4c-2.16,2.88-4.98,5.14-8.46,6.78-3.48,1.64-7.26,2.46-11.34,2.46-5.2,0-9.8-1.1-13.8-3.3s-7.14-5.44-9.42-9.72ZM318.47,1007.95h-16.8v-36.72c0-5.28-1.32-9.34-3.96-12.18-2.64-2.84-6.24-4.26-10.8-4.26s-8.3,1.42-10.98,4.26c-2.69,2.84-4.02,6.9-4.02,12.18v36.72h-16.8v-66.48h16.8v8.28c2.23-2.88,5.1-5.14,8.58-6.78s7.3-2.46,11.46-2.46c7.92,0,14.32,2.5,19.2,7.5,4.87,5,7.32,11.98,7.32,20.94v39ZM317.75,879.47c0-6.16,2.3-11.2,6.9-15.12s11.5-5.88,20.7-5.88h16.92c-.16-4.24-1.38-7.62-3.66-10.14-2.28-2.52-5.42-3.78-9.42-3.78-3.52,0-6.44.94-8.76,2.82-2.32,1.88-3.8,4.5-4.44,7.86h-16.8c.8-4.8,2.54-9.1,5.22-12.9,2.68-3.8,6.2-6.76,10.56-8.88,4.36-2.12,9.26-3.18,14.7-3.18s10.66,1.16,15.18,3.48c4.52,2.32,8.06,5.64,10.62,9.96,2.56,4.32,3.84,9.4,3.84,15.24v39h-17.04v-9.48c-1.84,3.04-4.84,5.58-9,7.62-4.16,2.04-8.64,3.06-13.44,3.06-4.16,0-7.92-.84-11.28-2.52-3.36-1.68-6-4-7.92-6.96s-2.88-6.36-2.88-10.2ZM362.45,955.27h-14.89v32.16c0,2.24.55,3.86,1.63,4.86,1.08,1,2.89,1.5,5.45,1.5h7.81v14.16h-10.57c-14.16,0-21.24-6.88-21.24-20.64v-32.04h-7.92v-13.8h7.92v-16.44h16.92v16.44h14.89v13.8ZM386.35,1007.95h-16.8v-66.48h16.8v66.48ZM385.45,930.73c-1.96,1.88-4.42,2.82-7.38,2.82s-5.42-.94-7.38-2.82c-1.96-1.88-2.94-4.22-2.94-7.02s.98-5.14,2.94-7.02c1.96-1.88,4.42-2.82,7.38-2.82s5.42.94,7.38,2.82,2.94,4.22,2.94,7.02-.98,5.14-2.94,7.02ZM390.21,809.15h16.8v88.8h-16.8v-88.8ZM431.43,955.27h-14.88v32.16c0,2.24.54,3.86,1.62,4.86,1.08,1,2.9,1.5,5.46,1.5h7.8v14.16h-10.56c-14.16,0-21.24-6.88-21.24-20.64v-32.04h-7.92v-13.8h7.92v-16.44h16.92v16.44h14.88v13.8ZM463,1039.39h-17.88l14.4-33.12-26.64-64.8h18.84l17.16,46.44,17.4-46.44h17.88l-41.16,97.92ZM1008,1008h-58.14v-12.24h37.25l-69.11-69.11,8.65-8.65,69.11,69.11v-37.25h12.24v58.14ZM337.49,883.43c1.72,1.44,4.14,2.16,7.26,2.16,2.8,0,5.54-.6,8.22-1.8,2.68-1.2,4.9-3,6.66-5.4,1.76-2.4,2.64-5.24,2.64-8.52v-.48h-15.96c-3.84,0-6.7.76-8.58,2.28s-2.82,3.52-2.82,6,.86,4.32,2.58,5.76ZM225.78,958.09c-3.04-2.6-6.76-3.9-11.16-3.9-4.16,0-7.66,1.26-10.5,3.78-2.84,2.52-4.58,6.02-5.22,10.5h31.56c-.08-4.32-1.64-7.78-4.68-10.38ZM148.81,957.49c-2.72-1.56-5.64-2.34-8.76-2.34s-6,.76-8.64,2.28c-2.64,1.52-4.78,3.74-6.42,6.66-1.64,2.92-2.46,6.38-2.46,10.38s.82,7.5,2.46,10.5,3.8,5.3,6.48,6.9c2.68,1.6,5.54,2.4,8.58,2.4s6.04-.78,8.76-2.34,4.88-3.8,6.48-6.72c1.6-2.92,2.4-6.42,2.4-10.5s-.8-7.58-2.4-10.5c-1.6-2.92-3.76-5.16-6.48-6.72ZM155.29,964.21c-1.6-2.92-3.76-5.16-6.48-6.72s-5.64-2.34-8.76-2.34-6,.76-8.64,2.28c-2.64,1.52-4.78,3.74-6.42,6.66-1.64,2.92-2.46,6.38-2.46,10.38s.82,7.5,2.46,10.5,3.8,5.3,6.48,6.9c2.68,1.6,5.54,2.4,8.58,2.4s6.04-.78,8.76-2.34,4.88-3.8,6.48-6.72c1.6-2.92,2.4-6.42,2.4-10.5s-.8-7.58-2.4-10.5ZM225.78,958.09c-3.04-2.6-6.76-3.9-11.16-3.9-4.16,0-7.66,1.26-10.5,3.78-2.84,2.52-4.58,6.02-5.22,10.5h31.56c-.08-4.32-1.64-7.78-4.68-10.38ZM346.31,869.39c-3.84,0-6.7.76-8.58,2.28s-2.82,3.52-2.82,6,.86,4.32,2.58,5.76,4.14,2.16,7.26,2.16c2.8,0,5.54-.6,8.22-1.8,2.68-1.2,4.9-3,6.66-5.4,1.76-2.4,2.64-5.24,2.64-8.52v-.48h-15.96ZM346.31,869.39c-3.84,0-6.7.76-8.58,2.28s-2.82,3.52-2.82,6,.86,4.32,2.58,5.76,4.14,2.16,7.26,2.16c2.8,0,5.54-.6,8.22-1.8,2.68-1.2,4.9-3,6.66-5.4,1.76-2.4,2.64-5.24,2.64-8.52v-.48h-15.96ZM225.78,958.09c-3.04-2.6-6.76-3.9-11.16-3.9-4.16,0-7.66,1.26-10.5,3.78-2.84,2.52-4.58,6.02-5.22,10.5h31.56c-.08-4.32-1.64-7.78-4.68-10.38ZM155.29,964.21c-1.6-2.92-3.76-5.16-6.48-6.72s-5.64-2.34-8.76-2.34-6,.76-8.64,2.28c-2.64,1.52-4.78,3.74-6.42,6.66-1.64,2.92-2.46,6.38-2.46,10.38s.82,7.5,2.46,10.5,3.8,5.3,6.48,6.9c2.68,1.6,5.54,2.4,8.58,2.4s6.04-.78,8.76-2.34,4.88-3.8,6.48-6.72c1.6-2.92,2.4-6.42,2.4-10.5s-.8-7.58-2.4-10.5ZM155.29,964.21c-1.6-2.92-3.76-5.16-6.48-6.72s-5.64-2.34-8.76-2.34-6,.76-8.64,2.28c-2.64,1.52-4.78,3.74-6.42,6.66-1.64,2.92-2.46,6.38-2.46,10.38s.82,7.5,2.46,10.5,3.8,5.3,6.48,6.9c2.68,1.6,5.54,2.4,8.58,2.4s6.04-.78,8.76-2.34,4.88-3.8,6.48-6.72c1.6-2.92,2.4-6.42,2.4-10.5s-.8-7.58-2.4-10.5ZM225.78,958.09c-3.04-2.6-6.76-3.9-11.16-3.9-4.16,0-7.66,1.26-10.5,3.78-2.84,2.52-4.58,6.02-5.22,10.5h31.56c-.08-4.32-1.64-7.78-4.68-10.38ZM346.31,869.39c-3.84,0-6.7.76-8.58,2.28s-2.82,3.52-2.82,6,.86,4.32,2.58,5.76,4.14,2.16,7.26,2.16c2.8,0,5.54-.6,8.22-1.8,2.68-1.2,4.9-3,6.66-5.4,1.76-2.4,2.64-5.24,2.64-8.52v-.48h-15.96ZM346.31,869.39c-3.84,0-6.7.76-8.58,2.28s-2.82,3.52-2.82,6,.86,4.32,2.58,5.76,4.14,2.16,7.26,2.16c2.8,0,5.54-.6,8.22-1.8,2.68-1.2,4.9-3,6.66-5.4,1.76-2.4,2.64-5.24,2.64-8.52v-.48h-15.96ZM225.78,958.09c-3.04-2.6-6.76-3.9-11.16-3.9-4.16,0-7.66,1.26-10.5,3.78-2.84,2.52-4.58,6.02-5.22,10.5h31.56c-.08-4.32-1.64-7.78-4.68-10.38ZM155.29,964.21c-1.6-2.92-3.76-5.16-6.48-6.72s-5.64-2.34-8.76-2.34-6,.76-8.64,2.28c-2.64,1.52-4.78,3.74-6.42,6.66-1.64,2.92-2.46,6.38-2.46,10.38s.82,7.5,2.46,10.5,3.8,5.3,6.48,6.9c2.68,1.6,5.54,2.4,8.58,2.4s6.04-.78,8.76-2.34,4.88-3.8,6.48-6.72c1.6-2.92,2.4-6.42,2.4-10.5s-.8-7.58-2.4-10.5ZM155.29,964.21c-1.6-2.92-3.76-5.16-6.48-6.72s-5.64-2.34-8.76-2.34-6,.76-8.64,2.28c-2.64,1.52-4.78,3.74-6.42,6.66-1.64,2.92-2.46,6.38-2.46,10.38s.82,7.5,2.46,10.5,3.8,5.3,6.48,6.9c2.68,1.6,5.54,2.4,8.58,2.4s6.04-.78,8.76-2.34,4.88-3.8,6.48-6.72c1.6-2.92,2.4-6.42,2.4-10.5s-.8-7.58-2.4-10.5ZM225.78,958.09c-3.04-2.6-6.76-3.9-11.16-3.9-4.16,0-7.66,1.26-10.5,3.78-2.84,2.52-4.58,6.02-5.22,10.5h31.56c-.08-4.32-1.64-7.78-4.68-10.38ZM346.31,869.39c-3.84,0-6.7.76-8.58,2.28s-2.82,3.52-2.82,6,.86,4.32,2.58,5.76,4.14,2.16,7.26,2.16c2.8,0,5.54-.6,8.22-1.8,2.68-1.2,4.9-3,6.66-5.4,1.76-2.4,2.64-5.24,2.64-8.52v-.48h-15.96ZM346.31,869.39c-3.84,0-6.7.76-8.58,2.28s-2.82,3.52-2.82,6,.86,4.32,2.58,5.76,4.14,2.16,7.26,2.16c2.8,0,5.54-.6,8.22-1.8,2.68-1.2,4.9-3,6.66-5.4,1.76-2.4,2.64-5.24,2.64-8.52v-.48h-15.96ZM225.78,958.09c-3.04-2.6-6.76-3.9-11.16-3.9-4.16,0-7.66,1.26-10.5,3.78-2.84,2.52-4.58,6.02-5.22,10.5h31.56c-.08-4.32-1.64-7.78-4.68-10.38ZM155.29,964.21c-1.6-2.92-3.76-5.16-6.48-6.72s-5.64-2.34-8.76-2.34-6,.76-8.64,2.28c-2.64,1.52-4.78,3.74-6.42,6.66-1.64,2.92-2.46,6.38-2.46,10.38s.82,7.5,2.46,10.5,3.8,5.3,6.48,6.9c2.68,1.6,5.54,2.4,8.58,2.4s6.04-.78,8.76-2.34,4.88-3.8,6.48-6.72c1.6-2.92,2.4-6.42,2.4-10.5s-.8-7.58-2.4-10.5ZM155.29,964.21c-1.6-2.92-3.76-5.16-6.48-6.72s-5.64-2.34-8.76-2.34-6,.76-8.64,2.28c-2.64,1.52-4.78,3.74-6.42,6.66-1.64,2.92-2.46,6.38-2.46,10.38s.82,7.5,2.46,10.5,3.8,5.3,6.48,6.9c2.68,1.6,5.54,2.4,8.58,2.4s6.04-.78,8.76-2.34,4.88-3.8,6.48-6.72c1.6-2.92,2.4-6.42,2.4-10.5s-.8-7.58-2.4-10.5ZM346.31,869.39c-3.84,0-6.7.76-8.58,2.28s-2.82,3.52-2.82,6,.86,4.32,2.58,5.76,4.14,2.16,7.26,2.16c2.8,0,5.54-.6,8.22-1.8,2.68-1.2,4.9-3,6.66-5.4,1.76-2.4,2.64-5.24,2.64-8.52v-.48h-15.96ZM346.31,869.39c-3.84,0-6.7.76-8.58,2.28s-2.82,3.52-2.82,6,.86,4.32,2.58,5.76,4.14,2.16,7.26,2.16c2.8,0,5.54-.6,8.22-1.8,2.68-1.2,4.9-3,6.66-5.4,1.76-2.4,2.64-5.24,2.64-8.52v-.48h-15.96ZM155.29,964.21c-1.6-2.92-3.76-5.16-6.48-6.72s-5.64-2.34-8.76-2.34-6,.76-8.64,2.28c-2.64,1.52-4.78,3.74-6.42,6.66-1.64,2.92-2.46,6.38-2.46,10.38s.82,7.5,2.46,10.5,3.8,5.3,6.48,6.9c2.68,1.6,5.54,2.4,8.58,2.4s6.04-.78,8.76-2.34,4.88-3.8,6.48-6.72c1.6-2.92,2.4-6.42,2.4-10.5s-.8-7.58-2.4-10.5ZM346.31,869.39c-3.84,0-6.7.76-8.58,2.28s-2.82,3.52-2.82,6,.86,4.32,2.58,5.76,4.14,2.16,7.26,2.16c2.8,0,5.54-.6,8.22-1.8,2.68-1.2,4.9-3,6.66-5.4,1.76-2.4,2.64-5.24,2.64-8.52v-.48h-15.96ZM346.31,869.39c-3.84,0-6.7.76-8.58,2.28s-2.82,3.52-2.82,6,.86,4.32,2.58,5.76,4.14,2.16,7.26,2.16c2.8,0,5.54-.6,8.22-1.8,2.68-1.2,4.9-3,6.66-5.4,1.76-2.4,2.64-5.24,2.64-8.52v-.48h-15.96Z"/>
  </g>
</svg>