<?xml version="1.0" encoding="UTF-8"?>
<svg id="Alternative_Logo" xmlns="http://www.w3.org/2000/svg" version="1.1" viewBox="0 0 2476.1 1314">
  <!-- Generator: Adobe Illustrator 29.4.0, SVG Export Plug-In . SVG Version: 2.1.0 Build 152)  -->
  <defs>
    <style>
      .st0 {
        fill: #f9f9f9;
      }
    </style>
  </defs>
  <g id="Color">
    <g>
      <polygon class="st0" points="2260.1 0 2089.1 1080 2305.1 1080 2476.1 0 2260.1 0"/>
      <polygon class="st0" points="619.8 810 424 0 208.1 0 37 1080 253.1 1080 338.5 540 469 1080 685 1080 986.5 540 901 1080 1117.1 1080 1288.1 0 1072.1 0 619.8 810"/>
      <polygon class="st0" points="1936.1 0 1813.9 771.4 1396.1 0 1347.2 308.6 1765.1 1080 1981.1 1080 2152.1 0 1936.1 0"/>
    </g>
    <g>
      <polygon class="st0" points="68 1282.5 45.2 1188 20 1188 0 1314 25.2 1314 35.2 1251 50.4 1314 75.6 1314 110.8 1251 100.8 1314 126 1314 145.9 1188 120.8 1188 68 1282.5"/>
      <path class="st0" d="M227.1,1219.7c-6.7-4-14.6-6-23.9-6s-18.4,2.1-26.4,6.1-14.7,9.9-19.9,17.5c-5.3,7.6-8.7,16.4-10.3,26.5-1.6,9.9-.9,18.7,2.1,26.3,2.9,7.6,7.8,13.5,14.6,17.6s14.8,6.2,24.2,6.2c11.6,0,21.8-3,30.7-9s15.5-13.7,19.8-23.1h-26.5c-5.1,7.8-12.2,11.7-21.3,11.7-6.3,0-11.3-2-15-6s-5.3-9.5-4.8-16.5h71c.9-2.8,1.6-6,2.2-9.5,1.5-9.5.8-17.8-2.1-25.2-3-7-7.8-12.6-14.4-16.6h0ZM173,1254.8c2-6.5,5.3-11.7,10.1-15.3,4.7-3.7,10.1-5.5,16.2-5.5,6.4,0,11.6,1.9,15.4,5.7,3.8,3.8,5.3,8.8,4.4,15.2h-46.1v-.1h0Z"/>
      <polygon class="st0" points="361.5 1314 386.1 1314 401.9 1213.7 377.4 1213.7 361.5 1314"/>
      <path class="st0" d="M380.9,1191.9l-1.9,11.8h20.6c2.2,0,4.2-1.8,4.6-3.9l1.9-11.8h-20.6c-2.3,0-4.3,1.8-4.6,3.9Z"/>
      <path class="st0" d="M491,1213.7l-2.4,15.4c-2.6-4.4-6.3-8.1-11.3-11s-11.1-4.4-18.3-4.4c-8.3,0-16.1,2.1-23.5,6.1s-13.6,9.9-18.7,17.5-8.5,16.3-10,26.1c-1.6,9.9-1,18.7,1.7,26.4,2.7,7.7,7.1,13.6,13.1,17.8,6,4.2,13.2,6.3,21.4,6.3,7.2,0,13.9-1.5,19.9-4.5s11-6.8,14.9-11.3l-2.5,15.8h24.7l15.9-100.3-24.9.1h0ZM477.1,1279.2c-3,4.3-6.7,7.5-11,9.8s-8.8,3.4-13.3,3.4-8.4-1.2-12-3.5c-3.5-2.3-6.2-5.7-7.9-10.1-1.7-4.4-2.1-9.5-1.2-15.3s2.9-10.9,6-15.2c3.1-4.3,6.7-7.5,10.9-9.7,4.2-2.2,8.6-3.3,13.1-3.3s8.6,1.1,12.3,3.4c3.6,2.3,6.2,5.6,7.9,9.8,1.7,4.3,2,9.4,1.1,15.3s-2.9,11.1-5.9,15.4h0Z"/>
      <path class="st0" d="M337.5,1228.8c-2.7-4.6-6.6-8.2-11.9-11-5.3-2.7-11.1-4.1-17.4-4.1-8.3,0-16.2,2.1-23.6,6.1-7.4,4.1-13.7,9.9-18.8,17.5-5.1,7.6-8.5,16.3-10,26.1s-1,18.7,1.7,26.4c2.7,7.7,7.1,13.6,13.2,17.8,6.1,4.2,13.3,6.3,21.4,6.3,7.2,0,13.8-1.5,19.8-4.4s10.8-6.8,14.6-11.6l-2.5,16.1h24.9l20-126h-24.9l-6.5,40.8h0ZM326.2,1279.2c-3,4.3-6.7,7.5-11,9.8s-8.8,3.4-13.3,3.4-8.4-1.2-12-3.5c-3.5-2.3-6.2-5.7-7.9-10.1-1.7-4.4-2.1-9.5-1.2-15.3s2.9-10.9,6-15.2c3.1-4.3,6.7-7.5,10.9-9.7,4.2-2.2,8.6-3.3,13.1-3.3s8.6,1.1,12.3,3.4c3.6,2.3,6.2,5.6,7.9,9.8,1.7,4.3,2,9.4,1.1,15.3s-2.9,11.2-5.9,15.4h0Z"/>
    </g>
    <g>
      <polygon class="st0" points="1179.8 1314 1204.4 1314 1220.2 1213.7 1195.7 1213.7 1179.8 1314"/>
      <path class="st0" d="M1197.3,1203.8h20.6c2.2,0,4.2-1.8,4.6-3.9l1.9-11.8h-20.6c-2.2,0-4.2,1.8-4.6,3.9l-1.9,11.8Z"/>
      <path class="st0" d="M712.8,1237.4c5.1-7.6,11.4-13.4,18.7-17.5,7.4-4.1,15.2-6.1,23.5-6.1,7.2,0,13.3,1.5,18.3,4.4s8.7,6.6,11.3,11l2.4-15.4h24.7l-15.7,100.2h-24.7l2.5-15.8c-3.9,4.6-8.8,8.3-14.8,11.3s-12.7,4.5-19.9,4.5c-8.2,0-15.3-2.1-21.3-6.3-6.1-4.2-10.4-10.1-13.1-17.8s-3.3-16.4-1.7-26.4c1.4-9.8,4.7-18.5,9.8-26.1h0ZM778.1,1248.5c-1.7-4.3-4.3-7.5-7.9-9.8-3.6-2.3-7.7-3.4-12.3-3.4s-8.9,1.1-13.2,3.3-7.8,5.5-10.9,9.7-5.1,9.3-6,15.2c-.9,5.8-.5,11,1.2,15.3,1.7,4.4,4.3,7.7,7.9,10.1,3.5,2.3,7.5,3.5,12,3.5s9-1.1,13.3-3.4,8-5.6,11-9.8c3-4.3,5-9.4,5.9-15.3s.7-11.1-1-15.4h0Z"/>
      <path class="st0" d="M977.7,1237.4c5.1-7.6,11.4-13.4,18.7-17.5,7.4-4.1,15.2-6.1,23.5-6.1,7.2,0,13.3,1.5,18.3,4.4s8.7,6.6,11.3,11l2.4-15.4h24.7l-15.9,100.3h-24.7l2.5-15.8c-3.9,4.6-8.8,8.3-14.8,11.3-6,3-12.7,4.5-19.9,4.5-8.2,0-15.3-2.1-21.3-6.3-6.1-4.2-10.4-10.1-13.1-17.8s-3.3-16.4-1.7-26.4c1.6-9.9,4.9-18.6,10-26.2h0ZM1043,1248.5c-1.7-4.3-4.3-7.5-7.9-9.8s-7.7-3.4-12.3-3.4-8.9,1.1-13.2,3.3-7.8,5.5-10.9,9.7-5.1,9.3-6,15.2c-.9,5.8-.5,11,1.2,15.3,1.7,4.4,4.3,7.7,7.9,10.1,3.5,2.3,7.5,3.5,12,3.5s9-1.1,13.3-3.4c4.3-2.3,8-5.6,11-9.8,3-4.3,5-9.4,5.9-15.3,1-6,.7-11.1-1-15.4h0Z"/>
      <path class="st0" d="M1300.8,1237.4c5.1-7.6,11.4-13.4,18.7-17.5,7.4-4.1,15.2-6.1,23.5-6.1,7.2,0,13.3,1.5,18.3,4.4s8.7,6.6,11.3,11l2.4-15.4h24.7l-15.9,100.3h-24.7l2.5-15.8c-3.9,4.6-8.8,8.3-14.8,11.3s-12.7,4.5-19.9,4.5c-8.2,0-15.3-2.1-21.3-6.3-6.1-4.2-10.4-10.1-13.1-17.8s-3.3-16.4-1.7-26.4c1.5-9.9,4.9-18.6,10-26.2h0ZM1366,1248.5c-1.7-4.3-4.3-7.5-7.9-9.8s-7.7-3.4-12.3-3.4-8.9,1.1-13.2,3.3c-4.2,2.2-7.8,5.5-10.9,9.7-3.1,4.3-5.1,9.3-6,15.2-.9,5.8-.5,11,1.2,15.3,1.7,4.4,4.3,7.7,7.9,10.1,3.5,2.3,7.5,3.5,12,3.5s9-1.1,13.3-3.4,8-5.6,11-9.8c3-4.3,5-9.4,5.9-15.3,1-6,.7-11.1-1-15.4h0Z"/>
      <path class="st0" d="M970.9,1213.7l-45.2,100.3h-25.6l-7.1-69.4-29.1,69.4h-25.8l-13.6-100.3h25l5.6,75.6,30.9-75.6h25.2l6.7,75.4,29.5-75.4h23.5,0Z"/>
      <path class="st0" d="M1091.7,1237.5c5.3-7.5,11.9-13.4,19.8-17.5,7.9-4.2,16.5-6.2,25.9-6.2,12,0,21.5,3,28.5,9s10.9,14.5,11.8,25.3h-26.5c-.7-4.2-2.6-7.5-5.5-9.9s-6.9-3.6-11.8-3.6c-7,0-13,2.5-17.9,7.6s-8.1,12.3-9.6,21.7c-1.5,9.2-.6,16.4,2.7,21.5,3.3,5.1,8.4,7.6,15.4,7.6,9.9,0,17.1-4.4,21.6-13.3h26.5c-4.4,10.5-11,18.9-19.9,25.1s-19.3,9.3-31.3,9.3c-9.3,0-17.3-2.1-23.9-6.2-6.6-4.2-11.3-10-14.2-17.5s-3.6-16.3-2-26.4c1.7-10.2,5.1-19,10.4-26.5h0Z"/>
      <path class="st0" d="M1287.4,1235.5l3.2-20.2h-21.7l4.3-27.3h-24.7l-4.3,27.3h-11.6l-3.2,20.2h11.6l-7.7,48.4c-3.2,20.1,5.6,30.1,26.2,30.1h15.4l3.3-20.7h-11.4c-3.8,0-6.3-.7-7.6-2.2-1.3-1.4-1.8-3.8-1.2-7.1l7.7-48.6,21.7.1h0Z"/>
      <polygon class="st0" points="702.2 1188 682.2 1314 657 1314 608.3 1224 594 1314 568.8 1314 588.8 1188 614 1188 662.7 1278 677 1188 702.2 1188"/>
    </g>
    <g>
      <path class="st0" d="M2184.9,1237.4c5.1-7.6,11.4-13.4,18.7-17.5,7.4-4.1,15.2-6.1,23.5-6.1,7.2,0,13.4,1.5,18.3,4.4,5,2.9,8.7,6.6,11.3,11l2.4-15.4h24.7l-15.8,100.2h-24.7l2.5-15.8c-3.9,4.6-8.8,8.3-14.9,11.3-6,3-12.7,4.5-19.9,4.5-8.2,0-15.3-2.1-21.4-6.3-6.1-4.2-10.4-10.1-13.1-17.8s-3.3-16.4-1.7-26.4c1.6-9.8,5-18.5,10.1-26.1h0ZM2250.1,1248.5c-1.7-4.3-4.3-7.5-7.9-9.8-3.6-2.3-7.7-3.4-12.3-3.4s-8.9,1.1-13.1,3.3-7.9,5.5-10.9,9.7c-3.1,4.3-5.1,9.3-6,15.2-.9,5.8-.5,11,1.2,15.3,1.7,4.4,4.3,7.7,7.9,10.1,3.5,2.3,7.5,3.5,12,3.5s9-1.1,13.3-3.4,8-5.6,11-9.8c3-4.3,5-9.4,5.9-15.3s.6-11.1-1.1-15.4h0Z"/>
      <path class="st0" d="M1613.9,1237.4c5.1-7.6,11.4-13.4,18.8-17.5s15.3-6.1,23.6-6.1c6.3,0,12.1,1.4,17.4,4.1,5.3,2.8,9.3,6.4,11.9,11l6.5-40.8h24.9l-19.9,126h-24.9l2.5-15.9c-3.8,4.8-8.7,8.7-14.6,11.6-6,2.9-12.6,4.4-19.8,4.4-8.2,0-15.3-2.1-21.4-6.3-6.1-4.2-10.5-10.1-13.2-17.8s-3.3-16.4-1.7-26.4c1.4-10,4.8-18.7,9.9-26.3h0ZM1679.2,1248.5c-1.7-4.3-4.3-7.5-7.9-9.8s-7.7-3.4-12.3-3.4-8.9,1.1-13.2,3.3c-4.2,2.2-7.8,5.5-10.9,9.7-3.1,4.3-5.1,9.3-6,15.2-.9,5.8-.5,11,1.2,15.3,1.7,4.4,4.3,7.7,7.9,10.1,3.5,2.3,7.5,3.5,12,3.5s9-1.1,13.3-3.4,8-5.6,11-9.8c3-4.3,5-9.4,5.9-15.3,1-6,.6-11.1-1-15.4h0Z"/>
      <path class="st0" d="M1734.6,1307.8c-6.8-4.2-11.8-10-14.8-17.6-3.1-7.6-3.8-16.4-2.2-26.3,1.6-9.9,5.2-18.7,10.7-26.3,5.6-7.6,12.5-13.5,20.8-17.6,8.2-4.2,17.1-6.2,26.4-6.2s17.5,2.1,24.4,6.2c6.9,4.2,12,10,15.2,17.6s4,16.4,2.4,26.3-5.2,18.7-10.9,26.3c-5.7,7.6-12.7,13.5-21,17.6s-17.2,6.2-26.7,6.2-17.4-2.1-24.3-6.2h0ZM1775.3,1289.4c4.3-2.2,7.9-5.4,10.9-9.7,3-4.3,5-9.6,6-15.8,1.5-9.2.2-16.3-3.9-21.3s-9.6-7.4-16.6-7.4-13.3,2.5-18.8,7.4-9,12.1-10.5,21.3c-1.5,9.2-.3,16.3,3.6,21.3,3.8,5,9.2,7.4,16.3,7.4,4.4,0,8.8-1.1,13-3.2h0Z"/>
      <path class="st0" d="M2029.9,1271.2h-71c-.5,7,1.1,12.5,4.8,16.5s8.7,6,15,6c9.1,0,16.2-3.9,21.3-11.7h26.5c-4.3,9.3-10.9,17-19.8,23.1s-19.1,9-30.7,9c-9.3,0-17.4-2.1-24.2-6.2s-11.6-10-14.6-17.6c-2.9-7.6-3.6-16.4-2.1-26.3,1.6-10.1,5-18.9,10.3-26.5s11.9-13.4,19.9-17.5,16.8-6.1,26.4-6.1,17.2,2,23.9,6,11.4,9.6,14.3,16.9,3.6,15.7,2.1,25.2c-.4,3.3-1.1,6.4-2.1,9.2h0ZM2007.8,1254.8c.9-6.3-.6-11.4-4.4-15.2s-9-5.7-15.4-5.7-11.5,1.8-16.2,5.5-8.1,8.8-10.1,15.3h46.1v.1h0Z"/>
      <path class="st0" d="M2058.2,1309.7c-5.9-2.9-10.2-6.8-13.1-11.7s-4.1-10.3-3.5-16.3h24.7c-.1,3.7,1.2,6.8,4.1,9.3,2.8,2.4,6.6,3.7,11.4,3.7s8.5-.9,11.4-2.8,4.6-4.3,5.1-7.2c.5-3.2-.7-5.5-3.7-7.1s-7.8-3.3-14.5-5.2c-7-1.8-12.6-3.6-16.9-5.4-4.3-1.9-7.8-4.7-10.6-8.6s-3.6-9.1-2.5-15.6c.9-5.4,3.2-10.3,7-14.7s8.8-7.9,15-10.5,13.2-3.9,21-3.9c11.6,0,20.3,2.9,26.3,8.7,6,5.8,8.5,13.6,7.7,23.4h-23.5c.3-3.9-.9-6.9-3.4-9.2-2.5-2.3-6.1-3.4-10.9-3.4-4.4,0-8,.8-10.6,2.4-2.7,1.6-4.2,3.9-4.7,6.8-.5,3.3.7,5.8,3.7,7.4,3,1.7,7.8,3.4,14.4,5.2,6.7,1.8,12.2,3.6,16.5,5.4,4.3,1.9,7.8,4.8,10.5,8.7s3.6,9.1,2.7,15.5c-.9,5.6-3.2,10.6-7,15.1s-8.8,7.9-15,10.4-13.1,3.8-20.8,3.8-14.9-1.3-20.8-4.2h0Z"/>
      <polygon class="st0" points="1478.1 1314 1452.9 1314 1472.9 1188 1498.1 1188 1478.1 1314"/>
      <polygon class="st0" points="2129.7 1314 2154.2 1314 2170.1 1213.7 2145.6 1213.7 2129.7 1314"/>
      <path class="st0" d="M2147.2,1203.8h20.6c2.2,0,4.2-1.8,4.6-3.9l1.9-11.8h-20.6c-2.2,0-4.2,1.8-4.6,3.9l-1.9,11.8Z"/>
      <path class="st0" d="M1586.7,1224.9c6,7.3,7.9,17.5,5.8,30.6l-9.3,58.6h-24.5l8.7-55.2c1.2-7.7.2-13.6-3-17.8s-8.1-6.2-14.8-6.2-12.4,2.1-17,6.2c-4.6,4.2-7.5,10.1-8.7,17.8l-8.7,55.2h-24.5l15.9-100.3h24.5l-2.2,13.7c3.9-4.2,8.6-7.5,14.1-9.9s11.2-3.6,17.3-3.6c11.7-.1,20.4,3.6,26.4,10.9h0Z"/>
      <path class="st0" d="M1918.1,1224.9c6,7.3,7.9,17.5,5.8,30.6l-9.3,58.6h-24.5l8.7-55.2c1.2-7.7.2-13.6-3-17.8s-8.1-6.2-14.8-6.2-12.4,2.1-17,6.2c-4.6,4.2-7.5,10.1-8.7,17.8l-8.7,55.2h-24.5l15.9-100.3h24.5l-2.2,13.7c3.9-4.2,8.6-7.5,14.1-9.9s11.2-3.6,17.3-3.6c11.7-.1,20.5,3.6,26.4,10.9h0Z"/>
    </g>
  </g>
</svg>