<?xml version="1.0" encoding="utf-8"?>
<svg version="1.1" id="rahmadipLogoFull" xmlns="http://www.w3.org/2000/svg" xmlns:xlink="http://www.w3.org/1999/xlink" x="0px"
	 y="0px" viewBox="0 0 4086.9 1080" style="enable-background:new 0 0 4086.9 1080;" xml:space="preserve">
<style type="text/css">
	.st0{fill:#FAFAFA;}
</style>
<path class="st0" d="M941.6,678.8C871.4,896,615.3,1020.5,401.2,941.6c-112.9-41.6-247.6,24-284.6,138.4
	C2.4,1055.4-42,912.1,48,833.5c56.5-49.5,125.6-83.2,199.3-97.6c73-14.2,148.9-8.8,219.5,15.6c37.2,12.9,77.1,15.7,115.5,8.3
	c77.4-14.5,144-71.9,169.2-146.7c12.9-37.2,15.7-77.1,8.3-115.5c-5.5-51.1-143.7,8.9-154.2,12.8c84.7-38.2,370.5-166.5,449.3-203.9
	C869.7,434.1,1016.1,480.5,941.6,678.8L941.6,678.8z M25,773.4c78.8-37.3,364.6-165.7,449.3-203.9c-10.5,3.9-148.7,63.9-154.2,12.8
	c-7.4-38.3-4.6-78.3,8.3-115.5c25.2-74.8,91.8-132.2,169.2-146.7c38.3-7.4,78.3-4.6,115.5,8.3c70.6,24.4,146.5,29.8,219.5,15.6
	c73.8-14.3,142.8-48.1,199.3-97.6c90.1-78.7,45.7-222-68.5-246.5c-37,114.5-171.8,180-284.7,138.4C464.7,59.5,208.6,184,138.4,401.2
	C63.8,599.5,210.2,645.9,25,773.4L25,773.4z M1371.1,381.4c-13.3,7.9-23.8,20.4-31.7,37.6v-49.1H1260v348.5h84.6V524.3
	c0-26.5,7.3-47,21.8-61.5c14.5-14.5,33.7-21.8,57.7-21.8h30.1v-75h-20.5C1409.3,366.1,1388.4,371.2,1371.1,381.4L1371.1,381.4z
	 M1708.5,377.9c-21.8-10.5-47-15.7-75.6-15.7c-23.5,0-45.3,3.8-65.3,11.5c-20.1,7.7-37.5,18.3-52.2,31.7
	c-14.7,13.5-25.5,29.4-32.3,47.7l68.6,33.3c6.4-15.4,16.6-28,30.4-37.8c13.9-9.8,29.8-14.7,47.7-14.7c19.2,0,34.6,5,46.1,15.1
	c11.5,10,17.3,22.5,17.3,37.5v11.3L1590,514.7c-27.3,4.3-50,11.5-67.9,21.8c-17.9,10.2-31.3,23-40,38.1
	c-8.8,15.2-13.1,32.3-13.1,51.6s4.9,37.7,14.7,52.9c9.8,15.2,23.8,26.8,42,34.9c18.2,8.1,39.4,12.2,63.8,12.2
	c19.2,0,36.6-2.6,52.2-7.7c15.6-5.1,29.7-12.8,42.3-23.1c5.1-4.2,9.9-8.7,14.4-13.5v36.6h79.4V486.5c0-24.3-6.1-45.9-18.3-64.7
	C1747.3,403,1730.3,388.4,1708.5,377.9L1708.5,377.9z M1682.2,619.8c-7.3,13.2-17.6,23.6-31.1,31.1c-13.4,7.5-28.9,11.2-46.4,11.2
	c-13.7,0-25.1-3.5-34.3-10.6c-9.2-7-13.8-16.5-13.8-28.5s4.1-22.3,12.2-29.8c8.1-7.5,20.5-12.7,37.2-15.7l87.1-15.5v14.8
	C1693.1,592.2,1689.5,606.5,1682.2,619.8L1682.2,619.8z M2136,425.3c11.1,19.9,16.7,42.8,16.7,68.9v224.2h-83.9V514.1
	c0-15.4-3-28.6-9-39.7c-6-11.1-14.2-19.6-24.7-25.6c-10.5-6-22.7-9-36.8-9s-25.8,3-36.5,9c-10.7,6-19,14.5-25,25.6
	c-6,11.1-9,24.4-9,39.7v204.4h-84.6v-485h84.6v171.1c7.5-10.6,17-19.3,28.5-26c18.6-10.9,40.2-16.3,65-16.3s48.4,5.6,68.2,16.7
	C2109.4,390,2124.9,405.5,2136,425.3L2136,425.3z M2720.2,425.3c11.1,19.9,16.7,42.8,16.7,68.9v224.2h-83.9V514.1
	c0-15.4-2.8-28.6-8.3-39.7c-5.6-11.1-13.4-19.6-23.4-25.6c-10-6-21.9-9-35.6-9s-25,3-35.2,9c-10.2,6-18.2,14.5-23.7,25.6
	c-5.6,11.1-8.3,24.4-8.3,39.7v204.4h-83.9V514.1c0-15.4-2.8-28.6-8.3-39.7c-5.6-11.1-13.4-19.6-23.4-25.6c-10-6-21.9-9-35.6-9
	s-25,3-35.2,9c-10.2,6-18.2,14.5-23.7,25.6c-5.6,11.1-8.3,24.4-8.3,39.7v204.4h-84.6V369.9h79.4v43.7c7.1-13.8,16.9-24.7,29.5-32.8
	c19.2-12.4,41.9-18.6,67.9-18.6c28.6,0,53.8,7.5,75.6,22.4c13.7,9.4,24.4,20.7,32,33.9c9.3-14.7,20.9-26.5,34.6-35.5
	c21.4-13.9,45.9-20.8,73.7-20.8c24.8,0,46.9,5.6,66.3,16.7C2693.8,390,2709.1,405.4,2720.2,425.3L2720.2,425.3z M3020.2,377.9
	c-21.8-10.5-47-15.7-75.6-15.7c-23.5,0-45.3,3.8-65.4,11.5c-20.1,7.7-37.5,18.3-52.2,31.7c-14.7,13.5-25.5,29.4-32.4,47.7l68.6,33.3
	c6.4-15.4,16.6-28,30.4-37.8c13.9-9.8,29.8-14.7,47.7-14.7c19.2,0,34.6,5,46.1,15.1c11.5,10,17.3,22.5,17.3,37.5v11.3l-103.1,16.9
	c-27.3,4.3-50,11.5-67.9,21.8s-31.3,23-40,38.1c-8.8,15.2-13.1,32.3-13.1,51.6s4.9,37.7,14.7,52.9c9.8,15.2,23.8,26.8,42,34.9
	c18.1,8.1,39.4,12.2,63.8,12.2c19.2,0,36.6-2.6,52.2-7.7c15.6-5.1,29.7-12.8,42.3-23.1c5.1-4.2,9.9-8.7,14.4-13.5v36.6h79.4V486.5
	c0-24.3-6.1-45.9-18.3-64.7C3059,403,3042,388.4,3020.2,377.9L3020.2,377.9z M2993.9,619.8c-7.3,13.2-17.6,23.6-31.1,31.1
	c-13.4,7.5-28.9,11.2-46.4,11.2c-13.7,0-25.1-3.5-34.3-10.6c-9.2-7-13.8-16.5-13.8-28.5s4.1-22.3,12.2-29.8
	c8.1-7.5,20.5-12.7,37.2-15.7l87.1-15.5v14.8C3004.8,592.2,3001.2,606.5,2993.9,619.8L2993.9,619.8z M3419.6,405.2
	c-10.1-11-22.1-20.1-36.2-27.2c-20.7-10.5-44.3-15.7-70.8-15.7c-33.3,0-63.2,8.1-89.7,24.3c-26.5,16.2-47.5,38-63.1,65.4
	c-15.6,27.3-23.4,58.1-23.4,92.3s7.7,64.5,23.1,92.3c15.4,27.8,36.4,49.7,63.1,65.7c26.7,16,56.9,24,90.6,24
	c25.2,0,48.5-4.9,69.8-14.7c16.5-7.6,30.1-18,41-31.2v38.2h79.4v-485h-83.9L3419.6,405.2L3419.6,405.2z M3407.1,598.6
	c-8.3,15.8-19.9,28.2-34.6,37.2s-31.5,13.5-50.3,13.5s-35.7-4.5-50.6-13.5c-15-9-26.6-21.3-34.9-37.2c-8.3-15.8-12.5-34-12.5-54.5
	s4.2-38,12.5-53.8c8.3-15.8,20-28.2,34.9-37.2c14.9-9,31.8-13.5,50.6-13.5s35.6,4.5,50.3,13.5s26.3,21.4,34.6,37.2
	c8.3,15.8,12.5,33.8,12.5,53.8S3415.4,582.8,3407.1,598.6z M3569.5,369.9h84.6v348.5h-84.6V369.9z M3569.5,241.1h84.6v89.7h-84.6
	V241.1z M4063.5,451.9c-15.6-27.3-36.6-49.1-63.1-65.4c-26.5-16.2-56.2-24.3-89.1-24.3c-26.9,0-50.6,5.2-71.1,15.7
	c-16.4,8.4-30.1,19.5-41,33.2v-41.2h-79.4v476.7h84.6V685c10.3,10.9,22.5,19.8,36.8,26.4c21.1,9.8,44.3,14.7,69.5,14.7
	c33.7,0,63.9-8,90.3-24c26.5-16,47.4-37.9,62.8-65.7c15.4-27.8,23.1-58.5,23.1-92.3S4079.1,479.2,4063.5,451.9L4063.5,451.9z
	 M3987,598.6c-8.6,15.8-20.2,28.2-34.9,37.2c-14.7,9-31.7,13.5-50.9,13.5s-34.9-4.5-49.6-13.5c-14.7-9-26.3-21.3-34.6-37.2
	c-8.3-15.8-12.5-34-12.5-54.5s4.2-38,12.5-53.8c8.3-15.8,19.9-28.2,34.6-37.2c14.7-9,31.3-13.5,49.6-13.5s36.2,4.5,50.9,13.5
	c14.7,9,26.4,21.4,34.9,37.2c8.5,15.8,12.8,33.8,12.8,53.8S3995.5,582.8,3987,598.6z"/>
</svg>
